{
.appVersion = "1184";
DisplayStrings = (
"ff fb bf fh hf fi if fj jf fk kf fl lf ft tb hi ij jk kl lt\012\012fffbbffhhffiiffjjffkkffllffttbhiijjkkllt\012\012nnftnnooftoo\012\012lofty goalsftnn\012\012kakbkckdkekfkgkhkikjkkklkmknkokpkqkrksktkukvkwkxkykz\012nnknnookoo\012\012\012nnkannkbnnkcnnkdnnkennkfnnkgnnkhnnkinnkjnnkknnklnnkmnnknnnkonnkpnnkqnnkrnnksnnktnnkunnkvnnkwnnkxnnkynnkz\012\012nnffnnfbnnbfnnfhnnhfnnfinnifnnfjnnjfnnfknnkfnnflnnlfnnftnntbnnhinnijnnjknnklnnlt\012\012ooffoofboobfoofhoohfoofiooifoofjoojfoofkookfoktofloolfooftootboohiooijoojkooklooltf'f*\012\012|ff|fb|bf|fh|hf|fi|if|fj|jf|fk|kf|fl|lf|ft|tb|hi|ij|jk|kl|lt\012techy nology\012aynnynnooyooybynnynnooyooycynnynnooyooydynnynnooyooyeynnynnooyooyfynnynnooyooygynnynnooyooyhynnynnooyooyiynnynnooyooyjynnynnooyooykynnynnooyooylynnynnooyooymynnynnooyooynynnynnooyooyoynnynnooyooypynnynnooyooyqynnynnooyooyrynnynnooyooysynnynnooyooytynnynnooyooyuynnynnooyooyvynnynnooyooywynnynnooyooyxynnynnooyooyyynnynnooyooyz\012\012nnynnooyoo\012nnvnnoovoo\012avnnvnnoovoovbvnnvnnoovoovcvnnvnnoovoovdvnnvnnoovoovevnnvnnoovoovfvnnvnnoovoovgvnnvnnoovoovhvnnvnnoovoovivnnvnnoovoovjvnnvnnoovoovkvnnvnnoovoovlvnnvnnoovoovmvnnvnnoovoovnvnnvnnoovoovovnnvnnoovoovpvnnvnnoovoovqvnnvnnoovoovrvnnvnnoovoovsvnnvnnoovoovtvnnvnnoovoovuvnnvnnoovoovvvnnvnnoovoovwvnnvnnoovoovxvnnvnnoovoovyvnnvnnoovoovz\012\012nnynnooyoo\012nnvnnoovoo\012nnwnnoowoo\012awnnwnnoowoowbwnnwnnoowoowcwnnwnnoowoowdwnnwnnoowoowewnnwnnoowoowfwnnwnnoowoowgwnnwnnoowoowhwnnwnnoowoowiwnnwnnoowoowjwnnwnnoowoowkwnnwnnoowoowlwnnwnnoowoowmwnnwnnoowoownwnnwnnoowoowownnwnnoowoowpwnnwnnoowoowqwnnwnnoowoowrwnnwnnoowoowswnnwnnoowoowtwnnwnnoowoowuwnnwnnoowoowvwnnwnnoowoowwwnnwnnoowoowxwnnwnnoowoowywnnwnnoowoowz",

glyphs = (
{
glyphname = A;
layers = (
{
anchors = (
{
name = bottom;
position = "{1053, 0}";
},
{
name = topcap;
position = "{627, 1427}";
}
);
layerId = "FA6D65B5-4623-4FAC-A199-3F662257AC29";
paths = (
{
closed = 1;
nodes = (
"498 0 LINE",
"498 63 LINE",
"355 84 OFFCURVE",
"305 111 OFFCURVE",
"305 170 CURVE SMOOTH",
"305 192 OFFCURVE",
"312 219 OFFCURVE",
"323 251 CURVE SMOOTH",
"567 887 LINE",
"574 887 LINE",
"828 196 LINE SMOOTH",
"839 168 OFFCURVE",
"844 145 OFFCURVE",
"844 127 CURVE SMOOTH",
"844 81 OFFCURVE",
"801 67 OFFCURVE",
"676 63 CURVE",
"676 0 LINE",
"1384 0 LINE",
"1384 63 LINE",
"1258 72 OFFCURVE",
"1230 90 OFFCURVE",
"1198 168 CURVE SMOOTH",
"706 1357 LINE",
"450 1260 LINE",
"529 1083 LINE",
"204 254 LINE SMOOTH",
"149 115 OFFCURVE",
"127 91 OFFCURVE",
"-34 63 CURVE",
"-34 0 LINE"
);
},
{
closed = 1;
nodes = (
"870 382 LINE",
"870 479 LINE",
"316 479 LINE",
"316 382 LINE"
);
}
);
width = 1343;
},
{
anchors = (
{
name = bottom;
position = "{1027, 0}";
},
{
name = topcap;
position = "{627, 1427}";
}
);
associatedMasterId = "FA6D65B5-4623-4FAC-A199-3F662257AC29";
layerId = "CBD44848-52BD-4DC5-BFA6-577546B7224D";
paths = (
{
closed = 1;
nodes = (
"441 0 LINE",
"441 39 LINE",
"326 57 OFFCURVE",
"265 84 OFFCURVE",
"265 146 CURVE SMOOTH",
"265 167 OFFCURVE",
"271 192 OFFCURVE",
"283 227 CURVE SMOOTH",
"579 1056 LINE",
"586 1056 LINE",
"906 172 LINE SMOOTH",
"921 131 OFFCURVE",
"925 111 OFFCURVE",
"925 97 CURVE SMOOTH",
"925 61 OFFCURVE",
"906 47 OFFCURVE",
"748 39 CURVE",
"748 0 LINE",
"1294 0 LINE",
"1294 39 LINE",
"1174 48 OFFCURVE",
"1148 65 OFFCURVE",
"1119 145 CURVE SMOOTH",
"665 1357 LINE",
"497 1265 LINE",
"541 1164 LINE",
"208 230 LINE SMOOTH",
"165 110 OFFCURVE",
"141 67 OFFCURVE",
"-41 39 CURVE",
"-41 0 LINE"
);
},
{
closed = 1;
nodes = (
"818 486 LINE",
"818 555 LINE",
"354 555 LINE",
"354 486 LINE"
);
}
);
width = 1278;
},
{
anchors = (
{
name = bottom;
position = "{1031, 0}";
},
{
name = topcap;
position = "{627, 1427}";
}
);
layerId = "7C8D72FA-6E62-4564-8BB2-D9F9BC4EB15A";
paths = (
{
closed = 1;
nodes = (
"449 0 LINE",
"449 42 LINE",
"330 60 OFFCURVE",
"270 88 OFFCURVE",
"270 150 CURVE SMOOTH",
"270 170 OFFCURVE",
"277 196 OFFCURVE",
"289 230 CURVE SMOOTH",
"578 1033 LINE",
"584 1033 LINE",
"896 175 LINE SMOOTH",
"910 136 OFFCURVE",
"914 116 OFFCURVE",
"914 101 CURVE SMOOTH",
"914 63 OFFCURVE",
"892 50 OFFCURVE",
"738 42 CURVE",
"738 0 LINE",
"1306 0 LINE",
"1306 42 LINE",
"1185 51 OFFCURVE",
"1159 69 OFFCURVE",
"1130 148 CURVE SMOOTH",
"671 1357 LINE",
"491 1264 LINE",
"539 1153 LINE",
"207 234 LINE SMOOTH",
"163 111 OFFCURVE",
"139 71 OFFCURVE",
"-40 42 CURVE",
"-40 0 LINE"
);
},
{
closed = 1;
nodes = (
"825 472 LINE",
"825 545 LINE",
"349 545 LINE",
"349 472 LINE"
);
}
);
width = 1287;
}
);
leftKerningGroup = A;
rightKerningGroup = A;
unicode = 0041;
},
{
glyphname = Aringacute;
layers = (
{
components = (
{
name = A;
}
);
layerId = "FA6D65B5-4623-4FAC-A199-3F662257AC29";
paths = (
{
closed = 1;
nodes = (
"509 1447 LINE",
"527 1434 OFFCURVE",
"554 1427 OFFCURVE",
"581 1427 CURVE SMOOTH",
"640 1427 OFFCURVE",
"684 1463 OFFCURVE",
"698 1516 CURVE",
"775 1538 OFFCURVE",
"791 1571 OFFCURVE",
"791 1605 CURVE SMOOTH",
"791 1646 OFFCURVE",
"749 1665 OFFCURVE",
"715 1665 CURVE SMOOTH",
"691 1665 OFFCURVE",
"672 1658 OFFCURVE",
"651 1646 CURVE",
"631 1660 OFFCURVE",
"606 1667 OFFCURVE",
"581 1667 CURVE SMOOTH",
"512 1667 OFFCURVE",
"461 1615 OFFCURVE",
"461 1547 CURVE SMOOTH",
"461 1533 OFFCURVE",
"462 1521 OFFCURVE",
"466 1509 CURVE",
"392 1454 LINE",
"411 1418 LINE"
);
},
{
closed = 1;
nodes = (
"561 1513 OFFCURVE",
"547 1526 OFFCURVE",
"547 1547 CURVE SMOOTH",
"547 1567 OFFCURVE",
"561 1581 OFFCURVE",
"581 1581 CURVE SMOOTH",
"602 1581 OFFCURVE",
"615 1567 OFFCURVE",
"615 1547 CURVE SMOOTH",
"615 1526 OFFCURVE",
"602 1513 OFFCURVE",
"581 1513 CURVE SMOOTH"
);
}
);
width = 1343;
},
{
associatedMasterId = "FA6D65B5-4623-4FAC-A199-3F662257AC29";
components = (
{
name = A;
}
);
layerId = "CBD44848-52BD-4DC5-BFA6-577546B7224D";
paths = (
{
closed = 1;
nodes = (
"520 1447 LINE",
"538 1434 OFFCURVE",
"563 1427 OFFCURVE",
"591 1427 CURVE SMOOTH",
"649 1427 OFFCURVE",
"694 1463 OFFCURVE",
"708 1516 CURVE",
"785 1538 OFFCURVE",
"801 1571 OFFCURVE",
"801 1605 CURVE SMOOTH",
"801 1646 OFFCURVE",
"760 1665 OFFCURVE",
"726 1665 CURVE SMOOTH",
"701 1665 OFFCURVE",
"683 1658 OFFCURVE",
"662 1646 CURVE",
"641 1660 OFFCURVE",
"617 1667 OFFCURVE",
"591 1667 CURVE SMOOTH",
"522 1667 OFFCURVE",
"471 1615 OFFCURVE",
"471 1547 CURVE SMOOTH",
"471 1533 OFFCURVE",
"473 1521 OFFCURVE",
"477 1509 CURVE",
"402 1454 LINE",
"421 1418 LINE"
);
},
{
closed = 1;
nodes = (
"555 1486 OFFCURVE",
"531 1511 OFFCURVE",
"531 1547 CURVE SMOOTH",
"531 1583 OFFCURVE",
"555 1607 OFFCURVE",
"591 1607 CURVE SMOOTH",
"627 1607 OFFCURVE",
"651 1583 OFFCURVE",
"651 1547 CURVE SMOOTH",
"651 1511 OFFCURVE",
"627 1486 OFFCURVE",
"591 1486 CURVE SMOOTH"
);
}
);
width = 1278;
},
{
components = (
{
alignment = -1;
name = A;
}
);
layerId = "7C8D72FA-6E62-4564-8BB2-D9F9BC4EB15A";
paths = (
{
closed = 1;
nodes = (
"518 1447 LINE",
"537 1434 OFFCURVE",
"562 1427 OFFCURVE",
"590 1427 CURVE SMOOTH",
"648 1427 OFFCURVE",
"693 1463 OFFCURVE",
"707 1516 CURVE",
"784 1538 OFFCURVE",
"799 1571 OFFCURVE",
"799 1605 CURVE SMOOTH",
"799 1646 OFFCURVE",
"758 1665 OFFCURVE",
"724 1665 CURVE SMOOTH",
"700 1665 OFFCURVE",
"681 1658 OFFCURVE",
"661 1646 CURVE",
"639 1660 OFFCURVE",
"616 1667 OFFCURVE",
"590 1667 CURVE SMOOTH",
"521 1667 OFFCURVE",
"469 1615 OFFCURVE",
"469 1547 CURVE SMOOTH",
"469 1533 OFFCURVE",
"471 1521 OFFCURVE",
"475 1509 CURVE",
"401 1454 LINE",
"420 1418 LINE"
);
},
{
closed = 1;
nodes = (
"555 1490 OFFCURVE",
"533 1513 OFFCURVE",
"533 1547 CURVE SMOOTH",
"533 1581 OFFCURVE",
"555 1604 OFFCURVE",
"590 1604 CURVE SMOOTH",
"624 1604 OFFCURVE",
"647 1581 OFFCURVE",
"647 1547 CURVE SMOOTH",
"647 1513 OFFCURVE",
"624 1490 OFFCURVE",
"590 1490 CURVE SMOOTH"
);
}
);
width = 1287;
}
);
leftKerningGroup = A;
rightKerningGroup = A;
unicode = 01FA;
},
{
glyphname = AE;
layers = (
{
layerId = "FA6D65B5-4623-4FAC-A199-3F662257AC29";
paths = (
{
closed = 1;
nodes = (
"468 0 LINE",
"468 63 LINE",
"375 77 OFFCURVE",
"335 104 OFFCURVE",
"335 151 CURVE SMOOTH",
"335 177 OFFCURVE",
"349 210 OFFCURVE",
"369 251 CURVE SMOOTH",
"495 495 LINE",
"841 495 LINE",
"841 97 LINE",
"694 63 LINE",
"694 0 LINE",
"1737 0 LINE",
"1810 402 LINE",
"1721 402 LINE",
"1681 290 OFFCURVE",
"1638 199 OFFCURVE",
"1564 98 CURVE",
"1136 98 LINE",
"1136 653 LINE",
"1353 653 LINE",
"1391 590 OFFCURVE",
"1414 527 OFFCURVE",
"1427 459 CURVE",
"1499 459 LINE",
"1499 940 LINE",
"1427 940 LINE",
"1414 871 OFFCURVE",
"1391 810 OFFCURVE",
"1353 746 CURVE",
"1136 746 LINE",
"1136 1226 LINE",
"1574 1226 LINE",
"1633 1136 OFFCURVE",
"1680 1036 OFFCURVE",
"1707 945 CURVE",
"1779 945 LINE",
"1746 1323 LINE",
"660 1323 LINE",
"660 1277 LINE",
"767 1246 LINE",
"244 254 LINE SMOOTH",
"176 124 OFFCURVE",
"129 90 OFFCURVE",
"-47 63 CURVE",
"-47 0 LINE"
);
},
{
closed = 1;
nodes = (
"834 1146 LINE",
"841 1146 LINE",
"841 588 LINE",
"543 588 LINE"
);
}
);
width = 1879;
},
{
associatedMasterId = "FA6D65B5-4623-4FAC-A199-3F662257AC29";
layerId = "CBD44848-52BD-4DC5-BFA6-577546B7224D";
paths = (
{
closed = 1;
nodes = (
"443 0 LINE",
"443 39 LINE",
"337 57 OFFCURVE",
"290 75 OFFCURVE",
"290 124 CURVE SMOOTH",
"290 149 OFFCURVE",
"303 183 OFFCURVE",
"326 227 CURVE SMOOTH",
"469 502 LINE",
"810 502 LINE",
"810 72 LINE",
"663 39 LINE",
"663 0 LINE",
"1612 0 LINE",
"1676 402 LINE",
"1619 402 LINE",
"1581 290 OFFCURVE",
"1543 181 OFFCURVE",
"1475 68 CURVE",
"990 68 LINE",
"990 631 LINE",
"1298 631 LINE",
"1330 563 OFFCURVE",
"1351 493 OFFCURVE",
"1361 425 CURVE",
"1402 425 LINE",
"1402 906 LINE",
"1361 906 LINE",
"1350 837 OFFCURVE",
"1330 769 OFFCURVE",
"1298 699 CURVE",
"990 699 LINE",
"990 1255 LINE",
"1483 1255 LINE",
"1540 1156 OFFCURVE",
"1579 1043 OFFCURVE",
"1607 945 CURVE",
"1648 945 LINE",
"1619 1323 LINE",
"646 1323 LINE",
"646 1284 LINE",
"792 1255 LINE",
"253 230 LINE SMOOTH",
"188 106 OFFCURVE",
"147 67 OFFCURVE",
"-38 39 CURVE",
"-38 0 LINE"
);
},
{
closed = 1;
nodes = (
"801 1146 LINE",
"808 1146 LINE",
"808 570 LINE",
"505 570 LINE"
);
}
);
width = 1769;
},
{
layerId = "7C8D72FA-6E62-4564-8BB2-D9F9BC4EB15A";
paths = (
{
closed = 1;
nodes = (
"447 0 LINE",
"447 42 LINE",
"342 59 OFFCURVE",
"296 79 OFFCURVE",
"296 128 CURVE SMOOTH",
"296 153 OFFCURVE",
"309 186 OFFCURVE",
"332 230 CURVE SMOOTH",
"472 501 LINE",
"814 501 LINE",
"814 76 LINE",
"667 42 LINE",
"667 0 LINE",
"1629 0 LINE",
"1694 402 LINE",
"1633 402 LINE",
"1594 290 OFFCURVE",
"1556 183 OFFCURVE",
"1487 72 CURVE",
"1010 72 LINE",
"1010 634 LINE",
"1305 634 LINE",
"1338 566 OFFCURVE",
"1359 498 OFFCURVE",
"1370 429 CURVE",
"1415 429 LINE",
"1415 911 LINE",
"1370 911 LINE",
"1358 841 OFFCURVE",
"1338 774 OFFCURVE",
"1305 705 CURVE",
"1010 705 LINE",
"1010 1251 LINE",
"1496 1251 LINE",
"1552 1154 OFFCURVE",
"1593 1042 OFFCURVE",
"1621 945 CURVE",
"1666 945 LINE",
"1636 1323 LINE",
"648 1323 LINE",
"648 1283 LINE",
"789 1254 LINE",
"252 234 LINE SMOOTH",
"186 109 OFFCURVE",
"145 70 OFFCURVE",
"-39 42 CURVE",
"-39 0 LINE"
);
},
{
closed = 1;
nodes = (
"805 1146 LINE",
"812 1146 LINE",
"812 573 LINE",
"510 573 LINE"
);
}
);
width = 1783;
}
);
leftKerningGroup = AE;
rightKerningGroup = E;
unicode = 00C6;
},
{
glyphname = B;
layers = (
{
layerId = "FA6D65B5-4623-4FAC-A199-3F662257AC29";
paths = (
{
closed = 1;
nodes = (
"683 0 LINE SMOOTH",
"889 0 OFFCURVE",
"1004 25 OFFCURVE",
"1092 90 CURVE SMOOTH",
"1171 149 OFFCURVE",
"1219 246 OFFCURVE",
"1219 351 CURVE SMOOTH",
"1219 552 OFFCURVE",
"1065 696 OFFCURVE",
"834 719 CURVE",
"834 726 LINE",
"1038 762 OFFCURVE",
"1153 863 OFFCURVE",
"1153 1002 CURVE SMOOTH",
"1153 1104 OFFCURVE",
"1102 1196 OFFCURVE",
"1013 1253 CURVE SMOOTH",
"935 1301 OFFCURVE",
"825 1323 OFFCURVE",
"651 1323 CURVE SMOOTH",
"72 1323 LINE",
"72 1260 LINE",
"219 1224 LINE",
"219 102 LINE",
"72 63 LINE",
"72 0 LINE"
);
},
{
closed = 1;
nodes = (
"545 91 OFFCURVE",
"514 113 OFFCURVE",
"514 194 CURVE SMOOTH",
"514 658 LINE",
"577 658 LINE",
"794 658 OFFCURVE",
"896 567 OFFCURVE",
"896 366 CURVE SMOOTH",
"896 177 OFFCURVE",
"816 91 OFFCURVE",
"646 91 CURVE SMOOTH"
);
},
{
closed = 1;
nodes = (
"514 1230 LINE",
"545 1230 LINE SMOOTH",
"643 1230 OFFCURVE",
"717 1212 OFFCURVE",
"767 1172 CURVE SMOOTH",
"813 1135 OFFCURVE",
"839 1076 OFFCURVE",
"839 995 CURVE SMOOTH",
"839 854 OFFCURVE",
"762 770 OFFCURVE",
"624 756 CURVE SMOOTH",
"602 753 OFFCURVE",
"574 751 OFFCURVE",
"533 751 CURVE SMOOTH",
"514 751 LINE"
);
}
);
width = 1291;
},
{
associatedMasterId = "FA6D65B5-4623-4FAC-A199-3F662257AC29";
layerId = "CBD44848-52BD-4DC5-BFA6-577546B7224D";
paths = (
{
closed = 1;
nodes = (
"622 0 LINE SMOOTH",
"810 0 OFFCURVE",
"914 25 OFFCURVE",
"993 90 CURVE SMOOTH",
"1065 149 OFFCURVE",
"1108 246 OFFCURVE",
"1108 351 CURVE SMOOTH",
"1108 538 OFFCURVE",
"973 679 OFFCURVE",
"767 701 CURVE",
"767 708 LINE",
"949 746 OFFCURVE",
"1050 853 OFFCURVE",
"1050 1002 CURVE SMOOTH",
"1050 1104 OFFCURVE",
"1002 1196 OFFCURVE",
"921 1253 CURVE SMOOTH",
"851 1301 OFFCURVE",
"751 1323 OFFCURVE",
"593 1323 CURVE SMOOTH",
"84 1323 LINE",
"84 1284 LINE",
"230 1251 LINE",
"230 72 LINE",
"84 39 LINE",
"84 0 LINE"
);
},
{
closed = 1;
nodes = (
"445 65 OFFCURVE",
"411 88 OFFCURVE",
"411 168 CURVE SMOOTH",
"411 669 LINE",
"557 669 LINE",
"798 669 OFFCURVE",
"909 572 OFFCURVE",
"909 366 CURVE SMOOTH",
"909 160 OFFCURVE",
"799 65 OFFCURVE",
"563 65 CURVE SMOOTH"
);
},
{
closed = 1;
nodes = (
"411 1255 LINE",
"559 1255 LINE SMOOTH",
"684 1255 OFFCURVE",
"744 1237 OFFCURVE",
"794 1186 CURVE SMOOTH",
"839 1140 OFFCURVE",
"857 1088 OFFCURVE",
"857 1007 CURVE SMOOTH",
"857 851 OFFCURVE",
"787 756 OFFCURVE",
"662 742 CURVE SMOOTH",
"624 739 OFFCURVE",
"584 737 OFFCURVE",
"518 737 CURVE SMOOTH",
"411 737 LINE"
);
}
);
width = 1201;
},
{
layerId = "7C8D72FA-6E62-4564-8BB2-D9F9BC4EB15A";
paths = (
{
closed = 1;
nodes = (
"630 0 LINE SMOOTH",
"820 0 OFFCURVE",
"926 25 OFFCURVE",
"1006 90 CURVE SMOOTH",
"1079 149 OFFCURVE",
"1123 246 OFFCURVE",
"1123 351 CURVE SMOOTH",
"1123 540 OFFCURVE",
"985 681 OFFCURVE",
"776 704 CURVE",
"776 710 LINE",
"961 748 OFFCURVE",
"1064 854 OFFCURVE",
"1064 1002 CURVE SMOOTH",
"1064 1104 OFFCURVE",
"1015 1196 OFFCURVE",
"933 1253 CURVE SMOOTH",
"862 1301 OFFCURVE",
"761 1323 OFFCURVE",
"601 1323 CURVE SMOOTH",
"82 1323 LINE",
"82 1281 LINE",
"229 1247 LINE",
"229 76 LINE",
"82 42 LINE",
"82 0 LINE"
);
},
{
closed = 1;
nodes = (
"459 69 OFFCURVE",
"425 91 OFFCURVE",
"425 171 CURVE SMOOTH",
"425 668 LINE",
"559 668 LINE",
"797 668 OFFCURVE",
"907 572 OFFCURVE",
"907 366 CURVE SMOOTH",
"907 162 OFFCURVE",
"801 69 OFFCURVE",
"574 69 CURVE SMOOTH"
);
},
{
closed = 1;
nodes = (
"425 1252 LINE",
"557 1252 LINE SMOOTH",
"678 1252 OFFCURVE",
"740 1234 OFFCURVE",
"790 1184 CURVE SMOOTH",
"835 1139 OFFCURVE",
"855 1086 OFFCURVE",
"855 1005 CURVE SMOOTH",
"855 851 OFFCURVE",
"784 758 OFFCURVE",
"657 744 CURVE SMOOTH",
"621 741 OFFCURVE",
"583 739 OFFCURVE",
"520 739 CURVE SMOOTH",
"425 739 LINE"
);
}
);
width = 1213;
}
);
leftKerningGroup = I;
unicode = 0042;
},
{
glyphname = C;
layers = (
{
anchors = (
{
name = bottom;
position = "{759, 0}";
},
{
name = topcap;
position = "{757, 1427}";
}
);
layerId = "FA6D65B5-4623-4FAC-A199-3F662257AC29";
paths = (
{
closed = 1;
nodes = (
"900 -18 OFFCURVE",
"1026 22 OFFCURVE",
"1160 113 CURVE",
"1230 0 LINE",
"1294 0 LINE",
"1294 477 LINE",
"1217 477 LINE",
"1201 392 OFFCURVE",
"1171 319 OFFCURVE",
"1131 262 CURVE SMOOTH",
"1054 149 OFFCURVE",
"937 86 OFFCURVE",
"796 86 CURVE SMOOTH",
"540 86 OFFCURVE",
"402 290 OFFCURVE",
"402 670 CURVE SMOOTH",
"402 1047 OFFCURVE",
"538 1239 OFFCURVE",
"803 1239 CURVE SMOOTH",
"947 1239 OFFCURVE",
"1056 1183 OFFCURVE",
"1136 1059 CURVE SMOOTH",
"1165 1016 OFFCURVE",
"1189 963 OFFCURVE",
"1212 902 CURVE",
"1294 902 LINE",
"1294 1323 LINE",
"1242 1323 LINE",
"1167 1235 LINE",
"1160 1235 LINE",
"1047 1303 OFFCURVE",
"898 1341 OFFCURVE",
"755 1341 CURVE SMOOTH",
"357 1341 OFFCURVE",
"77 1056 OFFCURVE",
"77 653 CURVE SMOOTH",
"77 254 OFFCURVE",
"351 -18 OFFCURVE",
"749 -18 CURVE SMOOTH"
);
}
);
width = 1397;
},
{
anchors = (
{
name = bottom;
position = "{744, 0}";
},
{
name = topcap;
position = "{744, 1427}";
}
);
associatedMasterId = "FA6D65B5-4623-4FAC-A199-3F662257AC29";
layerId = "CBD44848-52BD-4DC5-BFA6-577546B7224D";
paths = (
{
closed = 1;
nodes = (
"859 -18 OFFCURVE",
"975 22 OFFCURVE",
"1097 113 CURVE",
"1176 0 LINE",
"1217 0 LINE",
"1217 450 LINE",
"1171 450 LINE",
"1153 359 OFFCURVE",
"1122 282 OFFCURVE",
"1079 222 CURVE SMOOTH",
"1006 115 OFFCURVE",
"894 61 OFFCURVE",
"756 61 CURVE SMOOTH",
"475 61 OFFCURVE",
"313 282 OFFCURVE",
"313 665 CURVE SMOOTH",
"313 1049 OFFCURVE",
"471 1265 OFFCURVE",
"755 1265 CURVE SMOOTH",
"907 1265 OFFCURVE",
"1014 1214 OFFCURVE",
"1095 1083 CURVE SMOOTH",
"1121 1040 OFFCURVE",
"1145 990 OFFCURVE",
"1165 928 CURVE",
"1217 928 LINE",
"1217 1323 LINE",
"1186 1323 LINE",
"1102 1235 LINE",
"1095 1235 LINE",
"992 1303 OFFCURVE",
"859 1341 OFFCURVE",
"726 1341 CURVE SMOOTH",
"357 1341 OFFCURVE",
"97 1056 OFFCURVE",
"97 653 CURVE SMOOTH",
"97 256 OFFCURVE",
"349 -18 OFFCURVE",
"719 -18 CURVE SMOOTH"
);
}
);
width = 1330;
},
{
anchors = (
{
name = bottom;
position = "{746, 0}";
},
{
name = topcap;
position = "{746, 1427}";
}
);
layerId = "7C8D72FA-6E62-4564-8BB2-D9F9BC4EB15A";
paths = (
{
closed = 1;
nodes = (
"865 -18 OFFCURVE",
"982 22 OFFCURVE",
"1105 113 CURVE",
"1183 0 LINE",
"1227 0 LINE",
"1227 454 LINE",
"1177 454 LINE",
"1160 364 OFFCURVE",
"1129 287 OFFCURVE",
"1086 227 CURVE SMOOTH",
"1012 120 OFFCURVE",
"899 64 OFFCURVE",
"761 64 CURVE SMOOTH",
"483 64 OFFCURVE",
"324 283 OFFCURVE",
"324 666 CURVE SMOOTH",
"324 1049 OFFCURVE",
"480 1261 OFFCURVE",
"761 1261 CURVE SMOOTH",
"913 1261 OFFCURVE",
"1019 1210 OFFCURVE",
"1100 1080 CURVE SMOOTH",
"1127 1037 OFFCURVE",
"1151 987 OFFCURVE",
"1171 924 CURVE",
"1227 924 LINE",
"1227 1323 LINE",
"1193 1323 LINE",
"1110 1235 LINE",
"1103 1235 LINE",
"999 1303 OFFCURVE",
"865 1341 OFFCURVE",
"729 1341 CURVE SMOOTH",
"357 1341 OFFCURVE",
"94 1056 OFFCURVE",
"94 653 CURVE SMOOTH",
"94 256 OFFCURVE",
"349 -18 OFFCURVE",
"723 -18 CURVE SMOOTH"
);
}
);
width = 1339;
}
);
leftKerningGroup = C;
rightKerningGroup = C;
unicode = 0043;
},
{
glyphname = D;
layers = (
{
anchors = (
{
name = bottom;
position = "{708, 0}";
},
{
name = topcap;
position = "{705, 1427}";
}
);
layerId = "FA6D65B5-4623-4FAC-A199-3F662257AC29";
paths = (
{
closed = 1;
nodes = (
"708 0 LINE",
"902 0 OFFCURVE",
"1027 29 OFFCURVE",
"1142 102 CURVE SMOOTH",
"1316 212 OFFCURVE",
"1430 423 OFFCURVE",
"1430 663 CURVE SMOOTH",
"1430 897 OFFCURVE",
"1323 1087 OFFCURVE",
"1155 1198 CURVE SMOOTH",
"1016 1291 OFFCURVE",
"839 1323 OFFCURVE",
"540 1323 CURVE SMOOTH",
"70 1323 LINE",
"70 1260 LINE",
"219 1228 LINE",
"219 98 LINE",
"70 65 LINE",
"70 0 LINE"
);
},
{
closed = 1;
nodes = (
"563 93 OFFCURVE",
"514 124 OFFCURVE",
"514 196 CURVE SMOOTH",
"514 1228 LINE",
"669 1228 LINE SMOOTH",
"814 1228 OFFCURVE",
"920 1188 OFFCURVE",
"988 1104 CURVE SMOOTH",
"1065 1011 OFFCURVE",
"1100 873 OFFCURVE",
"1100 663 CURVE SMOOTH",
"1100 450 OFFCURVE",
"1065 299 OFFCURVE",
"988 208 CURVE SMOOTH",
"921 129 OFFCURVE",
"823 93 OFFCURVE",
"689 93 CURVE SMOOTH"
);
}
);
width = 1509;
},
{
anchors = (
{
name = bottom;
position = "{705, 0}";
},
{
name = topcap;
position = "{705, 1427}";
}
);
associatedMasterId = "FA6D65B5-4623-4FAC-A199-3F662257AC29";
layerId = "CBD44848-52BD-4DC5-BFA6-577546B7224D";
paths = (
{
closed = 1;
nodes = (
"660 0 LINE",
"832 0 OFFCURVE",
"940 29 OFFCURVE",
"1040 102 CURVE SMOOTH",
"1199 219 OFFCURVE",
"1294 425 OFFCURVE",
"1294 658 CURVE SMOOTH",
"1294 884 OFFCURVE",
"1207 1079 OFFCURVE",
"1052 1198 CURVE SMOOTH",
"932 1289 OFFCURVE",
"785 1323 OFFCURVE",
"512 1323 CURVE SMOOTH",
"84 1323 LINE",
"84 1284 LINE",
"230 1251 LINE",
"230 72 LINE",
"84 39 LINE",
"84 0 LINE"
);
},
{
closed = 1;
nodes = (
"454 65 OFFCURVE",
"411 90 OFFCURVE",
"411 168 CURVE SMOOTH",
"411 1255 LINE",
"547 1255 LINE SMOOTH",
"739 1255 OFFCURVE",
"846 1221 OFFCURVE",
"934 1129 CURVE SMOOTH",
"1029 1027 OFFCURVE",
"1079 873 OFFCURVE",
"1079 679 CURVE SMOOTH",
"1079 486 OFFCURVE",
"1029 318 OFFCURVE",
"938 204 CURVE SMOOTH",
"855 104 OFFCURVE",
"758 65 OFFCURVE",
"590 65 CURVE SMOOTH"
);
}
);
width = 1393;
},
{
anchors = (
{
name = bottom;
position = "{705, 0}";
},
{
name = topcap;
position = "{705, 1427}";
}
);
layerId = "7C8D72FA-6E62-4564-8BB2-D9F9BC4EB15A";
paths = (
{
closed = 1;
nodes = (
"667 0 LINE",
"841 0 OFFCURVE",
"952 29 OFFCURVE",
"1054 102 CURVE SMOOTH",
"1215 218 OFFCURVE",
"1312 425 OFFCURVE",
"1312 659 CURVE SMOOTH",
"1312 886 OFFCURVE",
"1223 1080 OFFCURVE",
"1066 1198 CURVE SMOOTH",
"943 1289 OFFCURVE",
"792 1323 OFFCURVE",
"515 1323 CURVE SMOOTH",
"82 1323 LINE",
"82 1281 LINE",
"229 1248 LINE",
"229 76 LINE",
"82 43 LINE",
"82 0 LINE"
);
},
{
closed = 1;
nodes = (
"469 69 OFFCURVE",
"425 94 OFFCURVE",
"425 172 CURVE SMOOTH",
"425 1251 LINE",
"563 1251 LINE SMOOTH",
"749 1251 OFFCURVE",
"856 1216 OFFCURVE",
"941 1126 CURVE SMOOTH",
"1034 1025 OFFCURVE",
"1082 873 OFFCURVE",
"1082 677 CURVE SMOOTH",
"1082 482 OFFCURVE",
"1034 316 OFFCURVE",
"945 205 CURVE SMOOTH",
"864 108 OFFCURVE",
"767 69 OFFCURVE",
"603 69 CURVE SMOOTH"
);
}
);
width = 1408;
}
);
leftKerningGroup = I;
rightKerningGroup = D;
unicode = 0044;
},
{
glyphname = Eth;
layers = (
{
layerId = "FA6D65B5-4623-4FAC-A199-3F662257AC29";
paths = (
{
closed = 1;
nodes = (
"708 0 LINE SMOOTH",
"902 0 OFFCURVE",
"1027 29 OFFCURVE",
"1142 102 CURVE SMOOTH",
"1316 213 OFFCURVE",
"1430 423 OFFCURVE",
"1430 663 CURVE SMOOTH",
"1430 897 OFFCURVE",
"1323 1086 OFFCURVE",
"1155 1198 CURVE SMOOTH",
"1016 1291 OFFCURVE",
"839 1323 OFFCURVE",
"540 1323 CURVE SMOOTH",
"70 1323 LINE",
"70 1260 LINE",
"219 1228 LINE",
"219 755 LINE",
"90 755 LINE",
"90 608 LINE",
"219 608 LINE",
"219 98 LINE",
"70 65 LINE",
"70 0 LINE"
);
},
{
closed = 1;
nodes = (
"563 93 OFFCURVE",
"514 124 OFFCURVE",
"514 196 CURVE SMOOTH",
"514 608 LINE",
"755 608 LINE",
"755 755 LINE",
"514 755 LINE",
"514 1228 LINE",
"669 1228 LINE SMOOTH",
"814 1228 OFFCURVE",
"920 1188 OFFCURVE",
"988 1104 CURVE SMOOTH",
"1065 1011 OFFCURVE",
"1100 873 OFFCURVE",
"1100 663 CURVE SMOOTH",
"1100 450 OFFCURVE",
"1065 299 OFFCURVE",
"988 208 CURVE SMOOTH",
"921 129 OFFCURVE",
"823 93 OFFCURVE",
"689 93 CURVE SMOOTH"
);
}
);
width = 1509;
},
{
associatedMasterId = "FA6D65B5-4623-4FAC-A199-3F662257AC29";
layerId = "CBD44848-52BD-4DC5-BFA6-577546B7224D";
paths = (
{
closed = 1;
nodes = (
"662 0 LINE SMOOTH",
"834 0 OFFCURVE",
"941 29 OFFCURVE",
"1042 102 CURVE SMOOTH",
"1201 219 OFFCURVE",
"1296 425 OFFCURVE",
"1296 658 CURVE SMOOTH",
"1296 884 OFFCURVE",
"1208 1079 OFFCURVE",
"1054 1198 CURVE SMOOTH",
"934 1289 OFFCURVE",
"787 1323 OFFCURVE",
"514 1323 CURVE SMOOTH",
"86 1323 LINE",
"86 1284 LINE",
"232 1251 LINE",
"232 737 LINE",
"97 737 LINE",
"97 626 LINE",
"232 626 LINE",
"232 72 LINE",
"86 39 LINE",
"86 0 LINE"
);
},
{
closed = 1;
nodes = (
"455 65 OFFCURVE",
"412 90 OFFCURVE",
"412 168 CURVE SMOOTH",
"412 626 LINE",
"624 626 LINE",
"624 737 LINE",
"412 737 LINE",
"412 1255 LINE",
"548 1255 LINE SMOOTH",
"741 1255 OFFCURVE",
"848 1221 OFFCURVE",
"935 1129 CURVE SMOOTH",
"1031 1027 OFFCURVE",
"1081 873 OFFCURVE",
"1081 679 CURVE SMOOTH",
"1081 486 OFFCURVE",
"1031 318 OFFCURVE",
"940 204 CURVE SMOOTH",
"857 104 OFFCURVE",
"760 65 OFFCURVE",
"591 65 CURVE SMOOTH"
);
}
);
width = 1394;
},
{
layerId = "7C8D72FA-6E62-4564-8BB2-D9F9BC4EB15A";
paths = (
{
closed = 1;
nodes = (
"668 0 LINE SMOOTH",
"843 0 OFFCURVE",
"953 29 OFFCURVE",
"1055 102 CURVE SMOOTH",
"1217 218 OFFCURVE",
"1314 425 OFFCURVE",
"1314 659 CURVE SMOOTH",
"1314 886 OFFCURVE",
"1223 1080 OFFCURVE",
"1067 1198 CURVE SMOOTH",
"945 1289 OFFCURVE",
"794 1323 OFFCURVE",
"517 1323 CURVE SMOOTH",
"84 1323 LINE",
"84 1281 LINE",
"231 1248 LINE",
"231 740 LINE",
"96 740 LINE",
"96 624 LINE",
"231 624 LINE",
"231 76 LINE",
"84 43 LINE",
"84 0 LINE"
);
},
{
closed = 1;
nodes = (
"470 69 OFFCURVE",
"426 94 OFFCURVE",
"426 172 CURVE SMOOTH",
"426 624 LINE",
"641 624 LINE",
"641 740 LINE",
"426 740 LINE",
"426 1251 LINE",
"564 1251 LINE SMOOTH",
"751 1251 OFFCURVE",
"857 1216 OFFCURVE",
"942 1126 CURVE SMOOTH",
"1036 1025 OFFCURVE",
"1084 873 OFFCURVE",
"1084 677 CURVE SMOOTH",
"1084 482 OFFCURVE",
"1036 316 OFFCURVE",
"947 205 CURVE SMOOTH",
"866 108 OFFCURVE",
"768 69 OFFCURVE",
"604 69 CURVE SMOOTH"
);
}
);
width = 1409;
}
);
leftKerningGroup = I;
rightKerningGroup = D;
unicode = 00D0;
},
{
glyphname = Dcroat;
layers = (
{
layerId = "FA6D65B5-4623-4FAC-A199-3F662257AC29";
paths = (
{
closed = 1;
nodes = (
"708 0 LINE SMOOTH",
"902 0 OFFCURVE",
"1027 29 OFFCURVE",
"1142 102 CURVE SMOOTH",
"1316 213 OFFCURVE",
"1430 423 OFFCURVE",
"1430 663 CURVE SMOOTH",
"1430 897 OFFCURVE",
"1323 1086 OFFCURVE",
"1155 1198 CURVE SMOOTH",
"1016 1291 OFFCURVE",
"839 1323 OFFCURVE",
"540 1323 CURVE SMOOTH",
"70 1323 LINE",
"70 1260 LINE",
"219 1228 LINE",
"219 755 LINE",
"90 755 LINE",
"90 608 LINE",
"219 608 LINE",
"219 98 LINE",
"70 65 LINE",
"70 0 LINE"
);
},
{
closed = 1;
nodes = (
"563 93 OFFCURVE",
"514 124 OFFCURVE",
"514 196 CURVE SMOOTH",
"514 608 LINE",
"755 608 LINE",
"755 755 LINE",
"514 755 LINE",
"514 1228 LINE",
"669 1228 LINE SMOOTH",
"814 1228 OFFCURVE",
"920 1188 OFFCURVE",
"988 1104 CURVE SMOOTH",
"1065 1011 OFFCURVE",
"1100 873 OFFCURVE",
"1100 663 CURVE SMOOTH",
"1100 450 OFFCURVE",
"1065 299 OFFCURVE",
"988 208 CURVE SMOOTH",
"921 129 OFFCURVE",
"823 93 OFFCURVE",
"689 93 CURVE SMOOTH"
);
}
);
width = 1509;
},
{
associatedMasterId = "FA6D65B5-4623-4FAC-A199-3F662257AC29";
layerId = "CBD44848-52BD-4DC5-BFA6-577546B7224D";
paths = (
{
closed = 1;
nodes = (
"662 0 LINE SMOOTH",
"834 0 OFFCURVE",
"941 29 OFFCURVE",
"1042 102 CURVE SMOOTH",
"1201 219 OFFCURVE",
"1296 425 OFFCURVE",
"1296 658 CURVE SMOOTH",
"1296 884 OFFCURVE",
"1208 1079 OFFCURVE",
"1054 1198 CURVE SMOOTH",
"934 1289 OFFCURVE",
"787 1323 OFFCURVE",
"514 1323 CURVE SMOOTH",
"86 1323 LINE",
"86 1284 LINE",
"232 1251 LINE",
"232 737 LINE",
"97 737 LINE",
"97 626 LINE",
"232 626 LINE",
"232 72 LINE",
"86 39 LINE",
"86 0 LINE"
);
},
{
closed = 1;
nodes = (
"455 65 OFFCURVE",
"412 90 OFFCURVE",
"412 168 CURVE SMOOTH",
"412 626 LINE",
"624 626 LINE",
"624 737 LINE",
"412 737 LINE",
"412 1255 LINE",
"548 1255 LINE SMOOTH",
"741 1255 OFFCURVE",
"848 1221 OFFCURVE",
"935 1129 CURVE SMOOTH",
"1031 1027 OFFCURVE",
"1081 873 OFFCURVE",
"1081 679 CURVE SMOOTH",
"1081 486 OFFCURVE",
"1031 318 OFFCURVE",
"940 204 CURVE SMOOTH",
"857 104 OFFCURVE",
"760 65 OFFCURVE",
"591 65 CURVE SMOOTH"
);
}
);
width = 1394;
},
{
layerId = "7C8D72FA-6E62-4564-8BB2-D9F9BC4EB15A";
paths = (
{
closed = 1;
nodes = (
"668 0 LINE SMOOTH",
"843 0 OFFCURVE",
"953 29 OFFCURVE",
"1055 102 CURVE SMOOTH",
"1217 218 OFFCURVE",
"1314 425 OFFCURVE",
"1314 659 CURVE SMOOTH",
"1314 886 OFFCURVE",
"1223 1080 OFFCURVE",
"1067 1198 CURVE SMOOTH",
"945 1289 OFFCURVE",
"794 1323 OFFCURVE",
"517 1323 CURVE SMOOTH",
"84 1323 LINE",
"84 1281 LINE",
"231 1248 LINE",
"231 740 LINE",
"96 740 LINE",
"96 624 LINE",
"231 624 LINE",
"231 76 LINE",
"84 43 LINE",
"84 0 LINE"
);
},
{
closed = 1;
nodes = (
"470 69 OFFCURVE",
"426 94 OFFCURVE",
"426 172 CURVE SMOOTH",
"426 624 LINE",
"641 624 LINE",
"641 740 LINE",
"426 740 LINE",
"426 1251 LINE",
"564 1251 LINE SMOOTH",
"751 1251 OFFCURVE",
"857 1216 OFFCURVE",
"942 1126 CURVE SMOOTH",
"1036 1025 OFFCURVE",
"1084 873 OFFCURVE",
"1084 677 CURVE SMOOTH",
"1084 482 OFFCURVE",
"1036 316 OFFCURVE",
"947 205 CURVE SMOOTH",
"866 108 OFFCURVE",
"768 69 OFFCURVE",
"604 69 CURVE SMOOTH"
);
}
);
width = 1409;
}
);
leftKerningGroup = I;
rightKerningGroup = D;
unicode = 0110;
},
{
glyphname = E;
layers = (
{
anchors = (
{
name = bottom;
position = "{664, 0}";
},
{
name = topcap;
position = "{653, 1427}";
}
);
layerId = "FA6D65B5-4623-4FAC-A199-3F662257AC29";
paths = (
{
closed = 1;
nodes = (
"1115 0 LINE",
"1188 402 LINE",
"1099 402 LINE",
"1057 301 OFFCURVE",
"1016 199 OFFCURVE",
"941 98 CURVE",
"514 98 LINE",
"514 1226 LINE",
"952 1226 LINE",
"1011 1136 OFFCURVE",
"1054 1035 OFFCURVE",
"1085 945 CURVE",
"1156 945 LINE",
"1124 1323 LINE",
"72 1323 LINE",
"72 1260 LINE",
"219 1228 LINE",
"219 97 LINE",
"72 63 LINE",
"72 0 LINE"
);
},
{
closed = 1;
nodes = (
"877 459 LINE",
"877 940 LINE",
"805 940 LINE",
"791 877 OFFCURVE",
"769 810 OFFCURVE",
"730 746 CURVE",
"486 746 LINE",
"486 653 LINE",
"730 653 LINE",
"767 590 OFFCURVE",
"791 522 OFFCURVE",
"805 459 CURVE"
);
}
);
width = 1257;
},
{
anchors = (
{
name = bottom;
position = "{615, 0}";
},
{
name = topcap;
position = "{612, 1427}";
}
);
associatedMasterId = "FA6D65B5-4623-4FAC-A199-3F662257AC29";
layerId = "CBD44848-52BD-4DC5-BFA6-577546B7224D";
paths = (
{
closed = 1;
nodes = (
"1033 0 LINE",
"1097 402 LINE",
"1040 402 LINE",
"1002 290 OFFCURVE",
"964 181 OFFCURVE",
"896 68 CURVE",
"411 68 LINE",
"411 1255 LINE",
"904 1255 LINE",
"961 1156 OFFCURVE",
"1000 1043 OFFCURVE",
"1027 945 CURVE",
"1069 945 LINE",
"1040 1323 LINE",
"84 1323 LINE",
"84 1284 LINE",
"230 1251 LINE",
"230 72 LINE",
"84 39 LINE",
"84 0 LINE"
);
},
{
closed = 1;
nodes = (
"823 457 LINE",
"823 938 LINE",
"782 938 LINE",
"770 870 OFFCURVE",
"751 801 OFFCURVE",
"719 732 CURVE",
"387 732 LINE",
"387 663 LINE",
"719 663 LINE",
"751 595 OFFCURVE",
"771 526 OFFCURVE",
"782 457 CURVE"
);
}
);
width = 1189;
},
{
anchors = (
{
name = bottom;
position = "{622, 0}";
},
{
name = topcap;
position = "{618, 1427}";
}
);
layerId = "7C8D72FA-6E62-4564-8BB2-D9F9BC4EB15A";
paths = (
{
closed = 1;
nodes = (
"1044 0 LINE",
"1109 402 LINE",
"1048 402 LINE",
"1009 291 OFFCURVE",
"971 183 OFFCURVE",
"902 72 CURVE",
"425 72 LINE",
"425 1251 LINE",
"911 1251 LINE",
"968 1154 OFFCURVE",
"1007 1042 OFFCURVE",
"1035 945 CURVE",
"1081 945 LINE",
"1051 1323 LINE",
"82 1323 LINE",
"82 1281 LINE",
"229 1248 LINE",
"229 76 LINE",
"82 42 LINE",
"82 0 LINE"
);
},
{
closed = 1;
nodes = (
"830 457 LINE",
"830 939 LINE",
"785 939 LINE",
"772 871 OFFCURVE",
"753 802 OFFCURVE",
"720 734 CURVE",
"400 734 LINE",
"400 662 LINE",
"720 662 LINE",
"753 594 OFFCURVE",
"774 526 OFFCURVE",
"785 457 CURVE"
);
}
);
width = 1198;
}
);
leftKerningGroup = I;
rightKerningGroup = E;
unicode = 0045;
},
{
glyphname = F;
layers = (
{
layerId = "FA6D65B5-4623-4FAC-A199-3F662257AC29";
paths = (
{
closed = 1;
nodes = (
"708 0 LINE",
"708 63 LINE",
"512 97 LINE",
"512 1226 LINE",
"963 1226 LINE",
"1020 1136 OFFCURVE",
"1059 1035 OFFCURVE",
"1086 945 CURVE",
"1153 945 LINE",
"1124 1323 LINE",
"72 1323 LINE",
"72 1260 LINE",
"219 1228 LINE",
"219 97 LINE",
"72 63 LINE",
"72 0 LINE"
);
},
{
closed = 1;
nodes = (
"875 459 LINE",
"875 940 LINE",
"808 940 LINE",
"796 875 OFFCURVE",
"777 812 OFFCURVE",
"744 746 CURVE",
"490 746 LINE",
"490 655 LINE",
"744 655 LINE",
"775 590 OFFCURVE",
"796 524 OFFCURVE",
"808 459 CURVE"
);
}
);
width = 1176;
},
{
associatedMasterId = "FA6D65B5-4623-4FAC-A199-3F662257AC29";
layerId = "CBD44848-52BD-4DC5-BFA6-577546B7224D";
paths = (
{
closed = 1;
nodes = (
"606 0 LINE",
"606 39 LINE",
"411 72 LINE",
"411 1255 LINE",
"904 1255 LINE",
"961 1156 OFFCURVE",
"1000 1043 OFFCURVE",
"1027 945 CURVE",
"1069 945 LINE",
"1040 1323 LINE",
"84 1323 LINE",
"84 1284 LINE",
"230 1251 LINE",
"230 72 LINE",
"84 39 LINE",
"84 0 LINE"
);
},
{
closed = 1;
nodes = (
"823 457 LINE",
"823 938 LINE",
"782 938 LINE",
"770 870 OFFCURVE",
"751 801 OFFCURVE",
"719 732 CURVE",
"387 732 LINE",
"387 663 LINE",
"719 663 LINE",
"751 595 OFFCURVE",
"771 526 OFFCURVE",
"782 457 CURVE"
);
}
);
width = 1117;
},
{
layerId = "7C8D72FA-6E62-4564-8BB2-D9F9BC4EB15A";
paths = (
{
closed = 1;
nodes = (
"620 0 LINE",
"620 42 LINE",
"425 76 LINE",
"425 1251 LINE",
"912 1251 LINE",
"969 1154 OFFCURVE",
"1008 1042 OFFCURVE",
"1035 945 CURVE",
"1081 945 LINE",
"1051 1323 LINE",
"82 1323 LINE",
"82 1281 LINE",
"229 1248 LINE",
"229 76 LINE",
"82 42 LINE",
"82 0 LINE"
);
},
{
closed = 1;
nodes = (
"830 457 LINE",
"830 939 LINE",
"786 939 LINE",
"773 871 OFFCURVE",
"754 802 OFFCURVE",
"722 734 CURVE",
"401 734 LINE",
"401 662 LINE",
"722 662 LINE",
"754 594 OFFCURVE",
"775 526 OFFCURVE",
"786 457 CURVE"
);
}
);
width = 1125;
}
);
leftKerningGroup = I;
unicode = 0046;
},
{
glyphname = G;
layers = (
{
anchors = (
{
name = bottom;
position = "{754, 0}";
},
{
name = topcap;
position = "{775, 1427}";
}
);
layerId = "FA6D65B5-4623-4FAC-A199-3F662257AC29";
paths = (
{
closed = 1;
nodes = (
"945 -18 OFFCURVE",
"1179 50 OFFCURVE",
"1287 140 CURVE",
"1287 567 LINE",
"1440 600 LINE",
"1440 663 LINE",
"837 663 LINE",
"837 600 LINE",
"992 567 LINE",
"992 276 LINE SMOOTH",
"992 222 OFFCURVE",
"988 203 OFFCURVE",
"973 181 CURVE SMOOTH",
"932 120 OFFCURVE",
"846 82 OFFCURVE",
"746 82 CURVE SMOOTH",
"514 82 OFFCURVE",
"407 253 OFFCURVE",
"407 648 CURVE SMOOTH",
"407 1043 OFFCURVE",
"536 1237 OFFCURVE",
"798 1237 CURVE SMOOTH",
"979 1237 OFFCURVE",
"1088 1148 OFFCURVE",
"1207 902 CURVE",
"1284 902 LINE",
"1284 1323 LINE",
"1229 1323 LINE",
"1153 1235 LINE",
"1146 1235 LINE",
"1063 1301 OFFCURVE",
"920 1341 OFFCURVE",
"767 1341 CURVE SMOOTH",
"362 1341 OFFCURVE",
"77 1052 OFFCURVE",
"77 641 CURVE SMOOTH",
"77 246 OFFCURVE",
"344 -18 OFFCURVE",
"746 -18 CURVE SMOOTH"
);
}
);
width = 1470;
},
{
anchors = (
{
name = bottom;
position = "{734, 0}";
},
{
name = topcap;
position = "{751, 1427}";
}
);
associatedMasterId = "FA6D65B5-4623-4FAC-A199-3F662257AC29";
layerId = "CBD44848-52BD-4DC5-BFA6-577546B7224D";
paths = (
{
closed = 1;
nodes = (
"896 -18 OFFCURVE",
"1093 48 OFFCURVE",
"1188 140 CURVE",
"1188 591 LINE",
"1341 624 LINE",
"1341 663 LINE",
"853 663 LINE",
"853 624 LINE",
"1007 591 LINE",
"1007 256 LINE SMOOTH",
"1007 197 OFFCURVE",
"1004 184 OFFCURVE",
"993 167 CURVE SMOOTH",
"950 97 OFFCURVE",
"859 62 OFFCURVE",
"748 62 CURVE SMOOTH",
"457 62 OFFCURVE",
"314 256 OFFCURVE",
"314 646 CURVE SMOOTH",
"314 1052 OFFCURVE",
"468 1264 OFFCURVE",
"763 1264 CURVE SMOOTH",
"954 1264 OFFCURVE",
"1057 1178 OFFCURVE",
"1167 928 CURVE",
"1207 928 LINE",
"1207 1323 LINE",
"1169 1323 LINE",
"1076 1235 LINE",
"1069 1235 LINE",
"993 1303 OFFCURVE",
"873 1341 OFFCURVE",
"739 1341 CURVE SMOOTH",
"368 1341 OFFCURVE",
"95 1045 OFFCURVE",
"95 646 CURVE SMOOTH",
"95 258 OFFCURVE",
"353 -18 OFFCURVE",
"719 -18 CURVE SMOOTH"
);
}
);
width = 1389;
},
{
anchors = (
{
name = bottom;
position = "{737, 0}";
},
{
name = topcap;
position = "{754, 1427}";
}
);
layerId = "7C8D72FA-6E62-4564-8BB2-D9F9BC4EB15A";
paths = (
{
closed = 1;
nodes = (
"902 -18 OFFCURVE",
"1104 48 OFFCURVE",
"1201 140 CURVE",
"1201 588 LINE",
"1354 621 LINE",
"1354 663 LINE",
"850 663 LINE",
"850 621 LINE",
"1005 588 LINE",
"1005 259 LINE SMOOTH",
"1005 201 OFFCURVE",
"1002 186 OFFCURVE",
"990 169 CURVE SMOOTH",
"948 100 OFFCURVE",
"858 64 OFFCURVE",
"748 64 CURVE SMOOTH",
"465 64 OFFCURVE",
"327 255 OFFCURVE",
"327 647 CURVE SMOOTH",
"327 1051 OFFCURVE",
"477 1260 OFFCURVE",
"767 1260 CURVE SMOOTH",
"957 1260 OFFCURVE",
"1061 1174 OFFCURVE",
"1172 924 CURVE",
"1217 924 LINE",
"1217 1323 LINE",
"1177 1323 LINE",
"1086 1235 LINE",
"1080 1235 LINE",
"1002 1302 OFFCURVE",
"879 1341 OFFCURVE",
"743 1341 CURVE SMOOTH",
"367 1341 OFFCURVE",
"92 1046 OFFCURVE",
"92 646 CURVE SMOOTH",
"92 256 OFFCURVE",
"351 -18 OFFCURVE",
"722 -18 CURVE SMOOTH"
);
}
);
width = 1399;
}
);
leftKerningGroup = G;
rightKerningGroup = G;
unicode = 0047;
},
{
glyphname = H;
layers = (
{
anchors = (
{
name = bottom;
position = "{793, 0}";
},
{
name = topcap;
position = "{793, 1427}";
}
);
layerId = "FA6D65B5-4623-4FAC-A199-3F662257AC29";
paths = (
{
closed = 1;
nodes = (
"1515 0 LINE",
"1515 63 LINE",
"1370 100 LINE",
"1370 1226 LINE",
"1515 1260 LINE",
"1515 1323 LINE",
"928 1323 LINE",
"928 1260 LINE",
"1074 1226 LINE",
"1074 100 LINE",
"928 63 LINE",
"928 0 LINE"
);
},
{
closed = 1;
nodes = (
"658 0 LINE",
"658 63 LINE",
"514 100 LINE",
"514 1226 LINE",
"658 1260 LINE",
"658 1323 LINE",
"72 1323 LINE",
"72 1260 LINE",
"219 1226 LINE",
"219 100 LINE",
"72 63 LINE",
"72 0 LINE"
);
},
{
closed = 1;
nodes = (
"1246 649 LINE",
"1246 748 LINE",
"346 748 LINE",
"346 649 LINE"
);
}
);
width = 1586;
},
{
anchors = (
{
name = bottom;
position = "{742, 0}";
},
{
name = topcap;
position = "{742, 1427}";
}
);
associatedMasterId = "FA6D65B5-4623-4FAC-A199-3F662257AC29";
layerId = "CBD44848-52BD-4DC5-BFA6-577546B7224D";
paths = (
{
closed = 1;
nodes = (
"1396 0 LINE",
"1396 36 LINE",
"1242 72 LINE",
"1242 1251 LINE",
"1396 1280 LINE",
"1396 1323 LINE",
"907 1323 LINE",
"907 1284 LINE",
"1063 1251 LINE",
"1063 72 LINE",
"907 39 LINE",
"907 0 LINE"
);
},
{
closed = 1;
nodes = (
"565 0 LINE",
"565 39 LINE",
"412 72 LINE",
"412 1251 LINE",
"565 1284 LINE",
"565 1323 LINE",
"77 1323 LINE",
"77 1284 LINE",
"232 1251 LINE",
"232 72 LINE",
"77 39 LINE",
"77 0 LINE"
);
},
{
closed = 1;
nodes = (
"1135 662 LINE",
"1135 730 LINE",
"344 730 LINE",
"344 662 LINE"
);
}
);
width = 1473;
},
{
anchors = (
{
name = bottom;
position = "{749, 0}";
},
{
name = topcap;
position = "{749, 1427}";
}
);
layerId = "7C8D72FA-6E62-4564-8BB2-D9F9BC4EB15A";
paths = (
{
closed = 1;
nodes = (
"1411 0 LINE",
"1411 40 LINE",
"1259 76 LINE",
"1259 1248 LINE",
"1411 1278 LINE",
"1411 1323 LINE",
"910 1323 LINE",
"910 1281 LINE",
"1064 1248 LINE",
"1064 76 LINE",
"910 42 LINE",
"910 0 LINE"
);
},
{
closed = 1;
nodes = (
"578 0 LINE",
"578 42 LINE",
"426 76 LINE",
"426 1248 LINE",
"578 1281 LINE",
"578 1323 LINE",
"76 1323 LINE",
"76 1281 LINE",
"231 1248 LINE",
"231 76 LINE",
"76 42 LINE",
"76 0 LINE"
);
},
{
closed = 1;
nodes = (
"1150 660 LINE",
"1150 733 LINE",
"344 733 LINE",
"344 660 LINE"
);
}
);
width = 1488;
}
);
leftKerningGroup = I;
rightKerningGroup = I;
unicode = 0048;
},
{
glyphname = Hbar;
layers = (
{
layerId = "FA6D65B5-4623-4FAC-A199-3F662257AC29";
paths = (
{
closed = 1;
nodes = (
"660 0 LINE",
"660 63 LINE",
"516 100 LINE",
"516 649 LINE",
"1076 649 LINE",
"1076 100 LINE",
"930 63 LINE",
"930 0 LINE",
"1516 0 LINE",
"1516 63 LINE",
"1371 100 LINE",
"1371 923 LINE",
"1504 923 LINE",
"1504 1052 LINE",
"1371 1052 LINE",
"1371 1226 LINE",
"1516 1260 LINE",
"1516 1323 LINE",
"930 1323 LINE",
"930 1260 LINE",
"1076 1226 LINE",
"1076 1052 LINE",
"516 1052 LINE",
"516 1226 LINE",
"660 1260 LINE",
"660 1323 LINE",
"74 1323 LINE",
"74 1260 LINE",
"220 1226 LINE",
"220 1052 LINE",
"91 1052 LINE",
"91 923 LINE",
"220 923 LINE",
"220 100 LINE",
"74 63 LINE",
"74 0 LINE"
);
},
{
closed = 1;
nodes = (
"516 923 LINE",
"1076 923 LINE",
"1076 748 LINE",
"516 748 LINE"
);
}
);
width = 1590;
},
{
associatedMasterId = "FA6D65B5-4623-4FAC-A199-3F662257AC29";
layerId = "CBD44848-52BD-4DC5-BFA6-577546B7224D";
paths = (
{
closed = 1;
nodes = (
"565 0 LINE",
"565 39 LINE",
"412 72 LINE",
"412 662 LINE",
"1063 662 LINE",
"1063 72 LINE",
"907 39 LINE",
"907 0 LINE",
"1396 0 LINE",
"1396 36 LINE",
"1242 72 LINE",
"1242 940 LINE",
"1397 940 LINE",
"1397 1052 LINE",
"1242 1052 LINE",
"1242 1251 LINE",
"1396 1280 LINE",
"1396 1323 LINE",
"907 1323 LINE",
"907 1284 LINE",
"1063 1251 LINE",
"1063 1052 LINE",
"412 1052 LINE",
"412 1251 LINE",
"565 1284 LINE",
"565 1323 LINE",
"77 1323 LINE",
"77 1284 LINE",
"232 1251 LINE",
"232 1052 LINE",
"95 1052 LINE",
"95 940 LINE",
"232 940 LINE",
"232 72 LINE",
"77 39 LINE",
"77 0 LINE"
);
},
{
closed = 1;
nodes = (
"412 940 LINE",
"1063 940 LINE",
"1063 730 LINE",
"412 730 LINE"
);
}
);
width = 1475;
},
{
layerId = "7C8D72FA-6E62-4564-8BB2-D9F9BC4EB15A";
paths = (
{
closed = 1;
nodes = (
"578 0 LINE",
"578 42 LINE",
"426 76 LINE",
"426 660 LINE",
"1064 660 LINE",
"1064 76 LINE",
"910 42 LINE",
"910 0 LINE",
"1412 0 LINE",
"1412 40 LINE",
"1259 76 LINE",
"1259 938 LINE",
"1412 938 LINE",
"1412 1052 LINE",
"1259 1052 LINE",
"1259 1248 LINE",
"1412 1278 LINE",
"1412 1323 LINE",
"910 1323 LINE",
"910 1281 LINE",
"1064 1248 LINE",
"1064 1052 LINE",
"426 1052 LINE",
"426 1248 LINE",
"578 1281 LINE",
"578 1323 LINE",
"77 1323 LINE",
"77 1281 LINE",
"231 1248 LINE",
"231 1052 LINE",
"94 1052 LINE",
"94 938 LINE",
"231 938 LINE",
"231 76 LINE",
"77 42 LINE",
"77 0 LINE"
);
},
{
closed = 1;
nodes = (
"426 938 LINE",
"1064 938 LINE",
"1064 733 LINE",
"426 733 LINE"
);
}
);
width = 1490;
}
);
leftKerningGroup = I;
rightKerningGroup = I;
unicode = 0126;
},
{
glyphname = I;
layers = (
{
anchors = (
{
name = bottom;
position = "{365, 0}";
},
{
name = topcap;
position = "{365, 1427}";
}
);
layerId = "FA6D65B5-4623-4FAC-A199-3F662257AC29";
paths = (
{
closed = 1;
nodes = (
"658 0 LINE",
"658 63 LINE",
"514 100 LINE",
"514 1226 LINE",
"658 1260 LINE",
"658 1323 LINE",
"72 1323 LINE",
"72 1260 LINE",
"219 1226 LINE",
"219 100 LINE",
"72 63 LINE",
"72 0 LINE"
);
}
);
width = 730;
},
{
anchors = (
{
name = bottom;
position = "{323, 0}";
},
{
name = topcap;
position = "{323, 1427}";
}
);
associatedMasterId = "FA6D65B5-4623-4FAC-A199-3F662257AC29";
layerId = "CBD44848-52BD-4DC5-BFA6-577546B7224D";
paths = (
{
closed = 1;
nodes = (
"565 0 LINE",
"565 39 LINE",
"412 72 LINE",
"412 1251 LINE",
"565 1284 LINE",
"565 1323 LINE",
"77 1323 LINE",
"77 1284 LINE",
"232 1251 LINE",
"232 72 LINE",
"77 39 LINE",
"77 0 LINE"
);
}
);
width = 643;
},
{
anchors = (
{
name = bottom;
position = "{329, 0}";
},
{
name = topcap;
position = "{329, 1427}";
}
);
layerId = "7C8D72FA-6E62-4564-8BB2-D9F9BC4EB15A";
paths = (
{
closed = 1;
nodes = (
"578 0 LINE",
"578 42 LINE",
"426 76 LINE",
"426 1248 LINE",
"578 1281 LINE",
"578 1323 LINE",
"76 1323 LINE",
"76 1281 LINE",
"231 1248 LINE",
"231 76 LINE",
"76 42 LINE",
"76 0 LINE"
);
}
);
width = 654;
}
);
leftKerningGroup = I;
rightKerningGroup = I;
unicode = 0049;
},
{
glyphname = J;
layers = (
{
anchors = (
{
name = topcap;
position = "{352, 1427}";
}
);
layerId = "FA6D65B5-4623-4FAC-A199-3F662257AC29";
paths = (
{
closed = 1;
nodes = (
"188 -447 OFFCURVE",
"351 -369 OFFCURVE",
"441 -226 CURVE",
"491 -134 OFFCURVE",
"500 -70 OFFCURVE",
"500 267 CURVE SMOOTH",
"500 1226 LINE",
"645 1260 LINE",
"645 1323 LINE",
"59 1323 LINE",
"59 1260 LINE",
"204 1226 LINE",
"204 -74 LINE SMOOTH",
"204 -260 OFFCURVE",
"149 -349 OFFCURVE",
"81 -349 CURVE SMOOTH",
"39 -349 OFFCURVE",
"11 -316 OFFCURVE",
"-16 -239 CURVE SMOOTH",
"-38 -177 OFFCURVE",
"-70 -133 OFFCURVE",
"-141 -133 CURVE SMOOTH",
"-210 -133 OFFCURVE",
"-265 -177 OFFCURVE",
"-265 -263 CURVE SMOOTH",
"-265 -375 OFFCURVE",
"-160 -447 OFFCURVE",
"25 -447 CURVE SMOOTH"
);
}
);
width = 703;
},
{
anchors = (
{
name = topcap;
position = "{312, 1427}";
}
);
associatedMasterId = "FA6D65B5-4623-4FAC-A199-3F662257AC29";
layerId = "CBD44848-52BD-4DC5-BFA6-577546B7224D";
paths = (
{
closed = 1;
nodes = (
"125 -447 OFFCURVE",
"262 -369 OFFCURVE",
"342 -226 CURVE SMOOTH",
"392 -134 OFFCURVE",
"400 -70 OFFCURVE",
"400 267 CURVE SMOOTH",
"400 1251 LINE",
"554 1284 LINE",
"554 1323 LINE",
"65 1323 LINE",
"65 1284 LINE",
"220 1251 LINE",
"220 -82 LINE SMOOTH",
"220 -269 OFFCURVE",
"158 -357 OFFCURVE",
"79 -357 CURVE SMOOTH",
"34 -357 OFFCURVE",
"-2 -330 OFFCURVE",
"-25 -265 CURVE SMOOTH",
"-45 -213 OFFCURVE",
"-72 -186 OFFCURVE",
"-120 -186 CURVE SMOOTH",
"-183 -186 OFFCURVE",
"-222 -229 OFFCURVE",
"-222 -297 CURVE SMOOTH",
"-222 -391 OFFCURVE",
"-143 -447 OFFCURVE",
"-16 -447 CURVE SMOOTH"
);
}
);
width = 622;
},
{
anchors = (
{
name = topcap;
position = "{317, 1427}";
}
);
layerId = "7C8D72FA-6E62-4564-8BB2-D9F9BC4EB15A";
paths = (
{
closed = 1;
nodes = (
"133 -447 OFFCURVE",
"274 -369 OFFCURVE",
"355 -226 CURVE SMOOTH",
"405 -134 OFFCURVE",
"414 -70 OFFCURVE",
"414 267 CURVE SMOOTH",
"414 1248 LINE",
"566 1281 LINE",
"566 1323 LINE",
"65 1323 LINE",
"65 1281 LINE",
"218 1248 LINE",
"218 -81 LINE SMOOTH",
"218 -267 OFFCURVE",
"157 -356 OFFCURVE",
"79 -356 CURVE SMOOTH",
"35 -356 OFFCURVE",
"0 -328 OFFCURVE",
"-24 -261 CURVE SMOOTH",
"-44 -208 OFFCURVE",
"-72 -179 OFFCURVE",
"-123 -179 CURVE SMOOTH",
"-186 -179 OFFCURVE",
"-227 -222 OFFCURVE",
"-227 -292 CURVE SMOOTH",
"-227 -389 OFFCURVE",
"-145 -447 OFFCURVE",
"-10 -447 CURVE SMOOTH"
);
}
);
width = 633;
}
);
leftKerningGroup = J;
rightKerningGroup = J;
unicode = 004A;
},
{
glyphname = K;
layers = (
{
anchors = (
{
name = bottom;
position = "{752, 0}";
}
);
layerId = "FA6D65B5-4623-4FAC-A199-3F662257AC29";
paths = (
{
closed = 1;
nodes = (
"658 0 LINE",
"658 63 LINE",
"514 100 LINE",
"514 563 LINE",
"552 604 LINE",
"975 0 LINE",
"1434 0 LINE",
"1434 63 LINE",
"1277 97 LINE",
"755 823 LINE",
"1057 1153 LINE SMOOTH",
"1113 1215 OFFCURVE",
"1149 1234 OFFCURVE",
"1312 1260 CURVE",
"1312 1323 LINE",
"818 1323 LINE",
"818 1262 LINE",
"906 1258 OFFCURVE",
"950 1244 OFFCURVE",
"950 1212 CURVE SMOOTH",
"950 1198 OFFCURVE",
"945 1178 OFFCURVE",
"927 1158 CURVE SMOOTH",
"514 715 LINE",
"514 1226 LINE",
"658 1260 LINE",
"658 1323 LINE",
"72 1323 LINE",
"72 1260 LINE",
"219 1226 LINE",
"219 100 LINE",
"72 63 LINE",
"72 0 LINE"
);
}
);
width = 1387;
},
{
anchors = (
{
name = bottom;
position = "{681, 0}";
}
);
associatedMasterId = "FA6D65B5-4623-4FAC-A199-3F662257AC29";
layerId = "CBD44848-52BD-4DC5-BFA6-577546B7224D";
paths = (
{
closed = 1;
nodes = (
"565 0 LINE",
"565 39 LINE",
"412 72 LINE",
"412 524 LINE",
"524 651 LINE",
"1014 0 LINE",
"1387 0 LINE",
"1387 39 LINE",
"1196 72 LINE",
"645 789 LINE",
"984 1178 LINE SMOOTH",
"1040 1241 OFFCURVE",
"1078 1257 OFFCURVE",
"1235 1284 CURVE",
"1235 1323 LINE",
"782 1323 LINE",
"782 1284 LINE",
"884 1277 OFFCURVE",
"927 1262 OFFCURVE",
"927 1232 CURVE SMOOTH",
"927 1219 OFFCURVE",
"918 1201 OFFCURVE",
"898 1181 CURVE SMOOTH",
"412 636 LINE",
"412 1251 LINE",
"565 1284 LINE",
"565 1323 LINE",
"77 1323 LINE",
"77 1284 LINE",
"232 1251 LINE",
"232 72 LINE",
"77 39 LINE",
"77 0 LINE"
);
}
);
width = 1346;
},
{
anchors = (
{
name = bottom;
position = "{690, 0}";
}
);
layerId = "7C8D72FA-6E62-4564-8BB2-D9F9BC4EB15A";
paths = (
{
closed = 1;
nodes = (
"578 0 LINE",
"578 42 LINE",
"426 76 LINE",
"426 530 LINE",
"528 645 LINE",
"1008 0 LINE",
"1393 0 LINE",
"1393 42 LINE",
"1207 76 LINE",
"659 794 LINE",
"994 1174 LINE SMOOTH",
"1050 1238 OFFCURVE",
"1088 1254 OFFCURVE",
"1246 1281 CURVE",
"1246 1323 LINE",
"787 1323 LINE",
"787 1281 LINE",
"887 1275 OFFCURVE",
"930 1259 OFFCURVE",
"930 1230 CURVE SMOOTH",
"930 1216 OFFCURVE",
"922 1198 OFFCURVE",
"902 1178 CURVE SMOOTH",
"426 646 LINE",
"426 1248 LINE",
"578 1281 LINE",
"578 1323 LINE",
"76 1323 LINE",
"76 1281 LINE",
"231 1248 LINE",
"231 76 LINE",
"76 42 LINE",
"76 0 LINE"
);
}
);
width = 1351;
}
);
leftKerningGroup = I;
rightKerningGroup = K;
unicode = 004B;
},
{
glyphname = L;
layers = (
{
anchors = (
{
name = bottom;
position = "{640, 0}";
},
{
name = topcap;
position = "{383, 1427}";
}
);
layerId = "FA6D65B5-4623-4FAC-A199-3F662257AC29";
paths = (
{
closed = 1;
nodes = (
"1115 0 LINE",
"1188 402 LINE",
"1099 402 LINE",
"1057 301 OFFCURVE",
"1016 199 OFFCURVE",
"941 98 CURVE",
"514 98 LINE",
"514 1226 LINE",
"676 1260 LINE",
"676 1323 LINE",
"72 1323 LINE",
"72 1260 LINE",
"219 1228 LINE",
"219 97 LINE",
"72 63 LINE",
"72 0 LINE"
);
}
);
width = 1201;
},
{
anchors = (
{
name = bottom;
position = "{593, 0}";
},
{
name = topcap;
position = "{327, 1427}";
}
);
associatedMasterId = "FA6D65B5-4623-4FAC-A199-3F662257AC29";
layerId = "CBD44848-52BD-4DC5-BFA6-577546B7224D";
paths = (
{
closed = 1;
nodes = (
"1033 0 LINE",
"1097 411 LINE",
"1052 411 LINE",
"1014 297 OFFCURVE",
"977 183 OFFCURVE",
"907 68 CURVE",
"411 68 LINE",
"411 1251 LINE",
"574 1284 LINE",
"574 1323 LINE",
"84 1323 LINE",
"84 1284 LINE",
"230 1251 LINE",
"230 72 LINE",
"84 39 LINE",
"84 0 LINE"
);
}
);
width = 1128;
},
{
anchors = (
{
name = bottom;
position = "{599, 0}";
},
{
name = topcap;
position = "{335, 1427}";
}
);
layerId = "7C8D72FA-6E62-4564-8BB2-D9F9BC4EB15A";
paths = (
{
closed = 1;
nodes = (
"1044 0 LINE",
"1109 410 LINE",
"1058 410 LINE",
"1019 297 OFFCURVE",
"982 185 OFFCURVE",
"912 72 CURVE",
"425 72 LINE",
"425 1248 LINE",
"588 1281 LINE",
"588 1323 LINE",
"82 1323 LINE",
"82 1281 LINE",
"229 1248 LINE",
"229 76 LINE",
"82 42 LINE",
"82 0 LINE"
);
}
);
width = 1138;
}
);
leftKerningGroup = I;
rightKerningGroup = L;
unicode = 004C;
},
{
glyphname = Lslash;
layers = (
{
components = (
{
name = L;
transform = "{1, 0, 0, 1, 2, 0}";
}
);
layerId = "FA6D65B5-4623-4FAC-A199-3F662257AC29";
paths = (
{
closed = 1;
nodes = (
"641 760 LINE",
"641 923 LINE",
"104 638 LINE",
"104 475 LINE"
);
}
);
width = 1203;
},
{
associatedMasterId = "FA6D65B5-4623-4FAC-A199-3F662257AC29";
components = (
{
name = L;
transform = "{1, 0, 0, 1, 2, 0}";
}
);
layerId = "CBD44848-52BD-4DC5-BFA6-577546B7224D";
paths = (
{
closed = 1;
nodes = (
"576 780 LINE",
"576 892 LINE",
"102 638 LINE",
"102 526 LINE"
);
}
);
width = 1129;
},
{
components = (
{
alignment = -1;
name = L;
transform = "{1, 0, 0, 1, 2, 0}";
}
);
layerId = "7C8D72FA-6E62-4564-8BB2-D9F9BC4EB15A";
paths = (
{
closed = 1;
nodes = (
"585 778 LINE",
"585 896 LINE",
"102 638 LINE",
"102 519 LINE"
);
}
);
width = 1139;
}
);
leftKerningGroup = I;
rightKerningGroup = L;
unicode = 0141;
},
{
glyphname = M;
layers = (
{
layerId = "FA6D65B5-4623-4FAC-A199-3F662257AC29";
paths = (
{
closed = 1;
nodes = (
"894 -18 LINE",
"1325 1021 LINE",
"1332 1021 LINE",
"1332 100 LINE",
"1186 63 LINE",
"1186 0 LINE",
"1772 0 LINE",
"1772 63 LINE",
"1628 100 LINE",
"1628 1226 LINE",
"1772 1260 LINE",
"1772 1323 LINE",
"1330 1323 LINE",
"957 437 LINE",
"947 437 LINE",
"590 1323 LINE",
"68 1323 LINE",
"68 1260 LINE",
"220 1228 LINE",
"220 97 LINE",
"67 63 LINE",
"67 0 LINE",
"490 0 LINE",
"490 63 LINE",
"339 97 LINE",
"339 1067 LINE",
"346 1067 LINE",
"812 -18 LINE"
);
}
);
width = 1844;
},
{
associatedMasterId = "FA6D65B5-4623-4FAC-A199-3F662257AC29";
layerId = "CBD44848-52BD-4DC5-BFA6-577546B7224D";
paths = (
{
closed = 1;
nodes = (
"834 -18 LINE",
"1321 1128 LINE",
"1328 1128 LINE",
"1328 72 LINE",
"1174 39 LINE",
"1174 0 LINE",
"1662 0 LINE",
"1662 39 LINE",
"1509 72 LINE",
"1509 1251 LINE",
"1662 1284 LINE",
"1662 1323 LINE",
"1303 1323 LINE",
"875 305 LINE",
"866 305 LINE",
"438 1323 LINE",
"77 1323 LINE",
"77 1284 LINE",
"232 1251 LINE",
"232 72 LINE",
"77 39 LINE",
"77 0 LINE",
"454 0 LINE",
"454 39 LINE",
"301 72 LINE",
"301 1135 LINE",
"308 1135 LINE",
"787 -18 LINE"
);
}
);
width = 1739;
},
{
layerId = "7C8D72FA-6E62-4564-8BB2-D9F9BC4EB15A";
paths = (
{
closed = 1;
nodes = (
"842 -18 LINE",
"1322 1114 LINE",
"1329 1114 LINE",
"1329 76 LINE",
"1175 42 LINE",
"1175 0 LINE",
"1677 0 LINE",
"1677 42 LINE",
"1525 76 LINE",
"1525 1248 LINE",
"1677 1281 LINE",
"1677 1323 LINE",
"1306 1323 LINE",
"886 322 LINE",
"877 322 LINE",
"459 1323 LINE",
"76 1323 LINE",
"76 1281 LINE",
"231 1248 LINE",
"231 76 LINE",
"76 42 LINE",
"76 0 LINE",
"459 0 LINE",
"459 42 LINE",
"306 76 LINE",
"306 1126 LINE",
"313 1126 LINE",
"790 -18 LINE"
);
}
);
width = 1753;
}
);
leftKerningGroup = N;
rightKerningGroup = I;
unicode = 004D;
},
{
glyphname = N;
layers = (
{
anchors = (
{
name = bottom;
position = "{755, 0}";
},
{
name = topcap;
position = "{784, 1427}";
}
);
layerId = "FA6D65B5-4623-4FAC-A199-3F662257AC29";
paths = (
{
closed = 1;
nodes = (
"1303 -18 LINE",
"1303 1228 LINE",
"1456 1260 LINE",
"1456 1323 LINE",
"1033 1323 LINE",
"1033 1260 LINE",
"1185 1228 LINE",
"1185 507 LINE",
"534 1323 LINE",
"68 1323 LINE",
"68 1260 LINE",
"220 1228 LINE",
"220 97 LINE",
"67 63 LINE",
"67 0 LINE",
"490 0 LINE",
"490 63 LINE",
"339 97 LINE",
"339 1049 LINE",
"1185 -18 LINE"
);
}
);
width = 1509;
},
{
anchors = (
{
name = bottom;
position = "{696, 0}";
},
{
name = topcap;
position = "{720, 1427}";
}
);
associatedMasterId = "FA6D65B5-4623-4FAC-A199-3F662257AC29";
layerId = "CBD44848-52BD-4DC5-BFA6-577546B7224D";
paths = (
{
closed = 1;
nodes = (
"1201 -34 LINE",
"1201 1251 LINE",
"1356 1284 LINE",
"1356 1323 LINE",
"979 1323 LINE",
"979 1284 LINE",
"1133 1251 LINE",
"1133 351 LINE",
"425 1323 LINE",
"77 1323 LINE",
"77 1284 LINE",
"232 1251 LINE",
"232 72 LINE",
"77 39 LINE",
"77 0 LINE",
"454 0 LINE",
"454 39 LINE",
"301 72 LINE",
"301 1146 LINE",
"1148 -34 LINE"
);
}
);
width = 1423;
},
{
anchors = (
{
name = bottom;
position = "{704, 0}";
},
{
name = topcap;
position = "{728, 1427}";
}
);
layerId = "7C8D72FA-6E62-4564-8BB2-D9F9BC4EB15A";
paths = (
{
closed = 1;
nodes = (
"1215 -32 LINE",
"1215 1248 LINE",
"1370 1281 LINE",
"1370 1323 LINE",
"987 1323 LINE",
"987 1281 LINE",
"1140 1248 LINE",
"1140 371 LINE",
"439 1323 LINE",
"76 1323 LINE",
"76 1281 LINE",
"231 1248 LINE",
"231 76 LINE",
"76 42 LINE",
"76 0 LINE",
"459 0 LINE",
"459 42 LINE",
"306 76 LINE",
"306 1133 LINE",
"1153 -32 LINE"
);
}
);
width = 1434;
}
);
leftKerningGroup = N;
rightKerningGroup = N;
unicode = 004E;
},
{
glyphname = Eng;
layers = (
{
layerId = "FA6D65B5-4623-4FAC-A199-3F662257AC29";
paths = (
{
closed = 1;
nodes = (
"1232 447 LINE",
"534 1323 LINE",
"251 1323 LINE",
"242 1171 LINE",
"1185 -18 LINE"
);
},
{
closed = 1;
nodes = (
"990 -447 OFFCURVE",
"1153 -369 OFFCURVE",
"1244 -226 CURVE",
"1294 -134 OFFCURVE",
"1303 -70 OFFCURVE",
"1303 267 CURVE",
"1007 267 LINE",
"1007 -74 LINE SMOOTH",
"1007 -260 OFFCURVE",
"952 -349 OFFCURVE",
"884 -349 CURVE SMOOTH",
"842 -349 OFFCURVE",
"813 -316 OFFCURVE",
"787 -239 CURVE SMOOTH",
"765 -177 OFFCURVE",
"732 -133 OFFCURVE",
"662 -133 CURVE SMOOTH",
"593 -133 OFFCURVE",
"538 -177 OFFCURVE",
"538 -263 CURVE SMOOTH",
"538 -375 OFFCURVE",
"643 -447 OFFCURVE",
"828 -447 CURVE SMOOTH"
);
},
{
closed = 1;
nodes = (
"490 0 LINE",
"490 63 LINE",
"339 97 LINE",
"339 1323 LINE",
"68 1323 LINE",
"68 1260 LINE",
"220 1228 LINE",
"220 97 LINE",
"67 63 LINE",
"67 0 LINE"
);
},
{
closed = 1;
nodes = (
"1303 240 LINE",
"1303 1228 LINE",
"1456 1260 LINE",
"1456 1323 LINE",
"1033 1323 LINE",
"1033 1260 LINE",
"1185 1228 LINE",
"1185 240 LINE"
);
}
);
width = 1508;
},
{
associatedMasterId = "FA6D65B5-4623-4FAC-A199-3F662257AC29";
layerId = "CBD44848-52BD-4DC5-BFA6-577546B7224D";
paths = (
{
closed = 1;
nodes = (
"1169 301 LINE",
"425 1323 LINE",
"262 1323 LINE",
"253 1214 LINE",
"1148 -34 LINE"
);
},
{
closed = 1;
nodes = (
"927 -447 OFFCURVE",
"1063 -369 OFFCURVE",
"1143 -226 CURVE SMOOTH",
"1192 -134 OFFCURVE",
"1201 -70 OFFCURVE",
"1201 267 CURVE",
"1021 267 LINE",
"1021 -82 LINE SMOOTH",
"1021 -269 OFFCURVE",
"959 -357 OFFCURVE",
"880 -357 CURVE SMOOTH",
"835 -357 OFFCURVE",
"799 -330 OFFCURVE",
"775 -265 CURVE SMOOTH",
"756 -213 OFFCURVE",
"729 -186 OFFCURVE",
"681 -186 CURVE SMOOTH",
"619 -186 OFFCURVE",
"579 -229 OFFCURVE",
"579 -297 CURVE SMOOTH",
"579 -391 OFFCURVE",
"658 -447 OFFCURVE",
"785 -447 CURVE SMOOTH"
);
},
{
closed = 1;
nodes = (
"454 0 LINE",
"454 39 LINE",
"301 72 LINE",
"301 1323 LINE",
"77 1323 LINE",
"77 1284 LINE",
"232 1251 LINE",
"232 72 LINE",
"77 39 LINE",
"77 0 LINE"
);
},
{
closed = 1;
nodes = (
"1201 206 LINE",
"1201 1251 LINE",
"1356 1284 LINE",
"1356 1323 LINE",
"979 1323 LINE",
"979 1284 LINE",
"1133 1251 LINE",
"1133 206 LINE"
);
}
);
width = 1422;
},
{
layerId = "7C8D72FA-6E62-4564-8BB2-D9F9BC4EB15A";
paths = (
{
closed = 1;
nodes = (
"1177 320 LINE",
"439 1323 LINE",
"260 1323 LINE",
"251 1208 LINE",
"1153 -32 LINE"
);
},
{
closed = 1;
nodes = (
"935 -447 OFFCURVE",
"1075 -369 OFFCURVE",
"1156 -226 CURVE SMOOTH",
"1206 -134 OFFCURVE",
"1215 -70 OFFCURVE",
"1215 267 CURVE",
"1019 267 LINE",
"1019 -81 LINE SMOOTH",
"1019 -267 OFFCURVE",
"958 -356 OFFCURVE",
"880 -356 CURVE SMOOTH",
"836 -356 OFFCURVE",
"801 -328 OFFCURVE",
"777 -261 CURVE SMOOTH",
"757 -208 OFFCURVE",
"729 -179 OFFCURVE",
"678 -179 CURVE SMOOTH",
"616 -179 OFFCURVE",
"574 -222 OFFCURVE",
"574 -292 CURVE SMOOTH",
"574 -389 OFFCURVE",
"656 -447 OFFCURVE",
"791 -447 CURVE SMOOTH"
);
},
{
closed = 1;
nodes = (
"459 0 LINE",
"459 42 LINE",
"306 76 LINE",
"306 1323 LINE",
"76 1323 LINE",
"76 1281 LINE",
"231 1248 LINE",
"231 76 LINE",
"76 42 LINE",
"76 0 LINE"
);
},
{
closed = 1;
nodes = (
"1215 211 LINE",
"1215 1248 LINE",
"1370 1281 LINE",
"1370 1323 LINE",
"987 1323 LINE",
"987 1281 LINE",
"1140 1248 LINE",
"1140 211 LINE"
);
}
);
width = 1433;
}
);
leftKerningGroup = N;
rightKerningGroup = N;
unicode = 014A;
},
{
glyphname = O;
layers = (
{
anchors = (
{
name = bottom;
position = "{747, 0}";
},
{
name = topcap;
position = "{747, 1427}";
}
);
layerId = "FA6D65B5-4623-4FAC-A199-3F662257AC29";
paths = (
{
closed = 1;
nodes = (
"1178 -18 OFFCURVE",
"1416 289 OFFCURVE",
"1416 662 CURVE SMOOTH",
"1416 1035 OFFCURVE",
"1178 1341 OFFCURVE",
"746 1341 CURVE SMOOTH",
"316 1341 OFFCURVE",
"77 1035 OFFCURVE",
"77 662 CURVE SMOOTH",
"77 289 OFFCURVE",
"316 -18 OFFCURVE",
"746 -18 CURVE SMOOTH"
);
},
{
closed = 1;
nodes = (
"469 82 OFFCURVE",
"416 423 OFFCURVE",
"416 662 CURVE SMOOTH",
"416 898 OFFCURVE",
"469 1237 OFFCURVE",
"746 1237 CURVE SMOOTH",
"1027 1237 OFFCURVE",
"1078 898 OFFCURVE",
"1078 662 CURVE SMOOTH",
"1078 423 OFFCURVE",
"1024 82 OFFCURVE",
"746 82 CURVE SMOOTH"
);
}
);
width = 1493;
},
{
anchors = (
{
name = bottom;
position = "{720, 0}";
},
{
name = topcap;
position = "{720, 1427}";
}
);
associatedMasterId = "FA6D65B5-4623-4FAC-A199-3F662257AC29";
layerId = "CBD44848-52BD-4DC5-BFA6-577546B7224D";
paths = (
{
closed = 1;
nodes = (
"1074 -18 OFFCURVE",
"1343 275 OFFCURVE",
"1343 662 CURVE SMOOTH",
"1343 1049 OFFCURVE",
"1074 1341 OFFCURVE",
"719 1341 CURVE SMOOTH",
"362 1341 OFFCURVE",
"95 1049 OFFCURVE",
"95 662 CURVE SMOOTH",
"95 275 OFFCURVE",
"362 -18 OFFCURVE",
"719 -18 CURVE SMOOTH"
);
},
{
closed = 1;
nodes = (
"464 61 OFFCURVE",
"312 287 OFFCURVE",
"312 663 CURVE SMOOTH",
"312 1040 OFFCURVE",
"464 1264 OFFCURVE",
"720 1264 CURVE SMOOTH",
"975 1264 OFFCURVE",
"1126 1042 OFFCURVE",
"1126 667 CURVE SMOOTH",
"1126 287 OFFCURVE",
"973 61 OFFCURVE",
"719 61 CURVE SMOOTH"
);
}
);
width = 1437;
},
{
anchors = (
{
name = bottom;
position = "{723, 0}";
},
{
name = topcap;
position = "{723, 1427}";
}
);
layerId = "7C8D72FA-6E62-4564-8BB2-D9F9BC4EB15A";
paths = (
{
closed = 1;
nodes = (
"1088 -18 OFFCURVE",
"1353 277 OFFCURVE",
"1353 662 CURVE SMOOTH",
"1353 1047 OFFCURVE",
"1088 1341 OFFCURVE",
"722 1341 CURVE SMOOTH",
"356 1341 OFFCURVE",
"92 1047 OFFCURVE",
"92 662 CURVE SMOOTH",
"92 277 OFFCURVE",
"356 -18 OFFCURVE",
"722 -18 CURVE SMOOTH"
);
},
{
closed = 1;
nodes = (
"465 63 OFFCURVE",
"325 305 OFFCURVE",
"325 663 CURVE SMOOTH",
"325 1021 OFFCURVE",
"465 1260 OFFCURVE",
"723 1260 CURVE SMOOTH",
"982 1260 OFFCURVE",
"1120 1023 OFFCURVE",
"1120 666 CURVE SMOOTH",
"1120 305 OFFCURVE",
"980 63 OFFCURVE",
"722 63 CURVE SMOOTH"
);
}
);
width = 1444;
}
);
leftKerningGroup = O;
rightKerningGroup = O;
unicode = 004F;
},
{
glyphname = Oslash;
layers = (
{
layerId = "FA6D65B5-4623-4FAC-A199-3F662257AC29";
paths = (
{
closed = 1;
nodes = (
"1176 -18 OFFCURVE",
"1414 289 OFFCURVE",
"1414 662 CURVE SMOOTH",
"1414 853 OFFCURVE",
"1351 1024 OFFCURVE",
"1232 1148 CURVE",
"1384 1323 LINE",
"1250 1323 LINE",
"1156 1215 LINE",
"1050 1293 OFFCURVE",
"911 1341 OFFCURVE",
"744 1341 CURVE SMOOTH",
"314 1341 OFFCURVE",
"75 1035 OFFCURVE",
"75 662 CURVE SMOOTH",
"75 469 OFFCURVE",
"140 294 OFFCURVE",
"260 170 CURVE",
"113 0 LINE",
"246 0 LINE",
"335 104 LINE",
"441 27 OFFCURVE",
"579 -18 OFFCURVE",
"744 -18 CURVE SMOOTH"
);
},
{
closed = 1;
nodes = (
"610 82 OFFCURVE",
"527 161 OFFCURVE",
"479 271 CURVE",
"1049 934 LINE",
"1069 844 OFFCURVE",
"1076 746 OFFCURVE",
"1076 662 CURVE SMOOTH",
"1076 423 OFFCURVE",
"1022 82 OFFCURVE",
"744 82 CURVE SMOOTH"
);
},
{
closed = 1;
nodes = (
"421 477 OFFCURVE",
"414 576 OFFCURVE",
"414 662 CURVE SMOOTH",
"414 898 OFFCURVE",
"468 1237 OFFCURVE",
"744 1237 CURVE SMOOTH",
"882 1237 OFFCURVE",
"964 1156 OFFCURVE",
"1013 1047 CURVE",
"443 383 LINE"
);
}
);
width = 1490;
},
{
associatedMasterId = "FA6D65B5-4623-4FAC-A199-3F662257AC29";
layerId = "CBD44848-52BD-4DC5-BFA6-577546B7224D";
paths = (
{
closed = 1;
nodes = (
"1076 -18 OFFCURVE",
"1344 275 OFFCURVE",
"1344 662 CURVE SMOOTH",
"1344 851 OFFCURVE",
"1278 1018 OFFCURVE",
"1171 1138 CURVE",
"1330 1323 LINE",
"1234 1323 LINE",
"1119 1189 LINE",
"1013 1284 OFFCURVE",
"875 1341 OFFCURVE",
"720 1341 CURVE SMOOTH",
"364 1341 OFFCURVE",
"97 1049 OFFCURVE",
"97 662 CURVE SMOOTH",
"97 477 OFFCURVE",
"158 312 OFFCURVE",
"262 190 CURVE",
"98 0 LINE",
"192 0 LINE",
"313 140 LINE",
"419 41 OFFCURVE",
"561 -18 OFFCURVE",
"720 -18 CURVE SMOOTH"
);
},
{
closed = 1;
nodes = (
"583 61 OFFCURVE",
"475 127 OFFCURVE",
"404 247 CURVE",
"1067 1018 LINE",
"1106 923 OFFCURVE",
"1128 806 OFFCURVE",
"1128 667 CURVE SMOOTH",
"1128 287 OFFCURVE",
"975 61 OFFCURVE",
"720 61 CURVE SMOOTH"
);
},
{
closed = 1;
nodes = (
"332 411 OFFCURVE",
"313 527 OFFCURVE",
"313 663 CURVE SMOOTH",
"313 1040 OFFCURVE",
"466 1264 OFFCURVE",
"722 1264 CURVE SMOOTH",
"855 1264 OFFCURVE",
"961 1201 OFFCURVE",
"1031 1088 CURVE",
"369 318 LINE"
);
}
);
width = 1438;
},
{
layerId = "7C8D72FA-6E62-4564-8BB2-D9F9BC4EB15A";
paths = (
{
closed = 1;
nodes = (
"1089 -18 OFFCURVE",
"1353 277 OFFCURVE",
"1353 662 CURVE SMOOTH",
"1353 851 OFFCURVE",
"1288 1018 OFFCURVE",
"1179 1139 CURVE",
"1337 1323 LINE",
"1236 1323 LINE",
"1124 1193 LINE",
"1018 1285 OFFCURVE",
"880 1341 OFFCURVE",
"723 1341 CURVE SMOOTH",
"358 1341 OFFCURVE",
"94 1047 OFFCURVE",
"94 662 CURVE SMOOTH",
"94 476 OFFCURVE",
"156 309 OFFCURVE",
"261 188 CURVE",
"100 0 LINE",
"200 0 LINE",
"315 135 LINE",
"422 39 OFFCURVE",
"563 -18 OFFCURVE",
"723 -18 CURVE SMOOTH"
);
},
{
closed = 1;
nodes = (
"587 63 OFFCURVE",
"482 132 OFFCURVE",
"414 250 CURVE",
"1065 1006 LINE",
"1101 912 OFFCURVE",
"1121 798 OFFCURVE",
"1121 666 CURVE SMOOTH",
"1121 305 OFFCURVE",
"981 63 OFFCURVE",
"723 63 CURVE SMOOTH"
);
},
{
closed = 1;
nodes = (
"344 420 OFFCURVE",
"326 534 OFFCURVE",
"326 663 CURVE SMOOTH",
"326 1021 OFFCURVE",
"466 1260 OFFCURVE",
"725 1260 CURVE SMOOTH",
"859 1260 OFFCURVE",
"961 1195 OFFCURVE",
"1029 1082 CURVE",
"379 327 LINE"
);
}
);
width = 1445;
}
);
leftKerningGroup = O;
rightKerningGroup = O;
unicode = 00D8;
},
{
glyphname = Oslashacute;
layers = (
{
components = (
{
name = acute.cap;
transform = "{1, 0, 0, 1, 543, 0}";
}
);
layerId = "FA6D65B5-4623-4FAC-A199-3F662257AC29";
paths = (
{
closed = 1;
nodes = (
"1176 -18 OFFCURVE",
"1414 289 OFFCURVE",
"1414 662 CURVE SMOOTH",
"1414 853 OFFCURVE",
"1351 1024 OFFCURVE",
"1232 1148 CURVE",
"1384 1323 LINE",
"1250 1323 LINE",
"1156 1215 LINE",
"1050 1293 OFFCURVE",
"911 1341 OFFCURVE",
"744 1341 CURVE SMOOTH",
"314 1341 OFFCURVE",
"75 1035 OFFCURVE",
"75 662 CURVE SMOOTH",
"75 469 OFFCURVE",
"140 294 OFFCURVE",
"260 170 CURVE",
"113 0 LINE",
"246 0 LINE",
"335 104 LINE",
"441 27 OFFCURVE",
"579 -18 OFFCURVE",
"744 -18 CURVE SMOOTH"
);
},
{
closed = 1;
nodes = (
"610 82 OFFCURVE",
"527 161 OFFCURVE",
"479 271 CURVE",
"1049 934 LINE",
"1069 844 OFFCURVE",
"1076 746 OFFCURVE",
"1076 662 CURVE SMOOTH",
"1076 423 OFFCURVE",
"1022 82 OFFCURVE",
"744 82 CURVE SMOOTH"
);
},
{
closed = 1;
nodes = (
"421 477 OFFCURVE",
"414 576 OFFCURVE",
"414 662 CURVE SMOOTH",
"414 898 OFFCURVE",
"468 1237 OFFCURVE",
"744 1237 CURVE SMOOTH",
"882 1237 OFFCURVE",
"964 1156 OFFCURVE",
"1013 1047 CURVE",
"443 383 LINE"
);
}
);
width = 1490;
},
{
associatedMasterId = "FA6D65B5-4623-4FAC-A199-3F662257AC29";
components = (
{
name = acute.cap;
transform = "{1, 0, 0, 1, 527, 0}";
}
);
layerId = "CBD44848-52BD-4DC5-BFA6-577546B7224D";
paths = (
{
closed = 1;
nodes = (
"1076 -18 OFFCURVE",
"1344 275 OFFCURVE",
"1344 662 CURVE SMOOTH",
"1344 851 OFFCURVE",
"1278 1018 OFFCURVE",
"1171 1138 CURVE",
"1330 1323 LINE",
"1234 1323 LINE",
"1119 1189 LINE",
"1013 1284 OFFCURVE",
"875 1341 OFFCURVE",
"720 1341 CURVE SMOOTH",
"364 1341 OFFCURVE",
"97 1049 OFFCURVE",
"97 662 CURVE SMOOTH",
"97 477 OFFCURVE",
"158 312 OFFCURVE",
"262 190 CURVE",
"98 0 LINE",
"192 0 LINE",
"313 140 LINE",
"419 41 OFFCURVE",
"561 -18 OFFCURVE",
"720 -18 CURVE SMOOTH"
);
},
{
closed = 1;
nodes = (
"583 61 OFFCURVE",
"475 127 OFFCURVE",
"404 247 CURVE",
"1067 1018 LINE",
"1106 923 OFFCURVE",
"1128 806 OFFCURVE",
"1128 667 CURVE SMOOTH",
"1128 287 OFFCURVE",
"975 61 OFFCURVE",
"720 61 CURVE SMOOTH"
);
},
{
closed = 1;
nodes = (
"332 411 OFFCURVE",
"313 527 OFFCURVE",
"313 663 CURVE SMOOTH",
"313 1040 OFFCURVE",
"466 1264 OFFCURVE",
"722 1264 CURVE SMOOTH",
"855 1264 OFFCURVE",
"961 1201 OFFCURVE",
"1031 1088 CURVE",
"369 318 LINE"
);
}
);
width = 1438;
},
{
components = (
{
alignment = -1;
name = acute.cap;
transform = "{1, 0, 0, 1, 529, 0}";
}
);
layerId = "7C8D72FA-6E62-4564-8BB2-D9F9BC4EB15A";
paths = (
{
closed = 1;
nodes = (
"1089 -18 OFFCURVE",
"1353 277 OFFCURVE",
"1353 662 CURVE SMOOTH",
"1353 851 OFFCURVE",
"1288 1018 OFFCURVE",
"1179 1139 CURVE",
"1337 1323 LINE",
"1236 1323 LINE",
"1124 1193 LINE",
"1018 1285 OFFCURVE",
"880 1341 OFFCURVE",
"723 1341 CURVE SMOOTH",
"358 1341 OFFCURVE",
"94 1047 OFFCURVE",
"94 662 CURVE SMOOTH",
"94 476 OFFCURVE",
"156 309 OFFCURVE",
"261 188 CURVE",
"100 0 LINE",
"200 0 LINE",
"315 135 LINE",
"422 39 OFFCURVE",
"563 -18 OFFCURVE",
"723 -18 CURVE SMOOTH"
);
},
{
closed = 1;
nodes = (
"587 63 OFFCURVE",
"482 132 OFFCURVE",
"414 250 CURVE",
"1065 1006 LINE",
"1101 912 OFFCURVE",
"1121 798 OFFCURVE",
"1121 666 CURVE SMOOTH",
"1121 305 OFFCURVE",
"981 63 OFFCURVE",
"723 63 CURVE SMOOTH"
);
},
{
closed = 1;
nodes = (
"344 420 OFFCURVE",
"326 534 OFFCURVE",
"326 663 CURVE SMOOTH",
"326 1021 OFFCURVE",
"466 1260 OFFCURVE",
"725 1260 CURVE SMOOTH",
"859 1260 OFFCURVE",
"961 1195 OFFCURVE",
"1029 1082 CURVE",
"379 327 LINE"
);
}
);
width = 1445;
}
);
leftKerningGroup = O;
rightKerningGroup = O;
unicode = 01FE;
},
{
glyphname = OE;
layers = (
{
components = (
{
name = E;
transform = "{1, 0, 0, 1, 758, 0}";
}
);
layerId = "FA6D65B5-4623-4FAC-A199-3F662257AC29";
paths = (
{
closed = 1;
nodes = (
"904 -18 OFFCURVE",
"1035 24 OFFCURVE",
"1140 95 CURVE",
"995 203 LINE",
"945 133 OFFCURVE",
"866 82 OFFCURVE",
"746 82 CURVE SMOOTH",
"469 82 OFFCURVE",
"416 423 OFFCURVE",
"416 662 CURVE SMOOTH",
"416 898 OFFCURVE",
"469 1237 OFFCURVE",
"746 1237 CURVE SMOOTH",
"878 1237 OFFCURVE",
"959 1178 OFFCURVE",
"1007 1095 CURVE",
"1151 1222 LINE",
"1045 1298 OFFCURVE",
"909 1341 OFFCURVE",
"746 1341 CURVE SMOOTH",
"316 1341 OFFCURVE",
"77 1035 OFFCURVE",
"77 662 CURVE SMOOTH",
"77 289 OFFCURVE",
"316 -18 OFFCURVE",
"746 -18 CURVE SMOOTH"
);
}
);
width = 2015;
},
{
associatedMasterId = "FA6D65B5-4623-4FAC-A199-3F662257AC29";
components = (
{
name = E;
transform = "{1, 0, 0, 1, 780, 0}";
}
);
layerId = "CBD44848-52BD-4DC5-BFA6-577546B7224D";
paths = (
{
closed = 1;
nodes = (
"855 -18 OFFCURVE",
"993 11 OFFCURVE",
"1088 55 CURVE",
"1021 176 LINE",
"954 104 OFFCURVE",
"844 61 OFFCURVE",
"727 61 CURVE SMOOTH",
"464 61 OFFCURVE",
"312 280 OFFCURVE",
"312 663 CURVE SMOOTH",
"312 1045 OFFCURVE",
"462 1264 OFFCURVE",
"729 1264 CURVE SMOOTH",
"868 1264 OFFCURVE",
"986 1203 OFFCURVE",
"1052 1100 CURVE",
"1100 1258 LINE",
"1000 1308 OFFCURVE",
"859 1341 OFFCURVE",
"734 1341 CURVE SMOOTH",
"362 1341 OFFCURVE",
"95 1057 OFFCURVE",
"95 662 CURVE SMOOTH",
"95 267 OFFCURVE",
"362 -18 OFFCURVE",
"734 -18 CURVE SMOOTH"
);
}
);
width = 1970;
},
{
components = (
{
alignment = -1;
name = E;
transform = "{1, 0, 0, 1, 777, 0}";
}
);
layerId = "7C8D72FA-6E62-4564-8BB2-D9F9BC4EB15A";
paths = (
{
closed = 1;
nodes = (
"862 -18 OFFCURVE",
"999 13 OFFCURVE",
"1095 60 CURVE",
"1017 179 LINE",
"953 107 OFFCURVE",
"847 63 OFFCURVE",
"729 63 CURVE SMOOTH",
"465 63 OFFCURVE",
"325 299 OFFCURVE",
"325 663 CURVE SMOOTH",
"325 1025 OFFCURVE",
"463 1260 OFFCURVE",
"731 1260 CURVE SMOOTH",
"869 1260 OFFCURVE",
"983 1200 OFFCURVE",
"1046 1099 CURVE",
"1107 1253 LINE",
"1006 1306 OFFCURVE",
"866 1341 OFFCURVE",
"736 1341 CURVE SMOOTH",
"356 1341 OFFCURVE",
"92 1054 OFFCURVE",
"92 662 CURVE SMOOTH",
"92 270 OFFCURVE",
"356 -18 OFFCURVE",
"736 -18 CURVE SMOOTH"
);
}
);
width = 1976;
}
);
leftKerningGroup = O;
rightKerningGroup = E;
unicode = 0152;
},
{
glyphname = P;
layers = (
{
layerId = "FA6D65B5-4623-4FAC-A199-3F662257AC29";
paths = (
{
closed = 1;
nodes = (
"729 0 LINE",
"729 63 LINE",
"514 102 LINE",
"514 550 LINE",
"617 550 LINE SMOOTH",
"956 550 OFFCURVE",
"1149 689 OFFCURVE",
"1149 932 CURVE SMOOTH",
"1149 1172 OFFCURVE",
"954 1323 OFFCURVE",
"645 1323 CURVE SMOOTH",
"72 1323 LINE",
"72 1260 LINE",
"219 1224 LINE",
"219 102 LINE",
"72 63 LINE",
"72 0 LINE"
);
},
{
closed = 1;
nodes = (
"514 1230 LINE",
"557 1230 LINE SMOOTH",
"662 1230 OFFCURVE",
"727 1212 OFFCURVE",
"770 1169 CURVE SMOOTH",
"813 1126 OFFCURVE",
"835 1052 OFFCURVE",
"835 947 CURVE SMOOTH",
"835 835 OFFCURVE",
"812 763 OFFCURVE",
"758 713 CURVE SMOOTH",
"706 665 OFFCURVE",
"633 643 OFFCURVE",
"526 643 CURVE SMOOTH",
"514 643 LINE"
);
}
);
width = 1192;
},
{
associatedMasterId = "FA6D65B5-4623-4FAC-A199-3F662257AC29";
layerId = "CBD44848-52BD-4DC5-BFA6-577546B7224D";
paths = (
{
closed = 1;
nodes = (
"606 0 LINE",
"606 39 LINE",
"411 72 LINE",
"411 567 LINE",
"593 567 LINE SMOOTH",
"892 567 OFFCURVE",
"1078 694 OFFCURVE",
"1078 930 CURVE SMOOTH",
"1078 1185 OFFCURVE",
"889 1323 OFFCURVE",
"619 1323 CURVE SMOOTH",
"84 1323 LINE",
"84 1284 LINE",
"230 1251 LINE",
"230 72 LINE",
"84 39 LINE",
"84 0 LINE"
);
},
{
closed = 1;
nodes = (
"411 1255 LINE",
"569 1255 LINE SMOOTH",
"640 1255 OFFCURVE",
"684 1250 OFFCURVE",
"722 1234 CURVE SMOOTH",
"821 1194 OFFCURVE",
"880 1095 OFFCURVE",
"880 947 CURVE SMOOTH",
"880 866 OFFCURVE",
"863 787 OFFCURVE",
"812 727 CURVE SMOOTH",
"762 669 OFFCURVE",
"684 634 OFFCURVE",
"540 634 CURVE SMOOTH",
"411 634 LINE"
);
}
);
width = 1140;
},
{
layerId = "7C8D72FA-6E62-4564-8BB2-D9F9BC4EB15A";
paths = (
{
closed = 1;
nodes = (
"623 0 LINE",
"623 42 LINE",
"425 76 LINE",
"425 565 LINE",
"596 565 LINE SMOOTH",
"900 565 OFFCURVE",
"1088 694 OFFCURVE",
"1088 930 CURVE SMOOTH",
"1088 1183 OFFCURVE",
"897 1323 OFFCURVE",
"623 1323 CURVE SMOOTH",
"82 1323 LINE",
"82 1281 LINE",
"229 1247 LINE",
"229 76 LINE",
"82 42 LINE",
"82 0 LINE"
);
},
{
closed = 1;
nodes = (
"425 1252 LINE",
"568 1252 LINE SMOOTH",
"643 1252 OFFCURVE",
"689 1245 OFFCURVE",
"728 1226 CURVE SMOOTH",
"820 1185 OFFCURVE",
"874 1089 OFFCURVE",
"874 947 CURVE SMOOTH",
"874 862 OFFCURVE",
"856 784 OFFCURVE",
"804 725 CURVE SMOOTH",
"754 668 OFFCURVE",
"677 635 OFFCURVE",
"538 635 CURVE SMOOTH",
"425 635 LINE"
);
}
);
width = 1147;
}
);
leftKerningGroup = I;
unicode = 0050;
},
{
glyphname = Thorn;
layers = (
{
layerId = "FA6D65B5-4623-4FAC-A199-3F662257AC29";
paths = (
{
closed = 1;
nodes = (
"729 0 LINE",
"729 63 LINE",
"514 102 LINE",
"514 280 LINE",
"617 280 LINE SMOOTH",
"956 280 OFFCURVE",
"1149 419 OFFCURVE",
"1149 662 CURVE SMOOTH",
"1149 902 OFFCURVE",
"954 1054 OFFCURVE",
"645 1054 CURVE SMOOTH",
"514 1054 LINE",
"514 1222 LINE",
"729 1260 LINE",
"729 1323 LINE",
"72 1323 LINE",
"72 1260 LINE",
"219 1222 LINE",
"219 102 LINE",
"72 63 LINE",
"72 0 LINE"
);
},
{
closed = 1;
nodes = (
"514 961 LINE",
"557 961 LINE SMOOTH",
"662 961 OFFCURVE",
"727 941 OFFCURVE",
"770 898 CURVE SMOOTH",
"813 855 OFFCURVE",
"835 782 OFFCURVE",
"835 677 CURVE SMOOTH",
"835 565 OFFCURVE",
"812 493 OFFCURVE",
"758 443 CURVE SMOOTH",
"706 396 OFFCURVE",
"633 373 OFFCURVE",
"526 373 CURVE SMOOTH",
"514 373 LINE"
);
}
);
width = 1196;
},
{
associatedMasterId = "FA6D65B5-4623-4FAC-A199-3F662257AC29";
layerId = "CBD44848-52BD-4DC5-BFA6-577546B7224D";
paths = (
{
closed = 1;
nodes = (
"606 0 LINE",
"606 39 LINE",
"411 72 LINE",
"411 287 LINE",
"593 287 LINE SMOOTH",
"892 287 OFFCURVE",
"1078 414 OFFCURVE",
"1078 649 CURVE SMOOTH",
"1078 904 OFFCURVE",
"889 1043 OFFCURVE",
"619 1043 CURVE SMOOTH",
"411 1043 LINE",
"411 1251 LINE",
"606 1284 LINE",
"606 1323 LINE",
"84 1323 LINE",
"84 1284 LINE",
"230 1251 LINE",
"230 72 LINE",
"84 39 LINE",
"84 0 LINE"
);
},
{
closed = 1;
nodes = (
"411 975 LINE",
"569 975 LINE SMOOTH",
"640 975 OFFCURVE",
"684 970 OFFCURVE",
"722 954 CURVE SMOOTH",
"821 914 OFFCURVE",
"880 814 OFFCURVE",
"880 667 CURVE SMOOTH",
"880 586 OFFCURVE",
"863 507 OFFCURVE",
"812 447 CURVE SMOOTH",
"762 389 OFFCURVE",
"684 354 OFFCURVE",
"540 354 CURVE SMOOTH",
"411 354 LINE"
);
}
);
width = 1143;
},
{
layerId = "7C8D72FA-6E62-4564-8BB2-D9F9BC4EB15A";
paths = (
{
closed = 1;
nodes = (
"623 0 LINE",
"623 42 LINE",
"425 76 LINE",
"425 286 LINE",
"596 286 LINE SMOOTH",
"900 286 OFFCURVE",
"1088 415 OFFCURVE",
"1088 651 CURVE SMOOTH",
"1088 904 OFFCURVE",
"897 1044 OFFCURVE",
"623 1044 CURVE SMOOTH",
"425 1044 LINE",
"425 1247 LINE",
"623 1281 LINE",
"623 1323 LINE",
"82 1323 LINE",
"82 1281 LINE",
"229 1247 LINE",
"229 76 LINE",
"82 42 LINE",
"82 0 LINE"
);
},
{
closed = 1;
nodes = (
"425 973 LINE",
"568 973 LINE SMOOTH",
"643 973 OFFCURVE",
"689 966 OFFCURVE",
"728 947 CURVE SMOOTH",
"820 906 OFFCURVE",
"874 810 OFFCURVE",
"874 668 CURVE SMOOTH",
"874 583 OFFCURVE",
"856 505 OFFCURVE",
"804 447 CURVE SMOOTH",
"754 390 OFFCURVE",
"677 357 OFFCURVE",
"538 357 CURVE SMOOTH",
"425 357 LINE"
);
}
);
width = 1150;
}
);
leftKerningGroup = I;
unicode = 00DE;
},
{
glyphname = Q;
layers = (
{
layerId = "FA6D65B5-4623-4FAC-A199-3F662257AC29";
paths = (
{
closed = 1;
nodes = (
"512 -335 OFFCURVE",
"565 -283 OFFCURVE",
"565 -217 CURVE SMOOTH",
"565 -165 OFFCURVE",
"533 -149 OFFCURVE",
"533 -110 CURVE SMOOTH",
"533 -63 OFFCURVE",
"576 -38 OFFCURVE",
"634 -38 CURVE SMOOTH",
"853 -38 OFFCURVE",
"896 -333 OFFCURVE",
"1121 -333 CURVE SMOOTH",
"1246 -333 OFFCURVE",
"1377 -240 OFFCURVE",
"1452 -59 CURVE",
"1400 -24 LINE",
"1346 -79 OFFCURVE",
"1291 -98 OFFCURVE",
"1221 -98 CURVE SMOOTH",
"1093 -98 OFFCURVE",
"993 -41 OFFCURVE",
"889 -9 CURVE",
"889 -2 LINE",
"1226 61 OFFCURVE",
"1416 333 OFFCURVE",
"1416 662 CURVE SMOOTH",
"1416 1035 OFFCURVE",
"1178 1341 OFFCURVE",
"746 1341 CURVE SMOOTH",
"316 1341 OFFCURVE",
"77 1035 OFFCURVE",
"77 662 CURVE SMOOTH",
"77 364 OFFCURVE",
"237 110 OFFCURVE",
"516 19 CURVE",
"516 12 LINE",
"396 -36 OFFCURVE",
"321 -110 OFFCURVE",
"321 -203 CURVE SMOOTH",
"321 -278 OFFCURVE",
"369 -335 OFFCURVE",
"441 -335 CURVE SMOOTH"
);
},
{
closed = 1;
nodes = (
"469 65 OFFCURVE",
"416 416 OFFCURVE",
"416 658 CURVE SMOOTH",
"416 897 OFFCURVE",
"468 1237 OFFCURVE",
"748 1237 CURVE SMOOTH",
"1027 1237 OFFCURVE",
"1078 897 OFFCURVE",
"1078 662 CURVE SMOOTH",
"1078 416 OFFCURVE",
"1024 65 OFFCURVE",
"746 65 CURVE SMOOTH"
);
}
);
width = 1493;
},
{
associatedMasterId = "FA6D65B5-4623-4FAC-A199-3F662257AC29";
layerId = "CBD44848-52BD-4DC5-BFA6-577546B7224D";
paths = (
{
closed = 1;
nodes = (
"490 -275 OFFCURVE",
"527 -239 OFFCURVE",
"527 -189 CURVE SMOOTH",
"527 -146 OFFCURVE",
"498 -138 OFFCURVE",
"498 -98 CURVE SMOOTH",
"498 -55 OFFCURVE",
"531 -21 OFFCURVE",
"605 -21 CURVE SMOOTH",
"808 -21 OFFCURVE",
"868 -282 OFFCURVE",
"1083 -282 CURVE SMOOTH",
"1201 -282 OFFCURVE",
"1318 -203 OFFCURVE",
"1389 -41 CURVE",
"1343 -24 LINE",
"1296 -86 OFFCURVE",
"1251 -115 OFFCURVE",
"1174 -115 CURVE SMOOTH",
"1031 -115 OFFCURVE",
"923 -22 OFFCURVE",
"806 5 CURVE",
"806 12 LINE",
"1126 38 OFFCURVE",
"1343 319 OFFCURVE",
"1343 662 CURVE SMOOTH",
"1343 1049 OFFCURVE",
"1074 1341 OFFCURVE",
"719 1341 CURVE SMOOTH",
"362 1341 OFFCURVE",
"95 1049 OFFCURVE",
"95 662 CURVE SMOOTH",
"95 349 OFFCURVE",
"275 88 OFFCURVE",
"543 29 CURVE",
"543 22 LINE",
"426 -22 OFFCURVE",
"354 -98 OFFCURVE",
"354 -181 CURVE SMOOTH",
"354 -237 OFFCURVE",
"389 -275 OFFCURVE",
"440 -275 CURVE SMOOTH"
);
},
{
closed = 1;
nodes = (
"464 61 OFFCURVE",
"312 287 OFFCURVE",
"312 663 CURVE SMOOTH",
"312 1040 OFFCURVE",
"464 1264 OFFCURVE",
"720 1264 CURVE SMOOTH",
"975 1264 OFFCURVE",
"1126 1042 OFFCURVE",
"1126 665 CURVE SMOOTH",
"1126 287 OFFCURVE",
"973 61 OFFCURVE",
"719 61 CURVE SMOOTH"
);
}
);
width = 1437;
},
{
layerId = "7C8D72FA-6E62-4564-8BB2-D9F9BC4EB15A";
paths = (
{
closed = 1;
nodes = (
"493 -283 OFFCURVE",
"532 -245 OFFCURVE",
"532 -193 CURVE SMOOTH",
"532 -149 OFFCURVE",
"503 -139 OFFCURVE",
"503 -99 CURVE SMOOTH",
"503 -56 OFFCURVE",
"537 -23 OFFCURVE",
"609 -23 CURVE SMOOTH",
"814 -23 OFFCURVE",
"872 -289 OFFCURVE",
"1088 -289 CURVE SMOOTH",
"1207 -289 OFFCURVE",
"1326 -208 OFFCURVE",
"1397 -43 CURVE",
"1350 -24 LINE",
"1303 -85 OFFCURVE",
"1256 -113 OFFCURVE",
"1180 -113 CURVE SMOOTH",
"1039 -113 OFFCURVE",
"932 -25 OFFCURVE",
"817 3 CURVE",
"817 10 LINE",
"1139 41 OFFCURVE",
"1353 321 OFFCURVE",
"1353 662 CURVE SMOOTH",
"1353 1047 OFFCURVE",
"1088 1341 OFFCURVE",
"722 1341 CURVE SMOOTH",
"356 1341 OFFCURVE",
"92 1047 OFFCURVE",
"92 662 CURVE SMOOTH",
"92 351 OFFCURVE",
"270 91 OFFCURVE",
"539 28 CURVE",
"539 21 LINE",
"422 -24 OFFCURVE",
"350 -99 OFFCURVE",
"350 -184 CURVE SMOOTH",
"350 -243 OFFCURVE",
"386 -283 OFFCURVE",
"441 -283 CURVE SMOOTH"
);
},
{
closed = 1;
nodes = (
"465 61 OFFCURVE",
"325 304 OFFCURVE",
"325 662 CURVE SMOOTH",
"325 1021 OFFCURVE",
"464 1260 OFFCURVE",
"724 1260 CURVE SMOOTH",
"982 1260 OFFCURVE",
"1120 1023 OFFCURVE",
"1120 665 CURVE SMOOTH",
"1120 304 OFFCURVE",
"980 61 OFFCURVE",
"722 61 CURVE SMOOTH"
);
}
);
width = 1444;
}
);
leftKerningGroup = O;
rightKerningGroup = O;
unicode = 0051;
},
{
glyphname = R;
layers = (
{
anchors = (
{
name = bottom;
position = "{749, 0}";
},
{
name = topcap;
position = "{623, 1427}";
}
);
layerId = "FA6D65B5-4623-4FAC-A199-3F662257AC29";
paths = (
{
closed = 1;
nodes = (
"710 0 LINE",
"710 63 LINE",
"514 102 LINE",
"514 576 LINE",
"584 576 LINE",
"930 0 LINE",
"1399 0 LINE",
"1399 63 LINE",
"1242 97 LINE",
"911 612 LINE",
"1063 667 OFFCURVE",
"1151 780 OFFCURVE",
"1151 947 CURVE SMOOTH",
"1151 1191 OFFCURVE",
"963 1323 OFFCURVE",
"692 1323 CURVE SMOOTH",
"72 1323 LINE",
"72 1260 LINE",
"219 1224 LINE",
"219 102 LINE",
"72 63 LINE",
"72 0 LINE"
);
},
{
closed = 1;
nodes = (
"514 1230 LINE",
"550 1230 LINE SMOOTH",
"620 1230 OFFCURVE",
"662 1224 OFFCURVE",
"701 1208 CURVE SMOOTH",
"789 1172 OFFCURVE",
"851 1088 OFFCURVE",
"851 964 CURVE SMOOTH",
"851 891 OFFCURVE",
"832 818 OFFCURVE",
"782 762 CURVE SMOOTH",
"734 705 OFFCURVE",
"663 669 OFFCURVE",
"538 669 CURVE SMOOTH",
"514 669 LINE"
);
}
);
width = 1337;
},
{
anchors = (
{
name = bottom;
position = "{681, 0}";
},
{
name = topcap;
position = "{633, 1427}";
}
);
associatedMasterId = "FA6D65B5-4623-4FAC-A199-3F662257AC29";
layerId = "CBD44848-52BD-4DC5-BFA6-577546B7224D";
paths = (
{
closed = 1;
nodes = (
"606 0 LINE",
"606 39 LINE",
"411 72 LINE",
"411 602 LINE",
"576 602 LINE",
"961 0 LINE",
"1334 0 LINE",
"1334 39 LINE",
"1138 72 LINE",
"771 622 LINE",
"954 665 OFFCURVE",
"1061 775 OFFCURVE",
"1061 947 CURVE SMOOTH",
"1061 1191 OFFCURVE",
"871 1323 OFFCURVE",
"602 1323 CURVE SMOOTH",
"84 1323 LINE",
"84 1284 LINE",
"230 1251 LINE",
"230 72 LINE",
"84 39 LINE",
"84 0 LINE"
);
},
{
closed = 1;
nodes = (
"411 1255 LINE",
"552 1255 LINE SMOOTH",
"622 1255 OFFCURVE",
"665 1250 OFFCURVE",
"705 1234 CURVE SMOOTH",
"805 1194 OFFCURVE",
"863 1104 OFFCURVE",
"863 964 CURVE SMOOTH",
"863 891 OFFCURVE",
"844 818 OFFCURVE",
"794 762 CURVE SMOOTH",
"742 705 OFFCURVE",
"667 669 OFFCURVE",
"522 669 CURVE SMOOTH",
"411 669 LINE"
);
}
);
width = 1260;
},
{
anchors = (
{
name = bottom;
position = "{690, 0}";
},
{
name = topcap;
position = "{632, 1427}";
}
);
layerId = "7C8D72FA-6E62-4564-8BB2-D9F9BC4EB15A";
paths = (
{
closed = 1;
nodes = (
"620 0 LINE",
"620 42 LINE",
"425 76 LINE",
"425 598 LINE",
"577 598 LINE",
"957 0 LINE",
"1343 0 LINE",
"1343 42 LINE",
"1152 76 LINE",
"790 621 LINE",
"969 665 OFFCURVE",
"1073 776 OFFCURVE",
"1073 947 CURVE SMOOTH",
"1073 1191 OFFCURVE",
"883 1323 OFFCURVE",
"614 1323 CURVE SMOOTH",
"82 1323 LINE",
"82 1281 LINE",
"229 1247 LINE",
"229 76 LINE",
"82 42 LINE",
"82 0 LINE"
);
},
{
closed = 1;
nodes = (
"425 1252 LINE",
"551 1252 LINE SMOOTH",
"622 1252 OFFCURVE",
"665 1246 OFFCURVE",
"705 1231 CURVE SMOOTH",
"803 1191 OFFCURVE",
"862 1101 OFFCURVE",
"862 964 CURVE SMOOTH",
"862 891 OFFCURVE",
"842 818 OFFCURVE",
"792 762 CURVE SMOOTH",
"741 705 OFFCURVE",
"666 669 OFFCURVE",
"525 669 CURVE SMOOTH",
"425 669 LINE"
);
}
);
width = 1270;
}
);
leftKerningGroup = I;
rightKerningGroup = R;
unicode = 0052;
},
{
glyphname = S;
layers = (
{
anchors = (
{
name = bottom;
position = "{560, 0}";
},
{
name = topcap;
position = "{559, 1427}";
}
);
layerId = "FA6D65B5-4623-4FAC-A199-3F662257AC29";
paths = (
{
closed = 1;
nodes = (
"821 -16 OFFCURVE",
"1024 153 OFFCURVE",
"1024 375 CURVE SMOOTH",
"1024 849 OFFCURVE",
"382 816 OFFCURVE",
"382 1076 CURVE SMOOTH",
"382 1178 OFFCURVE",
"452 1239 OFFCURVE",
"570 1239 CURVE SMOOTH",
"737 1239 OFFCURVE",
"846 1140 OFFCURVE",
"902 945 CURVE",
"978 945 LINE",
"961 1325 LINE",
"904 1325 LINE",
"863 1234 LINE",
"777 1307 OFFCURVE",
"679 1341 OFFCURVE",
"561 1341 CURVE SMOOTH",
"310 1341 OFFCURVE",
"120 1188 OFFCURVE",
"120 978 CURVE SMOOTH",
"120 512 OFFCURVE",
"792 534 OFFCURVE",
"792 280 CURVE SMOOTH",
"792 158 OFFCURVE",
"699 84 OFFCURVE",
"554 84 CURVE SMOOTH",
"351 84 OFFCURVE",
"237 194 OFFCURVE",
"163 452 CURVE",
"91 440 LINE",
"125 0 LINE",
"179 0 LINE",
"239 70 LINE",
"354 11 OFFCURVE",
"450 -16 OFFCURVE",
"557 -16 CURVE SMOOTH"
);
}
);
width = 1112;
},
{
anchors = (
{
name = bottom;
position = "{521, 0}";
},
{
name = topcap;
position = "{529, 1427}";
}
);
associatedMasterId = "FA6D65B5-4623-4FAC-A199-3F662257AC29";
layerId = "CBD44848-52BD-4DC5-BFA6-577546B7224D";
paths = (
{
closed = 1;
nodes = (
"748 -16 OFFCURVE",
"927 153 OFFCURVE",
"927 373 CURVE SMOOTH",
"927 782 OFFCURVE",
"316 735 OFFCURVE",
"316 1070 CURVE SMOOTH",
"316 1192 OFFCURVE",
"397 1267 OFFCURVE",
"527 1267 CURVE SMOOTH",
"684 1267 OFFCURVE",
"784 1164 OFFCURVE",
"839 945 CURVE",
"884 945 LINE",
"868 1323 LINE",
"834 1323 LINE",
"778 1234 LINE",
"703 1307 OFFCURVE",
"622 1341 OFFCURVE",
"520 1341 CURVE SMOOTH",
"301 1341 OFFCURVE",
"136 1186 OFFCURVE",
"136 978 CURVE SMOOTH",
"136 572 OFFCURVE",
"769 610 OFFCURVE",
"769 271 CURVE SMOOTH",
"769 140 OFFCURVE",
"670 59 OFFCURVE",
"512 59 CURVE SMOOTH",
"325 59 OFFCURVE",
"220 174 OFFCURVE",
"151 450 CURVE",
"108 440 LINE",
"140 0 LINE",
"174 0 LINE",
"242 70 LINE",
"340 11 OFFCURVE",
"425 -16 OFFCURVE",
"518 -16 CURVE SMOOTH"
);
}
);
width = 1029;
},
{
anchors = (
{
name = bottom;
position = "{526, 0}";
},
{
name = topcap;
position = "{533, 1427}";
}
);
layerId = "7C8D72FA-6E62-4564-8BB2-D9F9BC4EB15A";
paths = (
{
closed = 1;
nodes = (
"758 -16 OFFCURVE",
"940 153 OFFCURVE",
"940 373 CURVE SMOOTH",
"940 791 OFFCURVE",
"325 746 OFFCURVE",
"325 1071 CURVE SMOOTH",
"325 1190 OFFCURVE",
"405 1263 OFFCURVE",
"533 1263 CURVE SMOOTH",
"691 1263 OFFCURVE",
"792 1161 OFFCURVE",
"847 945 CURVE",
"896 945 LINE",
"881 1324 LINE",
"843 1324 LINE",
"790 1234 LINE",
"713 1307 OFFCURVE",
"630 1341 OFFCURVE",
"525 1341 CURVE SMOOTH",
"302 1341 OFFCURVE",
"134 1186 OFFCURVE",
"134 978 CURVE SMOOTH",
"134 564 OFFCURVE",
"772 600 OFFCURVE",
"772 273 CURVE SMOOTH",
"772 142 OFFCURVE",
"674 62 OFFCURVE",
"517 62 CURVE SMOOTH",
"329 62 OFFCURVE",
"222 177 OFFCURVE",
"153 450 CURVE",
"106 440 LINE",
"138 0 LINE",
"174 0 LINE",
"242 70 LINE",
"342 11 OFFCURVE",
"428 -16 OFFCURVE",
"523 -16 CURVE SMOOTH"
);
}
);
width = 1040;
}
);
leftKerningGroup = S;
rightKerningGroup = S;
unicode = 0053;
},
{
glyphname = Schwa;
layers = (
{
layerId = "FA6D65B5-4623-4FAC-A199-3F662257AC29";
paths = (
{
closed = 1;
nodes = (
"1009 -18 OFFCURVE",
"1282 263 OFFCURVE",
"1282 681 CURVE SMOOTH",
"1282 1076 OFFCURVE",
"1038 1343 OFFCURVE",
"679 1343 CURVE SMOOTH",
"425 1343 OFFCURVE",
"192 1210 OFFCURVE",
"117 1020 CURVE SMOOTH",
"104 984 LINE",
"154 950 LINE",
"186 988 LINE SMOOTH",
"271 1093 OFFCURVE",
"426 1162 OFFCURVE",
"579 1162 CURVE SMOOTH",
"825 1162 OFFCURVE",
"947 981 OFFCURVE",
"947 619 CURVE SMOOTH",
"947 270 OFFCURVE",
"834 86 OFFCURVE",
"617 86 CURVE SMOOTH",
"464 86 OFFCURVE",
"380 181 OFFCURVE",
"380 353 CURVE SMOOTH",
"380 382 OFFCURVE",
"383 418 OFFCURVE",
"387 445 CURVE",
"1074 469 LINE",
"1074 557 LINE",
"75 557 LINE",
"57 541 LINE",
"62 183 OFFCURVE",
"254 -18 OFFCURVE",
"600 -18 CURVE SMOOTH"
);
}
);
width = 1361;
},
{
associatedMasterId = "FA6D65B5-4623-4FAC-A199-3F662257AC29";
layerId = "CBD44848-52BD-4DC5-BFA6-577546B7224D";
paths = (
{
closed = 1;
nodes = (
"971 -18 OFFCURVE",
"1230 267 OFFCURVE",
"1230 683 CURVE SMOOTH",
"1230 1076 OFFCURVE",
"999 1343 OFFCURVE",
"656 1343 CURVE SMOOTH",
"414 1343 OFFCURVE",
"201 1214 OFFCURVE",
"122 1020 CURVE SMOOTH",
"108 984 LINE",
"149 959 LINE",
"179 997 LINE SMOOTH",
"278 1129 OFFCURVE",
"412 1196 OFFCURVE",
"579 1196 CURVE SMOOTH",
"861 1196 OFFCURVE",
"1014 992 OFFCURVE",
"1014 620 CURVE SMOOTH",
"1014 260 OFFCURVE",
"870 61 OFFCURVE",
"606 61 CURVE SMOOTH",
"409 61 OFFCURVE",
"306 163 OFFCURVE",
"306 359 CURVE SMOOTH",
"306 409 OFFCURVE",
"313 443 OFFCURVE",
"313 466 CURVE",
"1033 490 LINE",
"1033 557 LINE",
"98 557 LINE",
"81 541 LINE",
"88 176 OFFCURVE",
"263 -18 OFFCURVE",
"588 -18 CURVE SMOOTH"
);
}
);
width = 1327;
},
{
layerId = "7C8D72FA-6E62-4564-8BB2-D9F9BC4EB15A";
paths = (
{
closed = 1;
nodes = (
"976 -18 OFFCURVE",
"1237 266 OFFCURVE",
"1237 682 CURVE SMOOTH",
"1237 1076 OFFCURVE",
"1004 1343 OFFCURVE",
"659 1343 CURVE SMOOTH",
"415 1343 OFFCURVE",
"200 1213 OFFCURVE",
"121 1020 CURVE SMOOTH",
"108 984 LINE",
"150 958 LINE",
"180 996 LINE SMOOTH",
"277 1124 OFFCURVE",
"414 1192 OFFCURVE",
"579 1192 CURVE SMOOTH",
"857 1192 OFFCURVE",
"1005 991 OFFCURVE",
"1005 620 CURVE SMOOTH",
"1005 261 OFFCURVE",
"865 64 OFFCURVE",
"608 64 CURVE SMOOTH",
"416 64 OFFCURVE",
"316 165 OFFCURVE",
"316 358 CURVE SMOOTH",
"316 406 OFFCURVE",
"322 440 OFFCURVE",
"322 463 CURVE",
"1039 487 LINE",
"1039 557 LINE",
"95 557 LINE",
"78 541 LINE",
"84 177 OFFCURVE",
"262 -18 OFFCURVE",
"589 -18 CURVE SMOOTH"
);
}
);
width = 1332;
}
);
rightKerningGroup = O;
unicode = 018F;
},
{
glyphname = T;
layers = (
{
anchors = (
{
name = bottom;
position = "{669, -4}";
},
{
name = topcap;
position = "{669, 1427}";
}
);
layerId = "FA6D65B5-4623-4FAC-A199-3F662257AC29";
paths = (
{
closed = 1;
nodes = (
"1022 0 LINE",
"1022 63 LINE",
"818 102 LINE",
"818 1229 LINE",
"1099 1229 LINE",
"1172 1135 OFFCURVE",
"1217 1022 OFFCURVE",
"1251 928 CURVE",
"1318 928 LINE",
"1255 1323 LINE",
"82 1323 LINE",
"19 928 LINE",
"86 928 LINE",
"120 1022 OFFCURVE",
"170 1135 OFFCURVE",
"244 1229 CURVE",
"524 1229 LINE",
"524 102 LINE",
"318 63 LINE",
"318 0 LINE"
);
}
);
width = 1337;
},
{
anchors = (
{
name = bottom;
position = "{651, -4}";
},
{
name = topcap;
position = "{651, 1427}";
}
);
associatedMasterId = "FA6D65B5-4623-4FAC-A199-3F662257AC29";
layerId = "CBD44848-52BD-4DC5-BFA6-577546B7224D";
paths = (
{
closed = 1;
nodes = (
"928 0 LINE",
"928 39 LINE",
"741 72 LINE",
"741 1255 LINE",
"1081 1255 LINE",
"1155 1156 OFFCURVE",
"1205 1043 OFFCURVE",
"1239 945 CURVE",
"1280 945 LINE",
"1217 1323 LINE",
"79 1323 LINE",
"16 945 LINE",
"57 945 LINE",
"91 1043 OFFCURVE",
"141 1156 OFFCURVE",
"215 1255 CURVE",
"561 1255 LINE",
"561 72 LINE",
"371 39 LINE",
"371 0 LINE"
);
}
);
width = 1296;
},
{
anchors = (
{
name = bottom;
position = "{654, -4}";
},
{
name = topcap;
position = "{654, 1427}";
}
);
layerId = "7C8D72FA-6E62-4564-8BB2-D9F9BC4EB15A";
paths = (
{
closed = 1;
nodes = (
"940 0 LINE",
"940 42 LINE",
"751 76 LINE",
"751 1251 LINE",
"1083 1251 LINE",
"1157 1153 OFFCURVE",
"1207 1040 OFFCURVE",
"1241 943 CURVE",
"1285 943 LINE",
"1222 1323 LINE",
"79 1323 LINE",
"16 943 LINE",
"61 943 LINE",
"95 1040 OFFCURVE",
"145 1153 OFFCURVE",
"219 1251 CURVE",
"556 1251 LINE",
"556 76 LINE",
"364 42 LINE",
"364 0 LINE"
);
}
);
width = 1301;
}
);
leftKerningGroup = T;
rightKerningGroup = T;
unicode = 0054;
},
{
glyphname = Tbar;
layers = (
{
components = (
{
name = T;
transform = "{1, 0, 0, 1, 2, 0}";
}
);
layerId = "FA6D65B5-4623-4FAC-A199-3F662257AC29";
paths = (
{
closed = 1;
nodes = (
"1095 631 LINE",
"1095 777 LINE",
"253 777 LINE",
"253 631 LINE"
);
}
);
width = 1341;
},
{
associatedMasterId = "FA6D65B5-4623-4FAC-A199-3F662257AC29";
components = (
{
name = T;
}
);
layerId = "CBD44848-52BD-4DC5-BFA6-577546B7224D";
paths = (
{
closed = 1;
nodes = (
"1016 648 LINE",
"1016 760 LINE",
"285 760 LINE",
"285 648 LINE"
);
}
);
width = 1296;
},
{
components = (
{
alignment = -1;
name = T;
transform = "{1, 0, 0, 1, 0.267, 0}";
}
);
layerId = "7C8D72FA-6E62-4564-8BB2-D9F9BC4EB15A";
paths = (
{
closed = 1;
nodes = (
"1026 646 LINE",
"1026 762 LINE",
"281 762 LINE",
"281 646 LINE"
);
}
);
width = 1302;
}
);
leftKerningGroup = T;
rightKerningGroup = T;
unicode = 0166;
},
{
glyphname = U;
layers = (
{
anchors = (
{
name = bottom;
position = "{777, 0}";
},
{
name = topcap;
position = "{801, 1427}";
}
);
layerId = "FA6D65B5-4623-4FAC-A199-3F662257AC29";
paths = (
{
closed = 1;
nodes = (
"927 -18 OFFCURVE",
"1063 43 OFFCURVE",
"1142 165 CURVE SMOOTH",
"1192 246 OFFCURVE",
"1221 355 OFFCURVE",
"1221 486 CURVE SMOOTH",
"1221 1228 LINE",
"1373 1260 LINE",
"1373 1323 LINE",
"950 1323 LINE",
"950 1260 LINE",
"1102 1228 LINE",
"1102 584 LINE SMOOTH",
"1102 385 OFFCURVE",
"1079 271 OFFCURVE",
"1026 197 CURVE SMOOTH",
"975 127 OFFCURVE",
"894 90 OFFCURVE",
"789 90 CURVE SMOOTH",
"598 90 OFFCURVE",
"490 226 OFFCURVE",
"490 459 CURVE SMOOTH",
"490 1228 LINE",
"641 1260 LINE",
"641 1323 LINE",
"45 1323 LINE",
"45 1260 LINE",
"190 1228 LINE",
"190 459 LINE SMOOTH",
"190 316 OFFCURVE",
"211 233 OFFCURVE",
"265 167 CURVE SMOOTH",
"355 48 OFFCURVE",
"520 -18 OFFCURVE",
"727 -18 CURVE SMOOTH"
);
}
);
width = 1411;
},
{
anchors = (
{
name = bottom;
position = "{689, 0}";
},
{
name = topcap;
position = "{732, 1427}";
}
);
associatedMasterId = "FA6D65B5-4623-4FAC-A199-3F662257AC29";
layerId = "CBD44848-52BD-4DC5-BFA6-577546B7224D";
paths = (
{
closed = 1;
nodes = (
"849 -18 OFFCURVE",
"984 39 OFFCURVE",
"1052 138 CURVE SMOOTH",
"1097 204 OFFCURVE",
"1117 299 OFFCURVE",
"1117 443 CURVE SMOOTH",
"1117 1251 LINE",
"1271 1284 LINE",
"1271 1323 LINE",
"896 1323 LINE",
"896 1284 LINE",
"1049 1251 LINE",
"1049 516 LINE SMOOTH",
"1049 333 OFFCURVE",
"1029 229 OFFCURVE",
"983 167 CURVE SMOOTH",
"932 97 OFFCURVE",
"835 61 OFFCURVE",
"712 61 CURVE SMOOTH",
"518 61 OFFCURVE",
"392 172 OFFCURVE",
"392 391 CURVE SMOOTH",
"392 1251 LINE",
"545 1284 LINE",
"545 1323 LINE",
"57 1323 LINE",
"57 1284 LINE",
"211 1251 LINE",
"211 416 LINE SMOOTH",
"211 273 OFFCURVE",
"233 201 OFFCURVE",
"278 141 CURVE SMOOTH",
"354 41 OFFCURVE",
"498 -18 OFFCURVE",
"676 -18 CURVE SMOOTH"
);
}
);
width = 1330;
},
{
anchors = (
{
name = bottom;
position = "{701, 0}";
},
{
name = topcap;
position = "{742, 1427}";
}
);
layerId = "7C8D72FA-6E62-4564-8BB2-D9F9BC4EB15A";
paths = (
{
closed = 1;
nodes = (
"859 -18 OFFCURVE",
"995 40 OFFCURVE",
"1064 141 CURVE SMOOTH",
"1109 210 OFFCURVE",
"1131 306 OFFCURVE",
"1131 449 CURVE SMOOTH",
"1131 1248 LINE",
"1285 1281 LINE",
"1285 1323 LINE",
"903 1323 LINE",
"903 1281 LINE",
"1056 1248 LINE",
"1056 525 LINE SMOOTH",
"1056 340 OFFCURVE",
"1036 234 OFFCURVE",
"989 171 CURVE SMOOTH",
"937 101 OFFCURVE",
"843 64 OFFCURVE",
"722 64 CURVE SMOOTH",
"528 64 OFFCURVE",
"405 179 OFFCURVE",
"405 400 CURVE SMOOTH",
"405 1248 LINE",
"558 1281 LINE",
"558 1323 LINE",
"55 1323 LINE",
"55 1281 LINE",
"208 1248 LINE",
"208 422 LINE SMOOTH",
"208 279 OFFCURVE",
"230 205 OFFCURVE",
"276 144 CURVE SMOOTH",
"355 42 OFFCURVE",
"501 -18 OFFCURVE",
"683 -18 CURVE SMOOTH"
);
}
);
width = 1341;
}
);
leftKerningGroup = U;
rightKerningGroup = U;
unicode = 0055;
},
{
glyphname = V;
layers = (
{
layerId = "FA6D65B5-4623-4FAC-A199-3F662257AC29";
paths = (
{
closed = 1;
nodes = (
"719 -18 LINE",
"1143 1069 LINE SMOOTH",
"1198 1210 OFFCURVE",
"1229 1235 OFFCURVE",
"1384 1260 CURVE",
"1384 1323 LINE",
"853 1323 LINE",
"853 1260 LINE",
"993 1241 OFFCURVE",
"1043 1212 OFFCURVE",
"1043 1149 CURVE SMOOTH",
"1043 1129 OFFCURVE",
"1038 1104 OFFCURVE",
"1026 1072 CURVE SMOOTH",
"782 437 LINE",
"771 437 LINE",
"516 1145 LINE SMOOTH",
"509 1164 OFFCURVE",
"505 1179 OFFCURVE",
"505 1192 CURVE SMOOTH",
"505 1235 OFFCURVE",
"547 1251 OFFCURVE",
"674 1260 CURVE",
"674 1323 LINE",
"-34 1323 LINE",
"-34 1260 LINE",
"88 1251 OFFCURVE",
"118 1232 OFFCURVE",
"151 1155 CURVE SMOOTH",
"636 -18 LINE"
);
}
);
width = 1343;
},
{
associatedMasterId = "FA6D65B5-4623-4FAC-A199-3F662257AC29";
layerId = "CBD44848-52BD-4DC5-BFA6-577546B7224D";
paths = (
{
closed = 1;
nodes = (
"640 -18 LINE",
"1033 1093 LINE SMOOTH",
"1076 1215 OFFCURVE",
"1100 1257 OFFCURVE",
"1282 1284 CURVE",
"1282 1323 LINE",
"799 1323 LINE",
"799 1284 LINE",
"930 1267 OFFCURVE",
"975 1235 OFFCURVE",
"975 1178 CURVE SMOOTH",
"975 1155 OFFCURVE",
"968 1128 OFFCURVE",
"957 1097 CURVE SMOOTH",
"686 314 LINE",
"677 314 LINE",
"387 1151 LINE SMOOTH",
"376 1183 OFFCURVE",
"364 1214 OFFCURVE",
"364 1230 CURVE SMOOTH",
"364 1269 OFFCURVE",
"391 1275 OFFCURVE",
"545 1284 CURVE",
"545 1323 LINE",
"-14 1323 LINE",
"-14 1284 LINE",
"106 1275 OFFCURVE",
"133 1258 OFFCURVE",
"161 1179 CURVE SMOOTH",
"610 -18 LINE"
);
}
);
width = 1239;
},
{
layerId = "7C8D72FA-6E62-4564-8BB2-D9F9BC4EB15A";
paths = (
{
closed = 1;
nodes = (
"650 -18 LINE",
"1048 1090 LINE SMOOTH",
"1092 1214 OFFCURVE",
"1117 1254 OFFCURVE",
"1296 1281 CURVE",
"1296 1323 LINE",
"806 1323 LINE",
"806 1281 LINE",
"938 1263 OFFCURVE",
"984 1232 OFFCURVE",
"984 1174 CURVE SMOOTH",
"984 1152 OFFCURVE",
"977 1125 OFFCURVE",
"966 1093 CURVE SMOOTH",
"698 331 LINE",
"689 331 LINE",
"404 1150 LINE SMOOTH",
"394 1180 OFFCURVE",
"383 1209 OFFCURVE",
"383 1225 CURVE SMOOTH",
"383 1264 OFFCURVE",
"411 1272 OFFCURVE",
"562 1281 CURVE",
"562 1323 LINE",
"-16 1323 LINE",
"-16 1281 LINE",
"104 1272 OFFCURVE",
"131 1254 OFFCURVE",
"160 1176 CURVE SMOOTH",
"614 -18 LINE"
);
}
);
width = 1253;
}
);
unicode = 0056;
},
{
glyphname = W;
layers = (
{
anchors = (
{
name = topcap;
position = "{1091, 1427}";
}
);
layerId = "FA6D65B5-4623-4FAC-A199-3F662257AC29";
paths = (
{
closed = 1;
nodes = (
"699 -18 LINE",
"1040 854 LINE",
"1382 -18 LINE",
"1465 -18 LINE",
"1889 1069 LINE SMOOTH",
"1942 1208 OFFCURVE",
"1980 1237 OFFCURVE",
"2130 1260 CURVE",
"2130 1323 LINE",
"1599 1323 LINE",
"1599 1260 LINE",
"1741 1242 OFFCURVE",
"1791 1212 OFFCURVE",
"1791 1153 CURVE SMOOTH",
"1791 1131 OFFCURVE",
"1782 1100 OFFCURVE",
"1772 1072 CURVE SMOOTH",
"1528 437 LINE",
"1518 437 LINE",
"1287 1145 LINE SMOOTH",
"1280 1164 OFFCURVE",
"1277 1181 OFFCURVE",
"1277 1194 CURVE SMOOTH",
"1277 1239 OFFCURVE",
"1320 1253 OFFCURVE",
"1445 1260 CURVE",
"1445 1323 LINE",
"737 1323 LINE",
"737 1260 LINE",
"859 1251 OFFCURVE",
"892 1232 OFFCURVE",
"923 1155 CURVE SMOOTH",
"981 1006 LINE",
"763 437 LINE",
"753 437 LINE",
"522 1145 LINE SMOOTH",
"516 1164 OFFCURVE",
"512 1181 OFFCURVE",
"512 1194 CURVE SMOOTH",
"512 1235 OFFCURVE",
"534 1251 OFFCURVE",
"681 1260 CURVE",
"681 1323 LINE",
"-27 1323 LINE",
"-27 1260 LINE",
"95 1251 OFFCURVE",
"127 1232 OFFCURVE",
"158 1155 CURVE SMOOTH",
"617 -18 LINE"
);
}
);
width = 2083;
},
{
anchors = (
{
name = topcap;
position = "{934, 1427}";
}
);
associatedMasterId = "FA6D65B5-4623-4FAC-A199-3F662257AC29";
layerId = "CBD44848-52BD-4DC5-BFA6-577546B7224D";
paths = (
{
closed = 1;
nodes = (
"641 -18 LINE",
"928 882 LINE",
"1265 -18 LINE",
"1305 -18 LINE",
"1658 1093 LINE SMOOTH",
"1698 1217 OFFCURVE",
"1726 1257 OFFCURVE",
"1908 1284 CURVE",
"1908 1323 LINE",
"1425 1323 LINE",
"1425 1284 LINE",
"1558 1265 OFFCURVE",
"1599 1237 OFFCURVE",
"1599 1179 CURVE SMOOTH",
"1599 1153 OFFCURVE",
"1594 1129 OFFCURVE",
"1583 1097 CURVE SMOOTH",
"1341 314 LINE",
"1332 314 LINE",
"1042 1151 LINE SMOOTH",
"1029 1185 OFFCURVE",
"1022 1208 OFFCURVE",
"1022 1228 CURVE SMOOTH",
"1022 1262 OFFCURVE",
"1035 1273 OFFCURVE",
"1199 1284 CURVE",
"1199 1323 LINE",
"641 1323 LINE",
"641 1284 LINE",
"762 1275 OFFCURVE",
"787 1258 OFFCURVE",
"816 1179 CURVE SMOOTH",
"887 990 LINE",
"677 314 LINE",
"669 314 LINE",
"378 1151 LINE SMOOTH",
"361 1199 OFFCURVE",
"355 1215 OFFCURVE",
"355 1232 CURVE SMOOTH",
"355 1264 OFFCURVE",
"375 1271 OFFCURVE",
"536 1284 CURVE",
"536 1323 LINE",
"-22 1323 LINE",
"-22 1284 LINE",
"98 1275 OFFCURVE",
"124 1258 OFFCURVE",
"153 1179 CURVE SMOOTH",
"602 -18 LINE"
);
}
);
width = 1873;
},
{
anchors = (
{
name = topcap;
position = "{955, 1427}";
}
);
layerId = "7C8D72FA-6E62-4564-8BB2-D9F9BC4EB15A";
paths = (
{
closed = 1;
nodes = (
"648 -18 LINE",
"943 878 LINE",
"1280 -18 LINE",
"1326 -18 LINE",
"1689 1090 LINE SMOOTH",
"1731 1216 OFFCURVE",
"1760 1254 OFFCURVE",
"1938 1281 CURVE",
"1938 1323 LINE",
"1448 1323 LINE",
"1448 1281 LINE",
"1582 1262 OFFCURVE",
"1624 1234 OFFCURVE",
"1624 1175 CURVE SMOOTH",
"1624 1150 OFFCURVE",
"1619 1125 OFFCURVE",
"1608 1093 CURVE SMOOTH",
"1366 331 LINE",
"1357 331 LINE",
"1075 1150 LINE SMOOTH",
"1063 1182 OFFCURVE",
"1056 1204 OFFCURVE",
"1056 1223 CURVE SMOOTH",
"1056 1259 OFFCURVE",
"1073 1271 OFFCURVE",
"1232 1281 CURVE",
"1232 1323 LINE",
"654 1323 LINE",
"654 1281 LINE",
"775 1272 OFFCURVE",
"801 1254 OFFCURVE",
"831 1176 CURVE SMOOTH",
"899 992 LINE",
"688 331 LINE",
"680 331 LINE",
"397 1150 LINE SMOOTH",
"382 1195 OFFCURVE",
"376 1210 OFFCURVE",
"376 1227 CURVE SMOOTH",
"376 1260 OFFCURVE",
"396 1269 OFFCURVE",
"555 1281 CURVE",
"555 1323 LINE",
"-23 1323 LINE",
"-23 1281 LINE",
"97 1272 OFFCURVE",
"124 1254 OFFCURVE",
"154 1176 CURVE SMOOTH",
"604 -18 LINE"
);
}
);
width = 1901;
}
);
leftKerningGroup = W;
rightKerningGroup = W;
unicode = 0057;
},
{
glyphname = X;
layers = (
{
layerId = "FA6D65B5-4623-4FAC-A199-3F662257AC29";
paths = (
{
closed = 1;
nodes = (
"493 0 LINE",
"493 63 LINE",
"394 74 OFFCURVE",
"349 91 OFFCURVE",
"349 120 CURVE SMOOTH",
"349 136 OFFCURVE",
"357 160 OFFCURVE",
"378 188 CURVE SMOOTH",
"643 545 LINE",
"904 156 LINE SMOOTH",
"925 125 OFFCURVE",
"932 108 OFFCURVE",
"932 98 CURVE SMOOTH",
"932 79 OFFCURVE",
"898 72 OFFCURVE",
"763 63 CURVE",
"763 0 LINE",
"1477 0 LINE",
"1477 63 LINE",
"1370 72 OFFCURVE",
"1325 86 OFFCURVE",
"1291 138 CURVE SMOOTH",
"873 762 LINE",
"1158 1142 LINE SMOOTH",
"1212 1212 OFFCURVE",
"1246 1234 OFFCURVE",
"1394 1260 CURVE",
"1394 1323 LINE",
"911 1323 LINE",
"911 1260 LINE",
"1013 1250 OFFCURVE",
"1056 1229 OFFCURVE",
"1056 1198 CURVE SMOOTH",
"1056 1179 OFFCURVE",
"1045 1160 OFFCURVE",
"1027 1136 CURVE SMOOTH",
"814 849 LINE",
"604 1167 LINE SMOOTH",
"586 1194 OFFCURVE",
"581 1208 OFFCURVE",
"581 1224 CURVE SMOOTH",
"581 1246 OFFCURVE",
"610 1255 OFFCURVE",
"734 1260 CURVE",
"734 1323 LINE",
"18 1323 LINE",
"18 1260 LINE",
"158 1242 OFFCURVE",
"184 1230 OFFCURVE",
"215 1186 CURVE SMOOTH",
"583 636 LINE",
"247 186 LINE SMOOTH",
"194 113 OFFCURVE",
"136 82 OFFCURVE",
"-12 63 CURVE",
"-12 0 LINE"
);
}
);
width = 1443;
},
{
associatedMasterId = "FA6D65B5-4623-4FAC-A199-3F662257AC29";
layerId = "CBD44848-52BD-4DC5-BFA6-577546B7224D";
paths = (
{
closed = 1;
nodes = (
"448 0 LINE",
"448 34 LINE",
"349 45 OFFCURVE",
"305 62 OFFCURVE",
"305 91 CURVE SMOOTH",
"305 106 OFFCURVE",
"313 131 OFFCURVE",
"333 158 CURVE SMOOTH",
"649 583 LINE",
"947 131 LINE SMOOTH",
"968 100 OFFCURVE",
"975 84 OFFCURVE",
"975 72 CURVE SMOOTH",
"975 54 OFFCURVE",
"949 47 OFFCURVE",
"841 38 CURVE",
"841 0 LINE",
"1356 0 LINE",
"1356 38 LINE",
"1250 47 OFFCURVE",
"1205 61 OFFCURVE",
"1171 111 CURVE SMOOTH",
"770 724 LINE",
"1099 1165 LINE",
"1164 1242 OFFCURVE",
"1210 1262 OFFCURVE",
"1334 1284 CURVE",
"1334 1323 LINE",
"907 1323 LINE",
"907 1284 LINE",
"997 1273 OFFCURVE",
"1035 1253 OFFCURVE",
"1035 1222 CURVE SMOOTH",
"1035 1203 OFFCURVE",
"1024 1185 OFFCURVE",
"1007 1160 CURVE SMOOTH",
"730 784 LINE",
"464 1191 LINE SMOOTH",
"447 1219 OFFCURVE",
"441 1234 OFFCURVE",
"441 1250 CURVE SMOOTH",
"441 1269 OFFCURVE",
"459 1278 OFFCURVE",
"561 1284 CURVE",
"561 1323 LINE",
"41 1323 LINE",
"41 1284 LINE",
"177 1269 OFFCURVE",
"210 1255 OFFCURVE",
"239 1210 CURVE SMOOTH",
"606 648 LINE",
"242 156 LINE SMOOTH",
"184 77 OFFCURVE",
"115 52 OFFCURVE",
"-18 34 CURVE",
"-18 0 LINE"
);
}
);
width = 1353;
},
{
layerId = "7C8D72FA-6E62-4564-8BB2-D9F9BC4EB15A";
paths = (
{
closed = 1;
nodes = (
"454 0 LINE",
"454 38 LINE",
"355 49 OFFCURVE",
"311 65 OFFCURVE",
"311 95 CURVE SMOOTH",
"311 110 OFFCURVE",
"318 135 OFFCURVE",
"339 162 CURVE SMOOTH",
"649 578 LINE",
"942 134 LINE SMOOTH",
"962 103 OFFCURVE",
"969 87 OFFCURVE",
"969 76 CURVE SMOOTH",
"969 57 OFFCURVE",
"942 50 OFFCURVE",
"830 41 CURVE",
"830 0 LINE",
"1372 0 LINE",
"1372 41 LINE",
"1266 50 OFFCURVE",
"1221 64 OFFCURVE",
"1187 115 CURVE SMOOTH",
"783 729 LINE",
"1107 1162 LINE",
"1170 1238 OFFCURVE",
"1215 1258 OFFCURVE",
"1342 1281 CURVE",
"1342 1323 LINE",
"908 1323 LINE",
"908 1281 LINE",
"999 1270 OFFCURVE",
"1038 1250 OFFCURVE",
"1038 1219 CURVE SMOOTH",
"1038 1200 OFFCURVE",
"1027 1181 OFFCURVE",
"1010 1157 CURVE SMOOTH",
"742 793 LINE",
"482 1188 LINE SMOOTH",
"466 1215 OFFCURVE",
"460 1231 OFFCURVE",
"460 1246 CURVE SMOOTH",
"460 1266 OFFCURVE",
"479 1275 OFFCURVE",
"584 1281 CURVE",
"584 1323 LINE",
"38 1323 LINE",
"38 1281 LINE",
"174 1265 OFFCURVE",
"206 1252 OFFCURVE",
"236 1207 CURVE SMOOTH",
"603 647 LINE",
"243 160 LINE SMOOTH",
"185 82 OFFCURVE",
"118 56 OFFCURVE",
"-17 38 CURVE",
"-17 0 LINE"
);
}
);
width = 1365;
}
);
unicode = 0058;
},
{
glyphname = Y;
layers = (
{
anchors = (
{
name = topcap;
position = "{734, 1427}";
}
);
layerId = "FA6D65B5-4623-4FAC-A199-3F662257AC29";
paths = (
{
closed = 1;
nodes = (
"935 0 LINE",
"935 63 LINE",
"791 100 LINE",
"791 574 LINE",
"1057 1069 LINE SMOOTH",
"1146 1234 OFFCURVE",
"1164 1248 OFFCURVE",
"1307 1260 CURVE",
"1307 1323 LINE",
"787 1323 LINE",
"787 1260 LINE",
"928 1257 OFFCURVE",
"978 1230 OFFCURVE",
"978 1176 CURVE SMOOTH",
"978 1151 OFFCURVE",
"968 1115 OFFCURVE",
"945 1072 CURVE SMOOTH",
"748 696 LINE",
"741 696 LINE",
"521 1128 LINE SMOOTH",
"511 1146 OFFCURVE",
"505 1162 OFFCURVE",
"505 1178 CURVE SMOOTH",
"505 1219 OFFCURVE",
"540 1250 OFFCURVE",
"679 1260 CURVE",
"679 1323 LINE",
"-31 1323 LINE",
"-31 1260 LINE",
"90 1251 OFFCURVE",
"118 1241 OFFCURVE",
"167 1155 CURVE SMOOTH",
"495 576 LINE",
"495 100 LINE",
"349 63 LINE",
"349 0 LINE"
);
}
);
width = 1280;
},
{
anchors = (
{
name = topcap;
position = "{686, 1427}";
}
);
associatedMasterId = "FA6D65B5-4623-4FAC-A199-3F662257AC29";
layerId = "CBD44848-52BD-4DC5-BFA6-577546B7224D";
paths = (
{
closed = 1;
nodes = (
"849 0 LINE",
"849 39 LINE",
"696 72 LINE",
"696 531 LINE",
"999 1093 LINE SMOOTH",
"1061 1207 OFFCURVE",
"1065 1257 OFFCURVE",
"1248 1284 CURVE",
"1248 1323 LINE",
"763 1323 LINE",
"763 1284 LINE",
"882 1275 OFFCURVE",
"941 1234 OFFCURVE",
"941 1171 CURVE SMOOTH",
"941 1148 OFFCURVE",
"935 1124 OFFCURVE",
"921 1097 CURVE SMOOTH",
"683 645 LINE",
"676 645 LINE",
"392 1151 LINE SMOOTH",
"378 1178 OFFCURVE",
"369 1201 OFFCURVE",
"369 1221 CURVE SMOOTH",
"369 1255 OFFCURVE",
"400 1275 OFFCURVE",
"550 1284 CURVE",
"550 1323 LINE",
"-14 1323 LINE",
"-14 1284 LINE",
"106 1275 OFFCURVE",
"125 1251 OFFCURVE",
"167 1179 CURVE SMOOTH",
"516 563 LINE",
"516 72 LINE",
"361 39 LINE",
"361 0 LINE"
);
}
);
width = 1219;
},
{
anchors = (
{
name = topcap;
position = "{692, 1427}";
}
);
layerId = "7C8D72FA-6E62-4564-8BB2-D9F9BC4EB15A";
paths = (
{
closed = 1;
nodes = (
"860 0 LINE",
"860 42 LINE",
"709 76 LINE",
"709 537 LINE",
"1007 1090 LINE SMOOTH",
"1072 1211 OFFCURVE",
"1079 1256 OFFCURVE",
"1256 1281 CURVE",
"1256 1323 LINE",
"766 1323 LINE",
"766 1281 LINE",
"888 1273 OFFCURVE",
"946 1234 OFFCURVE",
"946 1172 CURVE SMOOTH",
"946 1149 OFFCURVE",
"939 1123 OFFCURVE",
"924 1093 CURVE SMOOTH",
"691 651 LINE",
"685 651 LINE",
"409 1148 LINE SMOOTH",
"396 1174 OFFCURVE",
"387 1196 OFFCURVE",
"387 1215 CURVE SMOOTH",
"387 1250 OFFCURVE",
"419 1272 OFFCURVE",
"567 1281 CURVE",
"567 1323 LINE",
"-16 1323 LINE",
"-16 1281 LINE",
"104 1272 OFFCURVE",
"124 1250 OFFCURVE",
"167 1176 CURVE SMOOTH",
"513 564 LINE",
"513 76 LINE",
"360 42 LINE",
"360 0 LINE"
);
}
);
width = 1227;
}
);
leftKerningGroup = Y;
rightKerningGroup = Y;
unicode = 0059;
},
{
glyphname = Z;
layers = (
{
anchors = (
{
name = bottom;
position = "{547, 0}";
},
{
name = topcap;
position = "{667, 1427}";
}
);
layerId = "FA6D65B5-4623-4FAC-A199-3F662257AC29";
paths = (
{
closed = 1;
nodes = (
"1093 0 LINE",
"1201 450 LINE",
"1129 450 LINE",
"1099 373 OFFCURVE",
"1043 247 OFFCURVE",
"963 125 CURVE SMOOTH",
"941 95 LINE",
"445 95 LINE",
"1167 1260 LINE",
"1167 1323 LINE",
"170 1323 LINE",
"82 930 LINE",
"153 930 LINE",
"170 981 OFFCURVE",
"208 1069 OFFCURVE",
"275 1191 CURVE SMOOTH",
"296 1229 LINE",
"765 1229 LINE",
"47 65 LINE",
"47 0 LINE"
);
}
);
width = 1255;
},
{
anchors = (
{
name = bottom;
position = "{547, 0}";
},
{
name = topcap;
position = "{613, 1427}";
}
);
associatedMasterId = "FA6D65B5-4623-4FAC-A199-3F662257AC29";
layerId = "CBD44848-52BD-4DC5-BFA6-577546B7224D";
paths = (
{
closed = 1;
nodes = (
"997 0 LINE",
"1086 419 LINE",
"1042 425 LINE",
"1011 348 OFFCURVE",
"956 222 OFFCURVE",
"875 100 CURVE SMOOTH",
"854 68 LINE",
"280 68 LINE",
"1070 1277 LINE",
"1070 1323 LINE",
"177 1323 LINE",
"104 949 LINE",
"149 947 LINE",
"167 999 OFFCURVE",
"206 1095 OFFCURVE",
"273 1217 CURVE SMOOTH",
"294 1255 LINE",
"841 1255 LINE",
"54 48 LINE",
"54 0 LINE"
);
}
);
width = 1162;
},
{
anchors = (
{
name = bottom;
position = "{547, 0}";
},
{
name = topcap;
position = "{620, 1427}";
}
);
layerId = "7C8D72FA-6E62-4564-8BB2-D9F9BC4EB15A";
paths = (
{
closed = 1;
nodes = (
"1010 0 LINE",
"1101 423 LINE",
"1054 428 LINE",
"1022 351 OFFCURVE",
"968 225 OFFCURVE",
"887 103 CURVE SMOOTH",
"866 72 LINE",
"302 72 LINE",
"1083 1275 LINE",
"1083 1323 LINE",
"176 1323 LINE",
"101 947 LINE",
"150 945 LINE",
"167 997 OFFCURVE",
"206 1091 OFFCURVE",
"274 1213 CURVE SMOOTH",
"294 1251 LINE",
"831 1251 LINE",
"53 50 LINE",
"53 0 LINE"
);
}
);
width = 1174;
}
);
leftKerningGroup = Z;
rightKerningGroup = Z;
unicode = 005A;
},
{
glyphname = a;
layers = (
{
anchors = (
{
name = bottom;
position = "{694, 0}";
},
{
name = top;
position = "{443, 1119}";
}
);
layerId = "FA6D65B5-4623-4FAC-A199-3F662257AC29";
paths = (
{
closed = 1;
nodes = (
"397 -18 OFFCURVE",
"488 25 OFFCURVE",
"574 118 CURVE",
"581 118 LINE",
"598 27 OFFCURVE",
"653 -18 OFFCURVE",
"765 -18 CURVE SMOOTH",
"863 -18 OFFCURVE",
"941 19 OFFCURVE",
"1016 98 CURVE",
"977 154 LINE",
"952 127 OFFCURVE",
"927 113 OFFCURVE",
"900 113 CURVE SMOOTH",
"854 113 OFFCURVE",
"835 156 OFFCURVE",
"835 258 CURVE SMOOTH",
"835 612 LINE SMOOTH",
"835 739 OFFCURVE",
"823 799 OFFCURVE",
"796 842 CURVE SMOOTH",
"758 898 OFFCURVE",
"684 928 OFFCURVE",
"561 928 CURVE SMOOTH",
"437 928 OFFCURVE",
"323 898 OFFCURVE",
"235 842 CURVE SMOOTH",
"149 785 OFFCURVE",
"100 710 OFFCURVE",
"100 638 CURVE SMOOTH",
"100 569 OFFCURVE",
"146 521 OFFCURVE",
"213 521 CURVE SMOOTH",
"280 521 OFFCURVE",
"332 570 OFFCURVE",
"332 636 CURVE SMOOTH",
"332 660 OFFCURVE",
"325 686 OFFCURVE",
"325 712 CURVE SMOOTH",
"325 784 OFFCURVE",
"378 828 OFFCURVE",
"464 828 CURVE SMOOTH",
"547 828 OFFCURVE",
"569 787 OFFCURVE",
"569 631 CURVE SMOOTH",
"569 505 LINE",
"222 457 OFFCURVE",
"65 357 OFFCURVE",
"65 186 CURVE SMOOTH",
"65 59 OFFCURVE",
"151 -18 OFFCURVE",
"292 -18 CURVE SMOOTH"
);
},
{
closed = 1;
nodes = (
"383 145 OFFCURVE",
"353 181 OFFCURVE",
"353 256 CURVE SMOOTH",
"353 353 OFFCURVE",
"402 392 OFFCURVE",
"569 425 CURVE",
"569 194 LINE",
"538 161 OFFCURVE",
"497 145 OFFCURVE",
"450 145 CURVE SMOOTH"
);
}
);
width = 1006;
},
{
anchors = (
{
name = bottom;
position = "{705, 0}";
},
{
name = top;
position = "{454, 1119}";
}
);
associatedMasterId = "FA6D65B5-4623-4FAC-A199-3F662257AC29";
layerId = "CBD44848-52BD-4DC5-BFA6-577546B7224D";
paths = (
{
closed = 1;
nodes = (
"391 -18 OFFCURVE",
"491 43 OFFCURVE",
"559 141 CURVE",
"563 138 LINE",
"576 32 OFFCURVE",
"626 -18 OFFCURVE",
"717 -18 CURVE SMOOTH",
"791 -18 OFFCURVE",
"842 16 OFFCURVE",
"896 98 CURVE",
"866 124 LINE",
"837 88 OFFCURVE",
"814 74 OFFCURVE",
"782 74 CURVE SMOOTH",
"732 74 OFFCURVE",
"719 104 OFFCURVE",
"719 219 CURVE SMOOTH",
"719 612 LINE SMOOTH",
"719 756 OFFCURVE",
"715 798 OFFCURVE",
"696 837 CURVE SMOOTH",
"667 896 OFFCURVE",
"595 928 OFFCURVE",
"497 928 CURVE SMOOTH",
"423 928 OFFCURVE",
"346 909 OFFCURVE",
"278 875 CURVE SMOOTH",
"167 818 OFFCURVE",
"93 730 OFFCURVE",
"93 655 CURVE SMOOTH",
"93 605 OFFCURVE",
"125 572 OFFCURVE",
"172 572 CURVE SMOOTH",
"224 572 OFFCURVE",
"262 613 OFFCURVE",
"262 672 CURVE SMOOTH",
"262 691 OFFCURVE",
"258 713 OFFCURVE",
"258 732 CURVE SMOOTH",
"258 813 OFFCURVE",
"319 863 OFFCURVE",
"418 863 CURVE SMOOTH",
"518 863 OFFCURVE",
"555 810 OFFCURVE",
"555 665 CURVE SMOOTH",
"555 497 LINE",
"210 423 OFFCURVE",
"84 342 OFFCURVE",
"84 192 CURVE SMOOTH",
"84 68 OFFCURVE",
"168 -18 OFFCURVE",
"290 -18 CURVE SMOOTH"
);
},
{
closed = 1;
nodes = (
"283 84 OFFCURVE",
"237 136 OFFCURVE",
"237 229 CURVE SMOOTH",
"237 348 OFFCURVE",
"313 398 OFFCURVE",
"555 447 CURVE",
"555 199 LINE",
"511 127 OFFCURVE",
"440 84 OFFCURVE",
"366 84 CURVE SMOOTH"
);
}
);
width = 902;
},
{
anchors = (
{
name = bottom;
position = "{704, 0}";
},
{
name = top;
position = "{453, 1119}";
}
);
layerId = "7C8D72FA-6E62-4564-8BB2-D9F9BC4EB15A";
paths = (
{
closed = 1;
nodes = (
"392 -18 OFFCURVE",
"491 41 OFFCURVE",
"561 138 CURVE",
"566 135 LINE",
"579 32 OFFCURVE",
"630 -18 OFFCURVE",
"723 -18 CURVE SMOOTH",
"801 -18 OFFCURVE",
"855 16 OFFCURVE",
"912 98 CURVE",
"881 128 LINE",
"852 93 OFFCURVE",
"829 79 OFFCURVE",
"798 79 CURVE SMOOTH",
"749 79 OFFCURVE",
"734 111 OFFCURVE",
"734 224 CURVE SMOOTH",
"734 612 LINE SMOOTH",
"734 754 OFFCURVE",
"729 798 OFFCURVE",
"710 838 CURVE SMOOTH",
"679 896 OFFCURVE",
"607 928 OFFCURVE",
"506 928 CURVE SMOOTH",
"425 928 OFFCURVE",
"343 908 OFFCURVE",
"273 871 CURVE SMOOTH",
"165 814 OFFCURVE",
"94 728 OFFCURVE",
"94 653 CURVE SMOOTH",
"94 601 OFFCURVE",
"128 565 OFFCURVE",
"177 565 CURVE SMOOTH",
"231 565 OFFCURVE",
"271 608 OFFCURVE",
"271 667 CURVE SMOOTH",
"271 687 OFFCURVE",
"267 709 OFFCURVE",
"267 730 CURVE SMOOTH",
"267 809 OFFCURVE",
"327 859 OFFCURVE",
"424 859 CURVE SMOOTH",
"521 859 OFFCURVE",
"557 807 OFFCURVE",
"557 660 CURVE SMOOTH",
"557 498 LINE",
"212 427 OFFCURVE",
"82 344 OFFCURVE",
"82 191 CURVE SMOOTH",
"82 67 OFFCURVE",
"166 -18 OFFCURVE",
"290 -18 CURVE SMOOTH"
);
},
{
closed = 1;
nodes = (
"296 92 OFFCURVE",
"253 142 OFFCURVE",
"253 232 CURVE SMOOTH",
"253 348 OFFCURVE",
"324 398 OFFCURVE",
"557 444 CURVE",
"557 199 LINE",
"514 132 OFFCURVE",
"448 92 OFFCURVE",
"377 92 CURVE SMOOTH"
);
}
);
width = 916;
}
);
leftKerningGroup = a;
rightKerningGroup = a;
unicode = 0061;
userData = {
com.typemytype.robofont.guides = (
{
angle = 359.5;
isGlobal = 0;
magnetic = 5;
x = 0;
y = 84;
}
);
};
},
{
glyphname = ae;
layers = (
{
layerId = "FA6D65B5-4623-4FAC-A199-3F662257AC29";
paths = (
{
closed = 1;
nodes = (
"423 -18 OFFCURVE",
"524 34 OFFCURVE",
"648 158 CURVE",
"655 158 LINE",
"737 45 OFFCURVE",
"873 -18 OFFCURVE",
"1036 -18 CURVE SMOOTH",
"1232 -18 OFFCURVE",
"1391 74 OFFCURVE",
"1454 226 CURVE SMOOTH",
"1463 246 LINE",
"1414 287 LINE",
"1402 273 LINE SMOOTH",
"1341 203 OFFCURVE",
"1234 160 OFFCURVE",
"1122 160 CURVE SMOOTH",
"943 160 OFFCURVE",
"854 271 OFFCURVE",
"853 498 CURVE",
"1479 498 LINE",
"1492 509 LINE",
"1483 785 OFFCURVE",
"1343 928 OFFCURVE",
"1083 928 CURVE SMOOTH",
"970 928 OFFCURVE",
"870 902 OFFCURVE",
"787 851 CURVE",
"737 906 OFFCURVE",
"672 928 OFFCURVE",
"563 928 CURVE SMOOTH",
"434 928 OFFCURVE",
"319 897 OFFCURVE",
"235 842 CURVE SMOOTH",
"151 785 OFFCURVE",
"100 706 OFFCURVE",
"100 636 CURVE SMOOTH",
"100 569 OFFCURVE",
"146 521 OFFCURVE",
"213 521 CURVE SMOOTH",
"280 521 OFFCURVE",
"332 570 OFFCURVE",
"332 636 CURVE SMOOTH",
"332 660 OFFCURVE",
"325 686 OFFCURVE",
"325 712 CURVE SMOOTH",
"325 784 OFFCURVE",
"378 828 OFFCURVE",
"464 828 CURVE SMOOTH",
"547 828 OFFCURVE",
"569 787 OFFCURVE",
"569 631 CURVE SMOOTH",
"569 505 LINE",
"220 457 OFFCURVE",
"65 357 OFFCURVE",
"65 184 CURVE SMOOTH",
"65 57 OFFCURVE",
"149 -18 OFFCURVE",
"299 -18 CURVE SMOOTH"
);
},
{
closed = 1;
nodes = (
"392 145 OFFCURVE",
"353 184 OFFCURVE",
"353 251 CURVE SMOOTH",
"353 340 OFFCURVE",
"419 396 OFFCURVE",
"567 425 CURVE",
"569 354 OFFCURVE",
"584 283 OFFCURVE",
"613 224 CURVE",
"559 170 OFFCURVE",
"507 145 OFFCURVE",
"455 145 CURVE SMOOTH"
);
},
{
closed = 1;
nodes = (
"870 748 OFFCURVE",
"943 841 OFFCURVE",
"1063 841 CURVE SMOOTH",
"1160 841 OFFCURVE",
"1214 777 OFFCURVE",
"1214 662 CURVE SMOOTH",
"1214 636 OFFCURVE",
"1210 610 OFFCURVE",
"1207 593 CURVE",
"855 579 LINE"
);
}
);
width = 1543;
},
{
associatedMasterId = "FA6D65B5-4623-4FAC-A199-3F662257AC29";
layerId = "CBD44848-52BD-4DC5-BFA6-577546B7224D";
paths = (
{
closed = 1;
nodes = (
"398 -18 OFFCURVE",
"526 59 OFFCURVE",
"608 186 CURVE",
"615 186 LINE",
"684 59 OFFCURVE",
"810 -18 OFFCURVE",
"968 -18 CURVE SMOOTH",
"1136 -18 OFFCURVE",
"1277 68 OFFCURVE",
"1337 208 CURVE SMOOTH",
"1348 232 LINE",
"1318 249 LINE",
"1298 224 LINE SMOOTH",
"1239 151 OFFCURVE",
"1135 108 OFFCURVE",
"1022 108 CURVE SMOOTH",
"818 108 OFFCURVE",
"727 239 OFFCURVE",
"727 529 CURVE",
"1354 529 LINE",
"1366 540 LINE",
"1361 794 OFFCURVE",
"1239 928 OFFCURVE",
"1014 928 CURVE SMOOTH",
"889 928 OFFCURVE",
"784 887 OFFCURVE",
"705 814 CURVE",
"676 896 OFFCURVE",
"595 928 OFFCURVE",
"497 928 CURVE SMOOTH",
"423 928 OFFCURVE",
"346 909 OFFCURVE",
"278 875 CURVE SMOOTH",
"167 818 OFFCURVE",
"93 730 OFFCURVE",
"93 655 CURVE SMOOTH",
"93 605 OFFCURVE",
"125 572 OFFCURVE",
"172 572 CURVE SMOOTH",
"224 572 OFFCURVE",
"262 613 OFFCURVE",
"262 672 CURVE SMOOTH",
"262 691 OFFCURVE",
"258 713 OFFCURVE",
"258 732 CURVE SMOOTH",
"258 813 OFFCURVE",
"319 863 OFFCURVE",
"418 863 CURVE SMOOTH",
"518 863 OFFCURVE",
"555 810 OFFCURVE",
"555 665 CURVE SMOOTH",
"555 497 LINE",
"208 423 OFFCURVE",
"84 342 OFFCURVE",
"84 190 CURVE SMOOTH",
"84 68 OFFCURVE",
"170 -18 OFFCURVE",
"292 -18 CURVE SMOOTH"
);
},
{
closed = 1;
nodes = (
"283 84 OFFCURVE",
"237 138 OFFCURVE",
"237 229 CURVE SMOOTH",
"237 348 OFFCURVE",
"313 398 OFFCURVE",
"555 447 CURVE",
"555 366 OFFCURVE",
"567 297 OFFCURVE",
"591 237 CURVE",
"534 146 OFFCURVE",
"443 84 OFFCURVE",
"364 84 CURVE SMOOTH"
);
},
{
closed = 1;
nodes = (
"753 769 OFFCURVE",
"848 875 OFFCURVE",
"999 875 CURVE SMOOTH",
"1122 875 OFFCURVE",
"1186 803 OFFCURVE",
"1186 662 CURVE SMOOTH",
"1186 634 OFFCURVE",
"1185 605 OFFCURVE",
"1181 593 CURVE",
"730 577 LINE"
);
}
);
width = 1437;
},
{
layerId = "7C8D72FA-6E62-4564-8BB2-D9F9BC4EB15A";
paths = (
{
closed = 1;
nodes = (
"402 -18 OFFCURVE",
"526 55 OFFCURVE",
"614 182 CURVE",
"621 182 LINE",
"691 57 OFFCURVE",
"818 -18 OFFCURVE",
"977 -18 CURVE SMOOTH",
"1149 -18 OFFCURVE",
"1292 69 OFFCURVE",
"1353 210 CURVE SMOOTH",
"1363 234 LINE",
"1331 254 LINE",
"1312 230 LINE SMOOTH",
"1253 158 OFFCURVE",
"1148 115 OFFCURVE",
"1036 115 CURVE SMOOTH",
"835 115 OFFCURVE",
"744 244 OFFCURVE",
"743 525 CURVE",
"1371 525 LINE",
"1383 536 LINE",
"1378 793 OFFCURVE",
"1253 928 OFFCURVE",
"1023 928 CURVE SMOOTH",
"899 928 OFFCURVE",
"796 889 OFFCURVE",
"716 819 CURVE",
"684 897 OFFCURVE",
"605 928 OFFCURVE",
"506 928 CURVE SMOOTH",
"424 928 OFFCURVE",
"342 908 OFFCURVE",
"273 871 CURVE SMOOTH",
"165 814 OFFCURVE",
"94 727 OFFCURVE",
"94 653 CURVE SMOOTH",
"94 601 OFFCURVE",
"128 565 OFFCURVE",
"177 565 CURVE SMOOTH",
"231 565 OFFCURVE",
"271 608 OFFCURVE",
"271 667 CURVE SMOOTH",
"271 687 OFFCURVE",
"267 709 OFFCURVE",
"267 730 CURVE SMOOTH",
"267 809 OFFCURVE",
"327 859 OFFCURVE",
"424 859 CURVE SMOOTH",
"521 859 OFFCURVE",
"557 807 OFFCURVE",
"557 660 CURVE SMOOTH",
"557 498 LINE",
"210 427 OFFCURVE",
"82 344 OFFCURVE",
"82 190 CURVE SMOOTH",
"82 67 OFFCURVE",
"167 -18 OFFCURVE",
"293 -18 CURVE SMOOTH"
);
},
{
closed = 1;
nodes = (
"298 92 OFFCURVE",
"253 144 OFFCURVE",
"253 232 CURVE SMOOTH",
"253 347 OFFCURVE",
"327 398 OFFCURVE",
"556 444 CURVE",
"557 365 OFFCURVE",
"570 295 OFFCURVE",
"594 235 CURVE",
"537 150 OFFCURVE",
"452 92 OFFCURVE",
"376 92 CURVE SMOOTH"
);
},
{
closed = 1;
nodes = (
"769 766 OFFCURVE",
"860 870 OFFCURVE",
"1007 870 CURVE SMOOTH",
"1127 870 OFFCURVE",
"1189 799 OFFCURVE",
"1189 662 CURVE SMOOTH",
"1189 634 OFFCURVE",
"1188 606 OFFCURVE",
"1184 593 CURVE",
"747 577 LINE"
);
}
);
width = 1451;
}
);
leftKerningGroup = a;
rightKerningGroup = e;
unicode = 00E6;
userData = {
com.typemytype.robofont.guides = (
{
angle = 90;
isGlobal = 0;
magnetic = 5;
x = -118;
y = 0;
}
);
};
},
{
glyphname = b;
layers = (
{
layerId = "FA6D65B5-4623-4FAC-A199-3F662257AC29";
paths = (
{
closed = 1;
nodes = (
"864 -18 OFFCURVE",
"1067 203 OFFCURVE",
"1067 493 CURVE SMOOTH",
"1067 751 OFFCURVE",
"913 928 OFFCURVE",
"688 928 CURVE SMOOTH",
"577 928 OFFCURVE",
"479 882 OFFCURVE",
"402 806 CURVE",
"402 1427 LINE",
"364 1427 LINE",
"-9 1343 LINE",
"-9 1303 LINE",
"136 1257 LINE",
"136 0 LINE",
"186 0 LINE",
"333 62 LINE",
"344 62 LINE",
"418 11 OFFCURVE",
"509 -18 OFFCURVE",
"602 -18 CURVE SMOOTH"
);
},
{
closed = 1;
nodes = (
"468 75 OFFCURVE",
"402 161 OFFCURVE",
"402 292 CURVE SMOOTH",
"402 694 LINE",
"443 756 OFFCURVE",
"500 794 OFFCURVE",
"569 794 CURVE SMOOTH",
"701 794 OFFCURVE",
"777 663 OFFCURVE",
"777 445 CURVE SMOOTH",
"777 224 OFFCURVE",
"694 75 OFFCURVE",
"567 75 CURVE SMOOTH"
);
}
);
width = 1131;
},
{
associatedMasterId = "FA6D65B5-4623-4FAC-A199-3F662257AC29";
layerId = "CBD44848-52BD-4DC5-BFA6-577546B7224D";
paths = (
{
closed = 1;
nodes = (
"760 -18 OFFCURVE",
"956 203 OFFCURVE",
"956 493 CURVE SMOOTH",
"956 751 OFFCURVE",
"801 928 OFFCURVE",
"576 928 CURVE SMOOTH",
"475 928 OFFCURVE",
"387 889 OFFCURVE",
"314 812 CURVE",
"314 1427 LINE",
"297 1427 LINE",
"24 1343 LINE",
"24 1320 LINE",
"149 1273 LINE",
"149 0 LINE",
"177 0 LINE",
"256 62 LINE",
"265 62 LINE",
"333 11 OFFCURVE",
"416 -18 OFFCURVE",
"502 -18 CURVE SMOOTH"
);
},
{
closed = 1;
nodes = (
"389 41 OFFCURVE",
"314 127 OFFCURVE",
"314 258 CURVE SMOOTH",
"314 746 LINE",
"359 801 OFFCURVE",
"426 835 OFFCURVE",
"504 835 CURVE SMOOTH",
"670 835 OFFCURVE",
"771 688 OFFCURVE",
"771 445 CURVE SMOOTH",
"771 203 OFFCURVE",
"665 41 OFFCURVE",
"502 41 CURVE SMOOTH"
);
}
);
width = 1035;
},
{
layerId = "7C8D72FA-6E62-4564-8BB2-D9F9BC4EB15A";
paths = (
{
closed = 1;
nodes = (
"774 -18 OFFCURVE",
"971 203 OFFCURVE",
"971 493 CURVE SMOOTH",
"971 751 OFFCURVE",
"816 928 OFFCURVE",
"591 928 CURVE SMOOTH",
"488 928 OFFCURVE",
"399 888 OFFCURVE",
"326 811 CURVE",
"326 1427 LINE",
"306 1427 LINE",
"20 1343 LINE",
"20 1318 LINE",
"148 1271 LINE",
"148 0 LINE",
"178 0 LINE",
"266 62 LINE",
"275 62 LINE",
"344 11 OFFCURVE",
"428 -18 OFFCURVE",
"515 -18 CURVE SMOOTH"
);
},
{
closed = 1;
nodes = (
"399 46 OFFCURVE",
"326 132 OFFCURVE",
"326 262 CURVE SMOOTH",
"326 739 LINE",
"371 795 OFFCURVE",
"436 829 OFFCURVE",
"513 829 CURVE SMOOTH",
"674 829 OFFCURVE",
"772 684 OFFCURVE",
"772 445 CURVE SMOOTH",
"772 206 OFFCURVE",
"669 46 OFFCURVE",
"511 46 CURVE SMOOTH"
);
}
);
width = 1048;
}
);
leftKerningGroup = b;
rightKerningGroup = b;
unicode = 0062;
},
{
glyphname = c;
layers = (
{
anchors = (
{
name = bottom;
position = "{539, 0}";
},
{
name = top;
position = "{559, 1119}";
}
);
layerId = "FA6D65B5-4623-4FAC-A199-3F662257AC29";
paths = (
{
closed = 1;
nodes = (
"710 -18 OFFCURVE",
"844 63 OFFCURVE",
"913 229 CURVE SMOOTH",
"921 249 LINE",
"873 287 LINE",
"861 273 LINE SMOOTH",
"798 199 OFFCURVE",
"710 160 OFFCURVE",
"606 160 CURVE SMOOTH",
"437 160 OFFCURVE",
"351 276 OFFCURVE",
"351 497 CURVE SMOOTH",
"351 715 OFFCURVE",
"435 839 OFFCURVE",
"579 839 CURVE SMOOTH",
"672 839 OFFCURVE",
"694 777 OFFCURVE",
"705 696 CURVE SMOOTH",
"712 645 OFFCURVE",
"732 584 OFFCURVE",
"818 584 CURVE SMOOTH",
"889 584 OFFCURVE",
"934 629 OFFCURVE",
"934 699 CURVE SMOOTH",
"934 830 OFFCURVE",
"778 928 OFFCURVE",
"570 928 CURVE SMOOTH",
"273 928 OFFCURVE",
"62 726 OFFCURVE",
"62 443 CURVE SMOOTH",
"62 176 OFFCURVE",
"254 -18 OFFCURVE",
"524 -18 CURVE SMOOTH"
);
}
);
width = 981;
},
{
anchors = (
{
name = bottom;
position = "{500, 0}";
},
{
name = top;
position = "{529, 1119}";
}
);
associatedMasterId = "FA6D65B5-4623-4FAC-A199-3F662257AC29";
layerId = "CBD44848-52BD-4DC5-BFA6-577546B7224D";
paths = (
{
closed = 1;
nodes = (
"665 -18 OFFCURVE",
"794 68 OFFCURVE",
"853 220 CURVE SMOOTH",
"861 242 LINE",
"828 260 LINE",
"810 233 LINE SMOOTH",
"748 149 OFFCURVE",
"653 108 OFFCURVE",
"550 108 CURVE SMOOTH",
"362 108 OFFCURVE",
"254 244 OFFCURVE",
"254 478 CURVE SMOOTH",
"254 719 OFFCURVE",
"359 873 OFFCURVE",
"541 873 CURVE SMOOTH",
"619 873 OFFCURVE",
"651 849 OFFCURVE",
"665 735 CURVE SMOOTH",
"674 662 OFFCURVE",
"706 627 OFFCURVE",
"767 627 CURVE SMOOTH",
"816 627 OFFCURVE",
"846 667 OFFCURVE",
"846 726 CURVE SMOOTH",
"846 835 OFFCURVE",
"712 928 OFFCURVE",
"536 928 CURVE SMOOTH",
"269 928 OFFCURVE",
"79 727 OFFCURVE",
"79 443 CURVE SMOOTH",
"79 172 OFFCURVE",
"253 -18 OFFCURVE",
"498 -18 CURVE SMOOTH"
);
}
);
width = 920;
},
{
anchors = (
{
name = bottom;
position = "{505, 0}";
},
{
name = top;
position = "{533, 1119}";
}
);
layerId = "7C8D72FA-6E62-4564-8BB2-D9F9BC4EB15A";
paths = (
{
closed = 1;
nodes = (
"671 -18 OFFCURVE",
"801 68 OFFCURVE",
"861 221 CURVE SMOOTH",
"869 243 LINE",
"834 263 LINE",
"816 239 LINE SMOOTH",
"755 156 OFFCURVE",
"661 115 OFFCURVE",
"557 115 CURVE SMOOTH",
"372 115 OFFCURVE",
"267 248 OFFCURVE",
"267 480 CURVE SMOOTH",
"267 718 OFFCURVE",
"369 868 OFFCURVE",
"546 868 CURVE SMOOTH",
"626 868 OFFCURVE",
"657 839 OFFCURVE",
"670 730 CURVE SMOOTH",
"679 660 OFFCURVE",
"710 621 OFFCURVE",
"774 621 CURVE SMOOTH",
"826 621 OFFCURVE",
"857 662 OFFCURVE",
"857 722 CURVE SMOOTH",
"857 834 OFFCURVE",
"721 928 OFFCURVE",
"541 928 CURVE SMOOTH",
"269 928 OFFCURVE",
"77 726 OFFCURVE",
"77 443 CURVE SMOOTH",
"77 172 OFFCURVE",
"253 -18 OFFCURVE",
"502 -18 CURVE SMOOTH"
);
}
);
width = 928;
}
);
leftKerningGroup = e;
rightKerningGroup = c;
unicode = 0063;
},
{
glyphname = d;
layers = (
{
anchors = (
{
name = bottom;
position = "{437, 0}";
}
);
layerId = "FA6D65B5-4623-4FAC-A199-3F662257AC29";
paths = (
{
closed = 1;
nodes = (
"567 -18 OFFCURVE",
"667 22 OFFCURVE",
"737 91 CURVE",
"746 88 LINE",
"746 -18 LINE",
"777 -18 LINE",
"1135 90 LINE",
"1135 125 LINE",
"999 168 LINE",
"999 1427 LINE",
"961 1427 LINE",
"586 1343 LINE",
"586 1303 LINE",
"732 1255 LINE",
"732 885 LINE",
"667 914 OFFCURVE",
"598 928 OFFCURVE",
"533 928 CURVE SMOOTH",
"256 928 OFFCURVE",
"63 729 OFFCURVE",
"63 440 CURVE SMOOTH",
"63 177 OFFCURVE",
"235 -18 OFFCURVE",
"455 -18 CURVE SMOOTH"
);
},
{
closed = 1;
nodes = (
"434 106 OFFCURVE",
"357 247 OFFCURVE",
"357 469 CURVE SMOOTH",
"357 688 OFFCURVE",
"440 835 OFFCURVE",
"567 835 CURVE SMOOTH",
"667 835 OFFCURVE",
"732 749 OFFCURVE",
"732 622 CURVE SMOOTH",
"732 196 LINE",
"691 141 OFFCURVE",
"634 106 OFFCURVE",
"565 106 CURVE SMOOTH"
);
}
);
width = 1158;
},
{
anchors = (
{
name = bottom;
position = "{437, 0}";
}
);
associatedMasterId = "FA6D65B5-4623-4FAC-A199-3F662257AC29";
layerId = "CBD44848-52BD-4DC5-BFA6-577546B7224D";
paths = (
{
closed = 1;
nodes = (
"550 -18 OFFCURVE",
"651 32 OFFCURVE",
"724 134 CURVE",
"730 131 LINE",
"730 -18 LINE",
"742 -18 LINE",
"997 90 LINE",
"997 108 LINE",
"880 134 LINE",
"880 1427 LINE",
"863 1427 LINE",
"593 1343 LINE",
"593 1320 LINE",
"719 1271 LINE",
"719 902 LINE",
"658 920 OFFCURVE",
"593 928 OFFCURVE",
"533 928 CURVE SMOOTH",
"265 928 OFFCURVE",
"81 729 OFFCURVE",
"81 440 CURVE SMOOTH",
"81 177 OFFCURVE",
"233 -18 OFFCURVE",
"437 -18 CURVE SMOOTH"
);
},
{
closed = 1;
nodes = (
"354 95 OFFCURVE",
"262 237 OFFCURVE",
"262 468 CURVE SMOOTH",
"262 715 OFFCURVE",
"369 877 OFFCURVE",
"529 877 CURVE SMOOTH",
"653 877 OFFCURVE",
"719 812 OFFCURVE",
"719 688 CURVE SMOOTH",
"719 196 LINE",
"679 134 OFFCURVE",
"598 95 OFFCURVE",
"509 95 CURVE SMOOTH"
);
}
);
width = 1043;
},
{
anchors = (
{
name = bottom;
position = "{437, 0}";
}
);
layerId = "7C8D72FA-6E62-4564-8BB2-D9F9BC4EB15A";
paths = (
{
closed = 1;
nodes = (
"552 -18 OFFCURVE",
"653 31 OFFCURVE",
"725 128 CURVE",
"733 125 LINE",
"733 -18 LINE",
"747 -18 LINE",
"1015 90 LINE",
"1015 111 LINE",
"896 138 LINE",
"896 1427 LINE",
"876 1427 LINE",
"592 1343 LINE",
"592 1318 LINE",
"721 1269 LINE",
"721 900 LINE",
"659 919 OFFCURVE",
"593 928 OFFCURVE",
"533 928 CURVE SMOOTH",
"263 928 OFFCURVE",
"79 729 OFFCURVE",
"79 440 CURVE SMOOTH",
"79 177 OFFCURVE",
"234 -18 OFFCURVE",
"439 -18 CURVE SMOOTH"
);
},
{
closed = 1;
nodes = (
"365 96 OFFCURVE",
"274 239 OFFCURVE",
"274 468 CURVE SMOOTH",
"274 711 OFFCURVE",
"379 871 OFFCURVE",
"534 871 CURVE SMOOTH",
"655 871 OFFCURVE",
"721 803 OFFCURVE",
"721 679 CURVE SMOOTH",
"721 196 LINE",
"680 135 OFFCURVE",
"602 96 OFFCURVE",
"516 96 CURVE SMOOTH"
);
}
);
width = 1058;
}
);
leftKerningGroup = d;
rightKerningGroup = d;
unicode = 0064;
},
{
glyphname = eth;
layers = (
{
layerId = "FA6D65B5-4623-4FAC-A199-3F662257AC29";
paths = (
{
closed = 1;
nodes = (
"748 -18 OFFCURVE",
"961 170 OFFCURVE",
"961 504 CURVE SMOOTH",
"961 891 OFFCURVE",
"720 1192 OFFCURVE",
"278 1341 CURVE",
"222 1255 LINE",
"478 1122 OFFCURVE",
"620 938 OFFCURVE",
"655 722 CURVE",
"613 778 OFFCURVE",
"536 812 OFFCURVE",
"441 812 CURVE SMOOTH",
"222 812 OFFCURVE",
"62 640 OFFCURVE",
"62 405 CURVE SMOOTH",
"62 154 OFFCURVE",
"246 -18 OFFCURVE",
"493 -18 CURVE SMOOTH {name = hr00;}"
);
},
{
closed = 1;
nodes = (
"405 86 OFFCURVE",
"344 197 OFFCURVE",
"344 376 CURVE SMOOTH",
"344 563 OFFCURVE",
"411 683 OFFCURVE",
"518 683 CURVE SMOOTH",
"576 683 OFFCURVE",
"629 648 OFFCURVE",
"658 590 CURVE",
"672 538 OFFCURVE",
"679 473 OFFCURVE",
"679 409 CURVE SMOOTH",
"679 210 OFFCURVE",
"612 86 OFFCURVE",
"505 86 CURVE SMOOTH"
);
},
{
closed = 1;
nodes = (
"830 1226 LINE",
"755 1330 LINE",
"269 988 LINE",
"342 882 LINE"
);
}
);
width = 1043;
},
{
associatedMasterId = "FA6D65B5-4623-4FAC-A199-3F662257AC29";
layerId = "CBD44848-52BD-4DC5-BFA6-577546B7224D";
paths = (
{
closed = 1;
nodes = (
"749 -18 OFFCURVE",
"930 186 OFFCURVE",
"930 479 CURVE SMOOTH",
"930 848 OFFCURVE",
"660 1201 OFFCURVE",
"273 1341 CURVE",
"242 1280 LINE",
"461 1176 OFFCURVE",
"683 907 OFFCURVE",
"713 708 CURVE",
"669 758 OFFCURVE",
"559 798 OFFCURVE",
"464 798 CURVE SMOOTH",
"253 798 OFFCURVE",
"82 615 OFFCURVE",
"82 391 CURVE SMOOTH",
"82 154 OFFCURVE",
"253 -18 OFFCURVE",
"488 -18 CURVE SMOOTH {name = hr00;}"
);
},
{
closed = 1;
nodes = (
"366 61 OFFCURVE",
"287 177 OFFCURVE",
"287 362 CURVE SMOOTH",
"287 563 OFFCURVE",
"385 699 OFFCURVE",
"527 699 CURVE SMOOTH",
"600 699 OFFCURVE",
"676 663 OFFCURVE",
"717 606 CURVE",
"729 555 OFFCURVE",
"737 477 OFFCURVE",
"737 418 CURVE SMOOTH",
"737 211 OFFCURVE",
"633 61 OFFCURVE",
"490 61 CURVE SMOOTH"
);
},
{
closed = 1;
nodes = (
"760 1242 LINE",
"708 1321 LINE",
"267 1035 LINE",
"316 956 LINE"
);
}
);
width = 1014;
},
{
layerId = "7C8D72FA-6E62-4564-8BB2-D9F9BC4EB15A";
paths = (
{
closed = 1;
nodes = (
"749 -18 OFFCURVE",
"934 183 OFFCURVE",
"934 483 CURVE SMOOTH",
"934 853 OFFCURVE",
"668 1200 OFFCURVE",
"274 1341 CURVE",
"239 1277 LINE",
"463 1169 OFFCURVE",
"674 911 OFFCURVE",
"705 710 CURVE",
"662 761 OFFCURVE",
"556 800 OFFCURVE",
"461 800 CURVE SMOOTH",
"249 800 OFFCURVE",
"79 618 OFFCURVE",
"79 393 CURVE SMOOTH",
"79 154 OFFCURVE",
"252 -18 OFFCURVE",
"489 -18 CURVE SMOOTH {name = hr00;}"
);
},
{
closed = 1;
nodes = (
"371 64 OFFCURVE",
"295 179 OFFCURVE",
"295 364 CURVE SMOOTH",
"295 563 OFFCURVE",
"388 697 OFFCURVE",
"526 697 CURVE SMOOTH",
"596 697 OFFCURVE",
"670 661 OFFCURVE",
"709 604 CURVE",
"721 552 OFFCURVE",
"729 476 OFFCURVE",
"729 417 CURVE SMOOTH",
"729 211 OFFCURVE",
"630 64 OFFCURVE",
"492 64 CURVE SMOOTH"
);
},
{
closed = 1;
nodes = (
"769 1240 LINE",
"714 1322 LINE",
"267 1029 LINE",
"320 946 LINE"
);
}
);
width = 1018;
}
);
leftKerningGroup = o;
unicode = 00F0;
},
{
glyphname = dcroat;
layers = (
{
components = (
{
name = d;
}
);
layerId = "FA6D65B5-4623-4FAC-A199-3F662257AC29";
paths = (
{
closed = 1;
nodes = (
"1135 1029 LINE",
"1135 1176 LINE",
"538 1176 LINE",
"538 1029 LINE"
);
}
);
width = 1158;
},
{
associatedMasterId = "FA6D65B5-4623-4FAC-A199-3F662257AC29";
components = (
{
name = d;
}
);
layerId = "CBD44848-52BD-4DC5-BFA6-577546B7224D";
paths = (
{
closed = 1;
nodes = (
"999 1047 LINE",
"999 1158 LINE",
"471 1158 LINE",
"471 1047 LINE"
);
}
);
width = 1043;
},
{
components = (
{
alignment = -1;
name = d;
}
);
layerId = "7C8D72FA-6E62-4564-8BB2-D9F9BC4EB15A";
paths = (
{
closed = 1;
nodes = (
"1017 1045 LINE",
"1017 1161 LINE",
"480 1161 LINE",
"480 1045 LINE"
);
}
);
width = 1058;
}
);
leftKerningGroup = d;
rightKerningGroup = d;
unicode = 0111;
},
{
glyphname = e;
layers = (
{
anchors = (
{
name = bottom;
position = "{512, 0}";
},
{
name = top;
position = "{552, 1119}";
}
);
layerId = "FA6D65B5-4623-4FAC-A199-3F662257AC29";
paths = (
{
closed = 1;
nodes = (
"722 -18 OFFCURVE",
"885 70 OFFCURVE",
"949 226 CURVE SMOOTH",
"957 246 LINE",
"909 287 LINE",
"897 273 LINE SMOOTH",
"830 197 OFFCURVE",
"717 160 OFFCURVE",
"617 160 CURVE SMOOTH",
"437 160 OFFCURVE",
"348 273 OFFCURVE",
"348 507 CURVE SMOOTH",
"348 720 OFFCURVE",
"421 841 OFFCURVE",
"555 841 CURVE SMOOTH",
"655 841 OFFCURVE",
"708 777 OFFCURVE",
"708 658 CURVE SMOOTH",
"708 629 OFFCURVE",
"705 604 OFFCURVE",
"701 593 CURVE",
"222 576 LINE",
"222 498 LINE",
"973 498 LINE",
"986 509 LINE",
"978 784 OFFCURVE",
"839 928 OFFCURVE",
"577 928 CURVE SMOOTH",
"271 928 OFFCURVE",
"62 730 OFFCURVE",
"62 441 CURVE SMOOTH",
"62 168 OFFCURVE",
"249 -18 OFFCURVE",
"534 -18 CURVE SMOOTH"
);
}
);
width = 1038;
},
{
anchors = (
{
name = bottom;
position = "{495, 0}";
},
{
name = top;
position = "{534, 1119}";
}
);
associatedMasterId = "FA6D65B5-4623-4FAC-A199-3F662257AC29";
layerId = "CBD44848-52BD-4DC5-BFA6-577546B7224D";
paths = (
{
closed = 1;
nodes = (
"662 -18 OFFCURVE",
"803 68 OFFCURVE",
"863 208 CURVE SMOOTH",
"873 232 LINE",
"844 249 LINE",
"823 224 LINE SMOOTH",
"763 151 OFFCURVE",
"662 108 OFFCURVE",
"550 108 CURVE SMOOTH",
"354 108 OFFCURVE",
"253 239 OFFCURVE",
"253 490 CURVE SMOOTH",
"253 735 OFFCURVE",
"351 875 OFFCURVE",
"524 875 CURVE SMOOTH",
"648 875 OFFCURVE",
"712 805 OFFCURVE",
"712 663 CURVE SMOOTH",
"712 636 OFFCURVE",
"710 606 OFFCURVE",
"706 593 CURVE",
"219 576 LINE",
"219 529 LINE",
"880 529 LINE",
"892 540 LINE",
"887 794 OFFCURVE",
"765 928 OFFCURVE",
"540 928 CURVE SMOOTH",
"267 928 OFFCURVE",
"81 730 OFFCURVE",
"81 441 CURVE SMOOTH",
"81 168 OFFCURVE",
"247 -18 OFFCURVE",
"493 -18 CURVE SMOOTH"
);
}
);
width = 963;
},
{
anchors = (
{
name = bottom;
position = "{497, 0}";
},
{
name = top;
position = "{537, 1119}";
}
);
layerId = "7C8D72FA-6E62-4564-8BB2-D9F9BC4EB15A";
paths = (
{
closed = 1;
nodes = (
"670 -18 OFFCURVE",
"814 69 OFFCURVE",
"875 210 CURVE SMOOTH",
"884 234 LINE",
"852 254 LINE",
"833 230 LINE SMOOTH",
"772 157 OFFCURVE",
"669 115 OFFCURVE",
"559 115 CURVE SMOOTH",
"365 115 OFFCURVE",
"266 244 OFFCURVE",
"266 492 CURVE SMOOTH",
"266 733 OFFCURVE",
"360 870 OFFCURVE",
"528 870 CURVE SMOOTH",
"649 870 OFFCURVE",
"711 801 OFFCURVE",
"711 662 CURVE SMOOTH",
"711 635 OFFCURVE",
"709 606 OFFCURVE",
"705 593 CURVE",
"219 576 LINE",
"219 525 LINE",
"892 525 LINE",
"904 536 LINE",
"899 793 OFFCURVE",
"775 928 OFFCURVE",
"545 928 CURVE SMOOTH",
"267 928 OFFCURVE",
"78 730 OFFCURVE",
"78 441 CURVE SMOOTH",
"78 168 OFFCURVE",
"247 -18 OFFCURVE",
"499 -18 CURVE SMOOTH"
);
}
);
width = 973;
}
);
leftKerningGroup = e;
rightKerningGroup = e;
unicode = 0065;
},
{
glyphname = schwa;
layers = (
{
layerId = "FA6D65B5-4623-4FAC-A199-3F662257AC29";
paths = (
{
closed = 1;
nodes = (
"765 -18 OFFCURVE",
"975 181 OFFCURVE",
"975 469 CURVE SMOOTH",
"975 742 OFFCURVE",
"787 928 OFFCURVE",
"502 928 CURVE SMOOTH",
"314 928 OFFCURVE",
"151 841 OFFCURVE",
"88 686 CURVE SMOOTH",
"79 665 LINE",
"127 624 LINE",
"140 638 LINE SMOOTH",
"206 713 OFFCURVE",
"319 751 OFFCURVE",
"419 751 CURVE SMOOTH",
"600 751 OFFCURVE",
"689 638 OFFCURVE",
"689 404 CURVE SMOOTH",
"689 190 OFFCURVE",
"615 70 OFFCURVE",
"481 70 CURVE SMOOTH",
"382 70 OFFCURVE",
"328 134 OFFCURVE",
"328 253 CURVE SMOOTH",
"328 282 OFFCURVE",
"332 308 OFFCURVE",
"335 318 CURVE",
"814 335 LINE",
"814 412 LINE",
"63 412 LINE",
"50 402 LINE",
"59 127 OFFCURVE",
"197 -18 OFFCURVE",
"459 -18 CURVE SMOOTH"
);
}
);
width = 1036;
},
{
associatedMasterId = "FA6D65B5-4623-4FAC-A199-3F662257AC29";
layerId = "CBD44848-52BD-4DC5-BFA6-577546B7224D";
paths = (
{
closed = 1;
nodes = (
"696 -18 OFFCURVE",
"882 181 OFFCURVE",
"882 469 CURVE SMOOTH",
"882 742 OFFCURVE",
"715 928 OFFCURVE",
"469 928 CURVE SMOOTH",
"301 928 OFFCURVE",
"160 842 OFFCURVE",
"100 703 CURVE SMOOTH",
"90 679 LINE",
"118 662 LINE",
"140 688 LINE SMOOTH",
"199 760 OFFCURVE",
"301 803 OFFCURVE",
"412 803 CURVE SMOOTH",
"608 803 OFFCURVE",
"710 672 OFFCURVE",
"710 421 CURVE SMOOTH",
"710 176 OFFCURVE",
"612 36 OFFCURVE",
"438 36 CURVE SMOOTH",
"314 36 OFFCURVE",
"251 106 OFFCURVE",
"251 247 CURVE SMOOTH",
"251 275 OFFCURVE",
"253 305 OFFCURVE",
"256 318 CURVE",
"744 335 LINE",
"744 382 LINE",
"82 382 LINE",
"70 371 LINE",
"75 117 OFFCURVE",
"197 -18 OFFCURVE",
"423 -18 CURVE SMOOTH"
);
}
);
width = 963;
},
{
layerId = "7C8D72FA-6E62-4564-8BB2-D9F9BC4EB15A";
paths = (
{
closed = 1;
nodes = (
"705 -18 OFFCURVE",
"894 181 OFFCURVE",
"894 469 CURVE SMOOTH",
"894 742 OFFCURVE",
"724 928 OFFCURVE",
"473 928 CURVE SMOOTH",
"303 928 OFFCURVE",
"159 842 OFFCURVE",
"98 701 CURVE SMOOTH",
"88 677 LINE",
"119 657 LINE",
"140 681 LINE SMOOTH",
"200 754 OFFCURVE",
"303 796 OFFCURVE",
"413 796 CURVE SMOOTH",
"607 796 OFFCURVE",
"707 667 OFFCURVE",
"707 419 CURVE SMOOTH",
"707 178 OFFCURVE",
"613 41 OFFCURVE",
"444 41 CURVE SMOOTH",
"323 41 OFFCURVE",
"261 110 OFFCURVE",
"261 248 CURVE SMOOTH",
"261 276 OFFCURVE",
"263 305 OFFCURVE",
"266 318 CURVE",
"754 335 LINE",
"754 386 LINE",
"80 386 LINE",
"68 375 LINE",
"73 118 OFFCURVE",
"197 -18 OFFCURVE",
"428 -18 CURVE SMOOTH"
);
}
);
width = 973;
}
);
rightKerningGroup = o;
unicode = 0259;
},
{
glyphname = f;
layers = (
{
layerId = "FA6D65B5-4623-4FAC-A199-3F662257AC29";
paths = (
{
closed = 1;
nodes = (
"677 0 LINE",
"677 61 LINE",
"466 95 LINE",
"466 1006 LINE SMOOTH",
"466 1122 OFFCURVE",
"468 1207 OFFCURVE",
"486 1260 CURVE SMOOTH",
"505 1314 OFFCURVE",
"550 1339 OFFCURVE",
"600 1339 CURVE SMOOTH",
"653 1339 OFFCURVE",
"677 1314 OFFCURVE",
"694 1250 CURVE SMOOTH",
"712 1183 OFFCURVE",
"755 1145 OFFCURVE",
"814 1145 CURVE SMOOTH",
"885 1145 OFFCURVE",
"934 1191 OFFCURVE",
"934 1258 CURVE SMOOTH",
"934 1359 OFFCURVE",
"813 1427 OFFCURVE",
"633 1427 CURVE SMOOTH",
"443 1427 OFFCURVE",
"283 1341 OFFCURVE",
"229 1208 CURVE SMOOTH",
"204 1153 OFFCURVE",
"199 1093 OFFCURVE",
"199 887 CURVE SMOOTH",
"199 95 LINE",
"54 61 LINE",
"54 0 LINE"
);
},
{
closed = 1;
nodes = (
"674 830 LINE",
"698 911 LINE",
"48 911 LINE",
"24 830 LINE"
);
}
);
width = 726;
},
{
associatedMasterId = "FA6D65B5-4623-4FAC-A199-3F662257AC29";
layerId = "CBD44848-52BD-4DC5-BFA6-577546B7224D";
paths = (
{
closed = 1;
nodes = (
"536 0 LINE",
"536 32 LINE",
"354 59 LINE",
"354 1006 LINE SMOOTH",
"354 1153 OFFCURVE",
"366 1237 OFFCURVE",
"391 1289 CURVE SMOOTH",
"418 1350 OFFCURVE",
"466 1373 OFFCURVE",
"518 1373 CURVE SMOOTH",
"572 1373 OFFCURVE",
"591 1346 OFFCURVE",
"604 1284 CURVE SMOOTH",
"612 1241 OFFCURVE",
"631 1196 OFFCURVE",
"688 1196 CURVE SMOOTH",
"737 1196 OFFCURVE",
"771 1230 OFFCURVE",
"771 1280 CURVE SMOOTH",
"771 1364 OFFCURVE",
"674 1427 OFFCURVE",
"550 1427 CURVE SMOOTH",
"405 1427 OFFCURVE",
"263 1343 OFFCURVE",
"217 1215 CURVE SMOOTH",
"194 1153 OFFCURVE",
"190 1070 OFFCURVE",
"190 887 CURVE SMOOTH",
"190 59 LINE",
"62 32 LINE",
"62 0 LINE"
);
},
{
closed = 1;
nodes = (
"555 855 LINE",
"576 911 LINE",
"61 911 LINE",
"39 855 LINE"
);
}
);
width = 604;
},
{
layerId = "7C8D72FA-6E62-4564-8BB2-D9F9BC4EB15A";
paths = (
{
closed = 1;
nodes = (
"555 0 LINE",
"555 36 LINE",
"369 63 LINE",
"369 1006 LINE SMOOTH",
"369 1149 OFFCURVE",
"380 1233 OFFCURVE",
"403 1285 CURVE SMOOTH",
"430 1345 OFFCURVE",
"477 1368 OFFCURVE",
"529 1368 CURVE SMOOTH",
"583 1368 OFFCURVE",
"602 1342 OFFCURVE",
"616 1280 CURVE SMOOTH",
"626 1233 OFFCURVE",
"647 1189 OFFCURVE",
"704 1189 CURVE SMOOTH",
"757 1189 OFFCURVE",
"793 1225 OFFCURVE",
"793 1277 CURVE SMOOTH",
"793 1364 OFFCURVE",
"692 1427 OFFCURVE",
"561 1427 CURVE SMOOTH",
"410 1427 OFFCURVE",
"265 1343 OFFCURVE",
"218 1214 CURVE SMOOTH",
"196 1153 OFFCURVE",
"192 1073 OFFCURVE",
"192 887 CURVE SMOOTH",
"192 63 LINE",
"60 36 LINE",
"60 0 LINE"
);
},
{
closed = 1;
nodes = (
"571 852 LINE",
"592 911 LINE",
"59 911 LINE",
"37 852 LINE"
);
}
);
width = 620;
}
);
leftKerningGroup = f;
rightKerningGroup = f;
unicode = 0066;
},
{
glyphname = g;
layers = (
{
anchors = (
{
name = top;
position = "{497, 1119}";
}
);
layerId = "FA6D65B5-4623-4FAC-A199-3F662257AC29";
paths = (
{
closed = 1;
nodes = (
"554 -445 OFFCURVE",
"729 -416 OFFCURVE",
"839 -339 CURVE SMOOTH",
"909 -289 OFFCURVE",
"947 -226 OFFCURVE",
"947 -133 CURVE SMOOTH",
"947 -47 OFFCURVE",
"914 63 OFFCURVE",
"688 115 CURVE SMOOTH",
"548 146 OFFCURVE",
"299 165 OFFCURVE",
"299 244 CURVE SMOOTH",
"299 282 OFFCURVE",
"355 321 OFFCURVE",
"490 335 CURVE SMOOTH",
"724 359 OFFCURVE",
"878 488 OFFCURVE",
"878 636 CURVE SMOOTH",
"878 713 OFFCURVE",
"835 789 OFFCURVE",
"762 842 CURVE",
"775 875 OFFCURVE",
"799 902 OFFCURVE",
"835 902 CURVE SMOOTH",
"880 902 OFFCURVE",
"889 857 OFFCURVE",
"947 857 CURVE SMOOTH",
"1009 857 OFFCURVE",
"1043 907 OFFCURVE",
"1043 957 CURVE SMOOTH",
"1043 1020 OFFCURVE",
"990 1059 OFFCURVE",
"920 1059 CURVE SMOOTH",
"812 1059 OFFCURVE",
"742 964 OFFCURVE",
"703 878 CURVE",
"641 909 OFFCURVE",
"565 928 OFFCURVE",
"481 928 CURVE SMOOTH",
"260 928 OFFCURVE",
"93 803 OFFCURVE",
"93 633 CURVE SMOOTH",
"93 490 OFFCURVE",
"211 387 OFFCURVE",
"362 353 CURVE",
"165 285 OFFCURVE",
"98 240 OFFCURVE",
"98 145 CURVE SMOOTH",
"98 67 OFFCURVE",
"143 25 OFFCURVE",
"208 -4 CURVE",
"55 -68 OFFCURVE",
"-5 -136 OFFCURVE",
"-5 -222 CURVE SMOOTH",
"-5 -303 OFFCURVE",
"47 -353 OFFCURVE",
"108 -385 CURVE SMOOTH",
"203 -435 OFFCURVE",
"325 -445 OFFCURVE",
"411 -445 CURVE SMOOTH"
);
},
{
closed = 1;
nodes = (
"389 -357 OFFCURVE",
"326 -344 OFFCURVE",
"280 -319 CURVE SMOOTH",
"227 -292 OFFCURVE",
"199 -254 OFFCURVE",
"199 -197 CURVE SMOOTH",
"199 -136 OFFCURVE",
"232 -74 OFFCURVE",
"289 -34 CURVE",
"366 -54 OFFCURVE",
"435 -68 OFFCURVE",
"520 -88 CURVE SMOOTH",
"677 -124 OFFCURVE",
"751 -149 OFFCURVE",
"751 -217 CURVE SMOOTH",
"751 -267 OFFCURVE",
"712 -299 OFFCURVE",
"660 -321 CURVE SMOOTH",
"598 -348 OFFCURVE",
"520 -357 OFFCURVE",
"459 -357 CURVE SMOOTH"
);
},
{
closed = 1;
nodes = (
"387 411 OFFCURVE",
"366 536 OFFCURVE",
"366 619 CURVE SMOOTH",
"366 708 OFFCURVE",
"391 854 OFFCURVE",
"491 854 CURVE SMOOTH",
"588 854 OFFCURVE",
"606 722 OFFCURVE",
"606 640 CURVE SMOOTH",
"606 540 OFFCURVE",
"579 411 OFFCURVE",
"483 411 CURVE SMOOTH"
);
}
);
width = 1004;
},
{
anchors = (
{
name = top;
position = "{445, 1119}";
}
);
associatedMasterId = "FA6D65B5-4623-4FAC-A199-3F662257AC29";
layerId = "CBD44848-52BD-4DC5-BFA6-577546B7224D";
paths = (
{
closed = 1;
nodes = (
"500 -447 OFFCURVE",
"649 -414 OFFCURVE",
"746 -337 CURVE SMOOTH",
"803 -290 OFFCURVE",
"841 -229 OFFCURVE",
"841 -141 CURVE SMOOTH",
"841 -63 OFFCURVE",
"812 36 OFFCURVE",
"622 79 CURVE SMOOTH",
"504 106 OFFCURVE",
"253 127 OFFCURVE",
"253 222 CURVE SMOOTH",
"253 280 OFFCURVE",
"351 323 OFFCURVE",
"438 330 CURVE SMOOTH",
"641 346 OFFCURVE",
"780 483 OFFCURVE",
"780 634 CURVE SMOOTH",
"780 715 OFFCURVE",
"741 794 OFFCURVE",
"674 849 CURVE",
"686 896 OFFCURVE",
"712 937 OFFCURVE",
"739 937 CURVE SMOOTH",
"782 937 OFFCURVE",
"777 892 OFFCURVE",
"827 892 CURVE SMOOTH",
"871 892 OFFCURVE",
"907 927 OFFCURVE",
"907 973 CURVE SMOOTH",
"907 1026 OFFCURVE",
"859 1059 OFFCURVE",
"808 1059 CURVE SMOOTH",
"719 1059 OFFCURVE",
"665 956 OFFCURVE",
"638 873 CURVE",
"583 907 OFFCURVE",
"514 928 OFFCURVE",
"437 928 CURVE SMOOTH",
"247 928 OFFCURVE",
"104 805 OFFCURVE",
"104 634 CURVE SMOOTH",
"104 491 OFFCURVE",
"203 389 OFFCURVE",
"335 353 CURVE",
"146 292 OFFCURVE",
"108 203 OFFCURVE",
"108 147 CURVE SMOOTH",
"108 91 OFFCURVE",
"147 41 OFFCURVE",
"226 7 CURVE",
"68 -61 OFFCURVE",
"12 -131 OFFCURVE",
"12 -222 CURVE SMOOTH",
"12 -297 OFFCURVE",
"52 -351 OFFCURVE",
"111 -387 CURVE SMOOTH",
"188 -432 OFFCURVE",
"296 -447 OFFCURVE",
"378 -447 CURVE SMOOTH"
);
},
{
closed = 1;
nodes = (
"339 -392 OFFCURVE",
"276 -376 OFFCURVE",
"230 -346 CURVE SMOOTH",
"181 -313 OFFCURVE",
"151 -263 OFFCURVE",
"151 -201 CURVE SMOOTH",
"151 -122 OFFCURVE",
"201 -47 OFFCURVE",
"282 -11 CURVE",
"328 -24 OFFCURVE",
"389 -38 OFFCURVE",
"448 -50 CURVE SMOOTH",
"649 -90 OFFCURVE",
"708 -125 OFFCURVE",
"708 -206 CURVE SMOOTH",
"708 -273 OFFCURVE",
"669 -321 OFFCURVE",
"608 -351 CURVE SMOOTH",
"554 -378 OFFCURVE",
"479 -392 OFFCURVE",
"411 -392 CURVE SMOOTH"
);
},
{
closed = 1;
nodes = (
"308 385 OFFCURVE",
"280 527 OFFCURVE",
"280 620 CURVE SMOOTH",
"280 717 OFFCURVE",
"310 880 OFFCURVE",
"447 880 CURVE SMOOTH",
"579 880 OFFCURVE",
"605 730 OFFCURVE",
"605 638 CURVE SMOOTH",
"605 526 OFFCURVE",
"569 385 OFFCURVE",
"438 385 CURVE SMOOTH"
);
}
);
width = 884;
},
{
anchors = (
{
name = top;
position = "{452, 1119}";
}
);
layerId = "7C8D72FA-6E62-4564-8BB2-D9F9BC4EB15A";
paths = (
{
closed = 1;
nodes = (
"507 -447 OFFCURVE",
"660 -414 OFFCURVE",
"758 -337 CURVE SMOOTH",
"817 -290 OFFCURVE",
"855 -228 OFFCURVE",
"855 -140 CURVE SMOOTH",
"855 -61 OFFCURVE",
"825 40 OFFCURVE",
"631 84 CURVE SMOOTH",
"510 112 OFFCURVE",
"259 132 OFFCURVE",
"259 225 CURVE SMOOTH",
"259 281 OFFCURVE",
"351 323 OFFCURVE",
"445 331 CURVE SMOOTH",
"652 348 OFFCURVE",
"793 484 OFFCURVE",
"793 634 CURVE SMOOTH",
"793 715 OFFCURVE",
"754 793 OFFCURVE",
"686 848 CURVE",
"698 893 OFFCURVE",
"724 932 OFFCURVE",
"752 932 CURVE SMOOTH",
"795 932 OFFCURVE",
"792 887 OFFCURVE",
"843 887 CURVE SMOOTH",
"889 887 OFFCURVE",
"925 924 OFFCURVE",
"925 971 CURVE SMOOTH",
"925 1025 OFFCURVE",
"877 1059 OFFCURVE",
"823 1059 CURVE SMOOTH",
"731 1059 OFFCURVE",
"675 957 OFFCURVE",
"646 874 CURVE",
"591 907 OFFCURVE",
"521 928 OFFCURVE",
"443 928 CURVE SMOOTH",
"249 928 OFFCURVE",
"102 804 OFFCURVE",
"102 634 CURVE SMOOTH",
"102 491 OFFCURVE",
"204 388 OFFCURVE",
"339 353 CURVE",
"149 291 OFFCURVE",
"107 208 OFFCURVE",
"107 147 CURVE SMOOTH",
"107 88 OFFCURVE",
"147 39 OFFCURVE",
"223 5 CURVE",
"67 -62 OFFCURVE",
"10 -132 OFFCURVE",
"10 -222 CURVE SMOOTH",
"10 -298 OFFCURVE",
"51 -351 OFFCURVE",
"111 -386 CURVE SMOOTH",
"190 -432 OFFCURVE",
"300 -447 OFFCURVE",
"382 -447 CURVE SMOOTH"
);
},
{
closed = 1;
nodes = (
"346 -387 OFFCURVE",
"283 -372 OFFCURVE",
"237 -342 CURVE SMOOTH",
"187 -310 OFFCURVE",
"158 -262 OFFCURVE",
"158 -201 CURVE SMOOTH",
"158 -124 OFFCURVE",
"205 -51 OFFCURVE",
"283 -14 CURVE",
"333 -28 OFFCURVE",
"395 -42 OFFCURVE",
"458 -55 CURVE SMOOTH",
"653 -94 OFFCURVE",
"714 -128 OFFCURVE",
"714 -207 CURVE SMOOTH",
"714 -273 OFFCURVE",
"675 -318 OFFCURVE",
"615 -347 CURVE SMOOTH",
"560 -374 OFFCURVE",
"485 -387 OFFCURVE",
"418 -387 CURVE SMOOTH"
);
},
{
closed = 1;
nodes = (
"318 388 OFFCURVE",
"292 529 OFFCURVE",
"292 620 CURVE SMOOTH",
"292 716 OFFCURVE",
"320 876 OFFCURVE",
"453 876 CURVE SMOOTH",
"580 876 OFFCURVE",
"606 729 OFFCURVE",
"606 638 CURVE SMOOTH",
"606 528 OFFCURVE",
"571 388 OFFCURVE",
"444 388 CURVE SMOOTH"
);
}
);
width = 900;
}
);
leftKerningGroup = g;
rightKerningGroup = g;
unicode = 0067;
},
{
glyphname = gcommaaccent;
layers = (
{
components = (
{
name = g;
}
);
layerId = "FA6D65B5-4623-4FAC-A199-3F662257AC29";
paths = (
{
closed = 1;
nodes = (
"574 1119 OFFCURVE",
"622 1158 OFFCURVE",
"622 1210 CURVE SMOOTH",
"622 1284 OFFCURVE",
"541 1285 OFFCURVE",
"541 1336 CURVE SMOOTH",
"541 1361 OFFCURVE",
"565 1402 OFFCURVE",
"600 1436 CURVE",
"561 1479 LINE",
"452 1430 OFFCURVE",
"391 1350 OFFCURVE",
"391 1253 CURVE SMOOTH",
"391 1171 OFFCURVE",
"435 1119 OFFCURVE",
"507 1119 CURVE SMOOTH"
);
}
);
width = 1004;
},
{
associatedMasterId = "FA6D65B5-4623-4FAC-A199-3F662257AC29";
components = (
{
name = g;
}
);
layerId = "CBD44848-52BD-4DC5-BFA6-577546B7224D";
paths = (
{
closed = 1;
nodes = (
"514 1119 OFFCURVE",
"555 1156 OFFCURVE",
"555 1207 CURVE SMOOTH",
"555 1287 OFFCURVE",
"471 1273 OFFCURVE",
"471 1336 CURVE SMOOTH",
"471 1357 OFFCURVE",
"502 1396 OFFCURVE",
"545 1425 CURVE",
"518 1466 LINE",
"418 1407 OFFCURVE",
"366 1330 OFFCURVE",
"366 1232 CURVE SMOOTH",
"366 1171 OFFCURVE",
"404 1119 OFFCURVE",
"459 1119 CURVE SMOOTH"
);
}
);
width = 884;
},
{
components = (
{
alignment = -1;
name = g;
}
);
layerId = "7C8D72FA-6E62-4564-8BB2-D9F9BC4EB15A";
paths = (
{
closed = 1;
nodes = (
"522 1119 OFFCURVE",
"564 1157 OFFCURVE",
"564 1207 CURVE SMOOTH",
"564 1287 OFFCURVE",
"480 1275 OFFCURVE",
"480 1336 CURVE SMOOTH",
"480 1358 OFFCURVE",
"510 1396 OFFCURVE",
"552 1426 CURVE",
"523 1468 LINE",
"423 1410 OFFCURVE",
"369 1333 OFFCURVE",
"369 1235 CURVE SMOOTH",
"369 1171 OFFCURVE",
"408 1119 OFFCURVE",
"465 1119 CURVE SMOOTH"
);
}
);
width = 900;
}
);
leftKerningGroup = g;
rightKerningGroup = g;
unicode = 0123;
},
{
glyphname = h;
layers = (
{
anchors = (
{
name = bottom;
position = "{586, 0}";
},
{
name = top;
position = "{776, 1119}";
}
);
layerId = "FA6D65B5-4623-4FAC-A199-3F662257AC29";
paths = (
{
closed = 1;
nodes = (
"548 0 LINE",
"548 61 LINE",
"428 95 LINE",
"428 1427 LINE",
"391 1427 LINE",
"31 1343 LINE",
"31 1303 LINE",
"161 1255 LINE",
"161 95 LINE",
"32 61 LINE",
"32 0 LINE"
);
},
{
closed = 1;
nodes = (
"1140 0 LINE",
"1140 61 LINE",
"1011 95 LINE",
"1011 547 LINE SMOOTH",
"1011 705 OFFCURVE",
"1006 748 OFFCURVE",
"984 791 CURVE SMOOTH",
"940 882 OFFCURVE",
"855 928 OFFCURVE",
"741 928 CURVE SMOOTH",
"622 928 OFFCURVE",
"486 878 OFFCURVE",
"407 806 CURVE",
"407 698 LINE",
"454 755 OFFCURVE",
"505 780 OFFCURVE",
"574 780 CURVE SMOOTH",
"653 780 OFFCURVE",
"699 746 OFFCURVE",
"727 686 CURVE SMOOTH",
"742 651 OFFCURVE",
"744 602 OFFCURVE",
"744 479 CURVE SMOOTH",
"744 95 LINE",
"624 61 LINE",
"624 0 LINE"
);
}
);
width = 1171;
},
{
anchors = (
{
name = bottom;
position = "{538, 0}";
},
{
name = top;
position = "{669, 1119}";
}
);
associatedMasterId = "FA6D65B5-4623-4FAC-A199-3F662257AC29";
layerId = "CBD44848-52BD-4DC5-BFA6-577546B7224D";
paths = (
{
closed = 1;
nodes = (
"462 0 LINE",
"462 34 LINE",
"333 61 LINE",
"333 1427 LINE",
"316 1427 LINE",
"43 1344 LINE",
"43 1320 LINE",
"170 1273 LINE",
"170 61 LINE",
"39 34 LINE",
"39 0 LINE"
);
},
{
closed = 1;
nodes = (
"1027 0 LINE",
"1027 34 LINE",
"898 59 LINE",
"898 581 LINE SMOOTH",
"898 746 OFFCURVE",
"896 789 OFFCURVE",
"877 825 CURVE SMOOTH",
"844 889 OFFCURVE",
"769 928 OFFCURVE",
"677 928 CURVE SMOOTH",
"557 928 OFFCURVE",
"426 871 OFFCURVE",
"318 771 CURVE",
"318 705 LINE",
"387 787 OFFCURVE",
"479 834 OFFCURVE",
"581 834 CURVE SMOOTH",
"649 834 OFFCURVE",
"692 808 OFFCURVE",
"715 755 CURVE SMOOTH",
"730 717 OFFCURVE",
"735 662 OFFCURVE",
"735 563 CURVE SMOOTH",
"735 59 LINE",
"606 34 LINE",
"606 0 LINE"
);
}
);
width = 1063;
},
{
anchors = (
{
name = bottom;
position = "{544, 0}";
},
{
name = top;
position = "{683, 1119}";
}
);
layerId = "7C8D72FA-6E62-4564-8BB2-D9F9BC4EB15A";
paths = (
{
closed = 1;
nodes = (
"473 0 LINE",
"473 38 LINE",
"346 65 LINE",
"346 1427 LINE",
"326 1427 LINE",
"41 1344 LINE",
"41 1318 LINE",
"169 1271 LINE",
"169 65 LINE",
"38 38 LINE",
"38 0 LINE"
);
},
{
closed = 1;
nodes = (
"1042 0 LINE",
"1042 38 LINE",
"913 63 LINE",
"913 576 LINE SMOOTH",
"913 741 OFFCURVE",
"910 784 OFFCURVE",
"891 821 CURVE SMOOTH",
"857 888 OFFCURVE",
"780 928 OFFCURVE",
"685 928 CURVE SMOOTH",
"565 928 OFFCURVE",
"434 872 OFFCURVE",
"330 776 CURVE",
"330 704 LINE",
"396 783 OFFCURVE",
"483 827 OFFCURVE",
"580 827 CURVE SMOOTH",
"650 827 OFFCURVE",
"693 799 OFFCURVE",
"716 746 CURVE SMOOTH",
"732 708 OFFCURVE",
"737 654 OFFCURVE",
"737 552 CURVE SMOOTH",
"737 63 LINE",
"609 38 LINE",
"609 0 LINE"
);
}
);
width = 1078;
}
);
leftKerningGroup = h;
rightKerningGroup = n;
unicode = 0068;
},
{
glyphname = hbar;
layers = (
{
components = (
{
name = h;
}
);
layerId = "FA6D65B5-4623-4FAC-A199-3F662257AC29";
paths = (
{
closed = 1;
nodes = (
"656 1029 LINE",
"656 1176 LINE",
"61 1176 LINE",
"61 1029 LINE"
);
}
);
width = 1171;
},
{
associatedMasterId = "FA6D65B5-4623-4FAC-A199-3F662257AC29";
components = (
{
name = h;
}
);
layerId = "CBD44848-52BD-4DC5-BFA6-577546B7224D";
paths = (
{
closed = 1;
nodes = (
"570 1047 LINE",
"570 1158 LINE",
"43 1158 LINE",
"43 1047 LINE"
);
}
);
width = 1063;
},
{
components = (
{
alignment = -1;
name = h;
}
);
layerId = "7C8D72FA-6E62-4564-8BB2-D9F9BC4EB15A";
paths = (
{
closed = 1;
nodes = (
"582 1045 LINE",
"582 1161 LINE",
"45 1161 LINE",
"45 1045 LINE"
);
}
);
width = 1078;
}
);
leftKerningGroup = h;
rightKerningGroup = n;
unicode = 0127;
},
{
glyphname = i;
layers = (
{
anchors = (
{
name = bottom;
position = "{325, 0}";
}
);
layerId = "FA6D65B5-4623-4FAC-A199-3F662257AC29";
paths = (
{
closed = 1;
nodes = (
"591 0 LINE",
"591 61 LINE",
"454 95 LINE",
"454 928 LINE",
"418 928 LINE",
"41 846 LINE",
"41 805 LINE",
"188 758 LINE",
"188 95 LINE",
"41 61 LINE",
"41 0 LINE"
);
},
{
closed = 1;
nodes = (
"419 1057 OFFCURVE",
"471 1128 OFFCURVE",
"471 1198 CURVE SMOOTH",
"471 1273 OFFCURVE",
"412 1341 OFFCURVE",
"318 1341 CURVE SMOOTH",
"226 1341 OFFCURVE",
"170 1273 OFFCURVE",
"170 1198 CURVE SMOOTH",
"170 1128 OFFCURVE",
"222 1057 OFFCURVE",
"318 1057 CURVE SMOOTH"
);
}
);
width = 619;
},
{
anchors = (
{
name = bottom;
position = "{265, 0}";
}
);
associatedMasterId = "FA6D65B5-4623-4FAC-A199-3F662257AC29";
layerId = "CBD44848-52BD-4DC5-BFA6-577546B7224D";
paths = (
{
closed = 1;
nodes = (
"477 0 LINE",
"477 34 LINE",
"348 61 LINE",
"348 928 LINE",
"332 928 LINE",
"57 846 LINE",
"57 821 LINE",
"184 775 LINE",
"184 61 LINE",
"54 34 LINE",
"54 0 LINE"
);
},
{
closed = 1;
nodes = (
"333 1119 OFFCURVE",
"376 1169 OFFCURVE",
"376 1229 CURVE SMOOTH",
"376 1293 OFFCURVE",
"333 1341 OFFCURVE",
"265 1341 CURVE SMOOTH",
"197 1341 OFFCURVE",
"154 1293 OFFCURVE",
"154 1229 CURVE SMOOTH",
"154 1169 OFFCURVE",
"197 1119 OFFCURVE",
"265 1119 CURVE SMOOTH"
);
}
);
width = 516;
},
{
anchors = (
{
name = bottom;
position = "{273, 0}";
}
);
layerId = "7C8D72FA-6E62-4564-8BB2-D9F9BC4EB15A";
paths = (
{
closed = 1;
nodes = (
"492 0 LINE",
"492 38 LINE",
"362 65 LINE",
"362 928 LINE",
"343 928 LINE",
"55 846 LINE",
"55 819 LINE",
"184 773 LINE",
"184 65 LINE",
"52 38 LINE",
"52 0 LINE"
);
},
{
closed = 1;
nodes = (
"344 1111 OFFCURVE",
"389 1163 OFFCURVE",
"389 1224 CURVE SMOOTH",
"389 1290 OFFCURVE",
"344 1341 OFFCURVE",
"272 1341 CURVE SMOOTH",
"201 1341 OFFCURVE",
"156 1290 OFFCURVE",
"156 1224 CURVE SMOOTH",
"156 1163 OFFCURVE",
"201 1111 OFFCURVE",
"272 1111 CURVE SMOOTH"
);
}
);
width = 529;
}
);
leftKerningGroup = i;
rightKerningGroup = i;
unicode = 0069;
},
{
glyphname = dotlessi;
layers = (
{
anchors = (
{
name = top;
position = "{309, 1119}";
}
);
layerId = "FA6D65B5-4623-4FAC-A199-3F662257AC29";
paths = (
{
closed = 1;
nodes = (
"591 0 LINE",
"591 61 LINE",
"454 95 LINE",
"454 928 LINE",
"418 928 LINE",
"41 846 LINE",
"41 805 LINE",
"188 758 LINE",
"188 95 LINE",
"41 61 LINE",
"41 0 LINE"
);
}
);
width = 619;
},
{
anchors = (
{
name = top;
position = "{265, 1119}";
}
);
associatedMasterId = "FA6D65B5-4623-4FAC-A199-3F662257AC29";
layerId = "CBD44848-52BD-4DC5-BFA6-577546B7224D";
paths = (
{
closed = 1;
nodes = (
"477 0 LINE",
"477 34 LINE",
"348 61 LINE",
"348 928 LINE",
"332 928 LINE",
"57 846 LINE",
"57 821 LINE",
"184 775 LINE",
"184 61 LINE",
"54 34 LINE",
"54 0 LINE"
);
}
);
width = 516;
},
{
anchors = (
{
name = top;
position = "{271, 1119}";
}
);
layerId = "7C8D72FA-6E62-4564-8BB2-D9F9BC4EB15A";
paths = (
{
closed = 1;
nodes = (
"492 0 LINE",
"492 38 LINE",
"362 65 LINE",
"362 928 LINE",
"343 928 LINE",
"55 846 LINE",
"55 819 LINE",
"184 773 LINE",
"184 65 LINE",
"52 38 LINE",
"52 0 LINE"
);
}
);
width = 529;
}
);
leftKerningGroup = i;
rightKerningGroup = i;
unicode = 0131;
},
{
glyphname = j;
layers = (
{
layerId = "FA6D65B5-4623-4FAC-A199-3F662257AC29";
paths = (
{
closed = 1;
nodes = (
"170 -447 OFFCURVE",
"280 -387 OFFCURVE",
"359 -251 CURVE SMOOTH",
"414 -156 OFFCURVE",
"432 -68 OFFCURVE",
"432 118 CURVE SMOOTH",
"432 928 LINE",
"396 928 LINE",
"19 846 LINE",
"19 805 LINE",
"165 758 LINE",
"165 -82 LINE",
"165 -269 OFFCURVE",
"124 -357 OFFCURVE",
"41 -357 CURVE SMOOTH",
"-7 -357 OFFCURVE",
"-34 -330 OFFCURVE",
"-74 -247 CURVE SMOOTH",
"-104 -186 OFFCURVE",
"-134 -165 OFFCURVE",
"-188 -165 CURVE SMOOTH",
"-258 -165 OFFCURVE",
"-303 -206 OFFCURVE",
"-303 -271 CURVE SMOOTH",
"-303 -376 OFFCURVE",
"-181 -447 OFFCURVE",
"2 -447 CURVE SMOOTH"
);
},
{
closed = 1;
nodes = (
"397 1057 OFFCURVE",
"448 1128 OFFCURVE",
"448 1198 CURVE SMOOTH",
"448 1273 OFFCURVE",
"391 1341 OFFCURVE",
"296 1341 CURVE SMOOTH",
"203 1341 OFFCURVE",
"147 1273 OFFCURVE",
"147 1198 CURVE SMOOTH",
"147 1128 OFFCURVE",
"199 1057 OFFCURVE",
"296 1057 CURVE SMOOTH"
);
}
);
width = 567;
},
{
associatedMasterId = "FA6D65B5-4623-4FAC-A199-3F662257AC29";
layerId = "CBD44848-52BD-4DC5-BFA6-577546B7224D";
paths = (
{
closed = 1;
nodes = (
"81 -447 OFFCURVE",
"197 -369 OFFCURVE",
"276 -226 CURVE SMOOTH",
"326 -134 OFFCURVE",
"333 -70 OFFCURVE",
"333 267 CURVE SMOOTH",
"333 928 LINE",
"318 928 LINE",
"43 846 LINE",
"43 821 LINE",
"170 775 LINE",
"170 -82 LINE SMOOTH",
"170 -273 OFFCURVE",
"124 -366 OFFCURVE",
"27 -366 CURVE SMOOTH",
"-16 -366 OFFCURVE",
"-34 -348 OFFCURVE",
"-59 -282 CURVE SMOOTH",
"-77 -230 OFFCURVE",
"-104 -203 OFFCURVE",
"-153 -203 CURVE SMOOTH",
"-210 -203 OFFCURVE",
"-246 -242 OFFCURVE",
"-246 -306 CURVE SMOOTH",
"-246 -394 OFFCURVE",
"-174 -447 OFFCURVE",
"-57 -447 CURVE SMOOTH"
);
},
{
closed = 1;
nodes = (
"316 1119 OFFCURVE",
"362 1165 OFFCURVE",
"362 1230 CURVE SMOOTH",
"362 1294 OFFCURVE",
"316 1341 OFFCURVE",
"251 1341 CURVE SMOOTH",
"186 1341 OFFCURVE",
"141 1294 OFFCURVE",
"141 1230 CURVE SMOOTH",
"141 1165 OFFCURVE",
"186 1119 OFFCURVE",
"251 1119 CURVE SMOOTH"
);
}
);
width = 481;
},
{
layerId = "7C8D72FA-6E62-4564-8BB2-D9F9BC4EB15A";
paths = (
{
closed = 1;
nodes = (
"93 -447 OFFCURVE",
"208 -371 OFFCURVE",
"287 -229 CURVE SMOOTH",
"338 -137 OFFCURVE",
"346 -70 OFFCURVE",
"346 247 CURVE SMOOTH",
"346 928 LINE",
"329 928 LINE",
"40 846 LINE",
"40 819 LINE",
"169 773 LINE",
"169 -82 LINE SMOOTH",
"169 -273 OFFCURVE",
"124 -365 OFFCURVE",
"29 -365 CURVE SMOOTH",
"-14 -365 OFFCURVE",
"-34 -345 OFFCURVE",
"-61 -278 CURVE SMOOTH",
"-81 -224 OFFCURVE",
"-108 -198 OFFCURVE",
"-158 -198 CURVE SMOOTH",
"-216 -198 OFFCURVE",
"-254 -237 OFFCURVE",
"-254 -301 CURVE SMOOTH",
"-254 -391 OFFCURVE",
"-175 -447 OFFCURVE",
"-49 -447 CURVE SMOOTH"
);
},
{
closed = 1;
nodes = (
"327 1111 OFFCURVE",
"374 1160 OFFCURVE",
"374 1226 CURVE SMOOTH",
"374 1291 OFFCURVE",
"326 1341 OFFCURVE",
"257 1341 CURVE SMOOTH",
"188 1341 OFFCURVE",
"142 1291 OFFCURVE",
"142 1226 CURVE SMOOTH",
"142 1160 OFFCURVE",
"187 1111 OFFCURVE",
"257 1111 CURVE SMOOTH"
);
}
);
width = 493;
}
);
leftKerningGroup = j;
rightKerningGroup = j;
unicode = 006A;
},
{
glyphname = dotlessj;
layers = (
{
anchors = (
{
name = top;
position = "{292, 1119}";
}
);
layerId = "FA6D65B5-4623-4FAC-A199-3F662257AC29";
paths = (
{
closed = 1;
nodes = (
"170 -447 OFFCURVE",
"280 -387 OFFCURVE",
"359 -251 CURVE SMOOTH",
"414 -156 OFFCURVE",
"432 -68 OFFCURVE",
"432 118 CURVE SMOOTH",
"432 928 LINE",
"396 928 LINE",
"19 846 LINE",
"19 805 LINE",
"165 758 LINE",
"165 -82 LINE SMOOTH",
"165 -269 OFFCURVE",
"124 -357 OFFCURVE",
"41 -357 CURVE SMOOTH",
"-7 -357 OFFCURVE",
"-34 -330 OFFCURVE",
"-74 -247 CURVE SMOOTH",
"-104 -186 OFFCURVE",
"-134 -165 OFFCURVE",
"-188 -165 CURVE SMOOTH",
"-258 -165 OFFCURVE",
"-303 -206 OFFCURVE",
"-303 -271 CURVE SMOOTH",
"-303 -376 OFFCURVE",
"-181 -447 OFFCURVE",
"2 -447 CURVE SMOOTH"
);
}
);
width = 567;
},
{
anchors = (
{
name = top;
position = "{254, 1119}";
}
);
associatedMasterId = "FA6D65B5-4623-4FAC-A199-3F662257AC29";
layerId = "CBD44848-52BD-4DC5-BFA6-577546B7224D";
paths = (
{
closed = 1;
nodes = (
"81 -447 OFFCURVE",
"197 -369 OFFCURVE",
"276 -226 CURVE SMOOTH",
"326 -134 OFFCURVE",
"333 -70 OFFCURVE",
"333 267 CURVE SMOOTH",
"333 928 LINE",
"318 928 LINE",
"43 846 LINE",
"43 821 LINE",
"170 775 LINE",
"170 -82 LINE SMOOTH",
"170 -273 OFFCURVE",
"124 -366 OFFCURVE",
"27 -366 CURVE SMOOTH",
"-16 -366 OFFCURVE",
"-34 -348 OFFCURVE",
"-59 -282 CURVE SMOOTH",
"-77 -230 OFFCURVE",
"-104 -203 OFFCURVE",
"-153 -203 CURVE SMOOTH",
"-210 -203 OFFCURVE",
"-246 -242 OFFCURVE",
"-246 -306 CURVE SMOOTH",
"-246 -394 OFFCURVE",
"-174 -447 OFFCURVE",
"-57 -447 CURVE SMOOTH"
);
}
);
width = 481;
},
{
anchors = (
{
name = top;
position = "{259, 1119}";
}
);
layerId = "7C8D72FA-6E62-4564-8BB2-D9F9BC4EB15A";
paths = (
{
closed = 1;
nodes = (
"93 -447 OFFCURVE",
"208 -371 OFFCURVE",
"287 -229 CURVE SMOOTH",
"338 -137 OFFCURVE",
"346 -70 OFFCURVE",
"346 247 CURVE SMOOTH",
"346 928 LINE",
"329 928 LINE",
"40 846 LINE",
"40 819 LINE",
"169 773 LINE",
"169 -82 LINE SMOOTH",
"169 -273 OFFCURVE",
"124 -365 OFFCURVE",
"29 -365 CURVE SMOOTH",
"-14 -365 OFFCURVE",
"-34 -345 OFFCURVE",
"-61 -278 CURVE SMOOTH",
"-81 -224 OFFCURVE",
"-108 -198 OFFCURVE",
"-158 -198 CURVE SMOOTH",
"-216 -198 OFFCURVE",
"-254 -237 OFFCURVE",
"-254 -301 CURVE SMOOTH",
"-254 -391 OFFCURVE",
"-175 -447 OFFCURVE",
"-49 -447 CURVE SMOOTH"
);
}
);
width = 493;
}
);
leftKerningGroup = j;
rightKerningGroup = j;
unicode = 0237;
},
{
glyphname = k;
layers = (
{
anchors = (
{
name = bottom;
position = "{658, 0}";
}
);
layerId = "FA6D65B5-4623-4FAC-A199-3F662257AC29";
paths = (
{
closed = 1;
nodes = (
"588 0 LINE",
"588 61 LINE",
"438 95 LINE",
"438 1427 LINE",
"400 1427 LINE",
"25 1343 LINE",
"25 1303 LINE",
"172 1257 LINE",
"172 95 LINE",
"25 61 LINE",
"25 0 LINE"
);
},
{
closed = 1;
nodes = (
"1172 0 LINE",
"1172 61 LINE",
"1031 95 LINE",
"681 643 LINE",
"524 430 LINE",
"773 0 LINE"
);
},
{
closed = 1;
nodes = (
"853 753 LINE SMOOTH",
"909 810 OFFCURVE",
"934 828 OFFCURVE",
"1086 851 CURVE",
"1086 911 LINE",
"613 911 LINE",
"613 851 LINE",
"730 839 OFFCURVE",
"762 830 OFFCURVE",
"762 810 CURVE SMOOTH",
"762 796 OFFCURVE",
"746 777 OFFCURVE",
"719 748 CURVE SMOOTH",
"349 359 LINE",
"387 276 LINE"
);
}
);
width = 1143;
},
{
anchors = (
{
name = bottom;
position = "{561, 0}";
}
);
associatedMasterId = "FA6D65B5-4623-4FAC-A199-3F662257AC29";
layerId = "CBD44848-52BD-4DC5-BFA6-577546B7224D";
paths = (
{
closed = 1;
nodes = (
"457 0 LINE",
"457 34 LINE",
"328 61 LINE",
"328 1427 LINE",
"312 1427 LINE",
"45 1343 LINE",
"45 1320 LINE",
"170 1273 LINE",
"170 61 LINE",
"39 34 LINE",
"39 0 LINE"
);
},
{
closed = 1;
nodes = (
"1052 0 LINE",
"1052 34 LINE",
"907 61 LINE",
"483 570 LINE",
"380 452 LINE",
"751 0 LINE"
);
},
{
closed = 1;
nodes = (
"692 778 LINE SMOOTH",
"744 839 OFFCURVE",
"770 851 OFFCURVE",
"909 877 CURVE",
"909 911 LINE",
"524 911 LINE",
"524 877 LINE",
"626 864 OFFCURVE",
"651 855 OFFCURVE",
"651 835 CURVE SMOOTH",
"651 821 OFFCURVE",
"640 801 OFFCURVE",
"615 773 CURVE SMOOTH",
"280 394 LINE",
"290 312 LINE"
);
}
);
width = 982;
},
{
anchors = (
{
name = bottom;
position = "{574, 0}";
}
);
layerId = "7C8D72FA-6E62-4564-8BB2-D9F9BC4EB15A";
paths = (
{
closed = 1;
nodes = (
"474 0 LINE",
"474 38 LINE",
"343 65 LINE",
"343 1427 LINE",
"323 1427 LINE",
"42 1343 LINE",
"42 1318 LINE",
"170 1271 LINE",
"170 65 LINE",
"37 38 LINE",
"37 0 LINE"
);
},
{
closed = 1;
nodes = (
"1068 0 LINE",
"1068 38 LINE",
"924 65 LINE",
"510 580 LINE",
"399 449 LINE",
"754 0 LINE"
);
},
{
closed = 1;
nodes = (
"714 775 LINE SMOOTH",
"766 835 OFFCURVE",
"791 848 OFFCURVE",
"933 873 CURVE",
"933 911 LINE",
"536 911 LINE",
"536 873 LINE",
"640 861 OFFCURVE",
"666 852 OFFCURVE",
"666 832 CURVE SMOOTH",
"666 818 OFFCURVE",
"654 798 OFFCURVE",
"629 770 CURVE SMOOTH",
"289 389 LINE",
"303 307 LINE"
);
}
);
width = 1004;
}
);
leftKerningGroup = h;
rightKerningGroup = k;
unicode = 006B;
},
{
glyphname = kgreenlandic;
layers = (
{
layerId = "FA6D65B5-4623-4FAC-A199-3F662257AC29";
paths = (
{
closed = 1;
nodes = (
"607 0 LINE",
"607 61 LINE",
"458 95 LINE",
"458 928 LINE",
"420 928 LINE",
"45 844 LINE",
"45 805 LINE",
"191 758 LINE",
"191 95 LINE",
"45 61 LINE",
"45 0 LINE"
);
},
{
closed = 1;
nodes = (
"1191 0 LINE",
"1191 61 LINE",
"1051 95 LINE",
"700 643 LINE",
"544 430 LINE",
"793 0 LINE"
);
},
{
closed = 1;
nodes = (
"872 753 LINE SMOOTH",
"929 810 OFFCURVE",
"953 828 OFFCURVE",
"1105 851 CURVE",
"1105 911 LINE",
"633 911 LINE",
"633 851 LINE",
"750 839 OFFCURVE",
"781 830 OFFCURVE",
"781 810 CURVE SMOOTH",
"781 796 OFFCURVE",
"766 777 OFFCURVE",
"738 748 CURVE SMOOTH",
"368 359 LINE",
"406 276 LINE"
);
}
);
width = 1162;
},
{
associatedMasterId = "FA6D65B5-4623-4FAC-A199-3F662257AC29";
layerId = "CBD44848-52BD-4DC5-BFA6-577546B7224D";
paths = (
{
closed = 1;
nodes = (
"471 0 LINE",
"471 34 LINE",
"342 61 LINE",
"342 928 LINE",
"325 928 LINE",
"59 844 LINE",
"59 821 LINE",
"184 775 LINE",
"184 61 LINE",
"54 34 LINE",
"54 0 LINE"
);
},
{
closed = 1;
nodes = (
"1065 0 LINE",
"1065 34 LINE",
"921 61 LINE",
"497 570 LINE",
"394 452 LINE",
"765 0 LINE"
);
},
{
closed = 1;
nodes = (
"706 778 LINE SMOOTH",
"758 839 OFFCURVE",
"784 851 OFFCURVE",
"923 877 CURVE",
"923 911 LINE",
"538 911 LINE",
"538 877 LINE",
"640 864 OFFCURVE",
"665 855 OFFCURVE",
"665 835 CURVE SMOOTH",
"665 821 OFFCURVE",
"653 801 OFFCURVE",
"629 773 CURVE SMOOTH",
"294 394 LINE",
"305 312 LINE"
);
}
);
width = 996;
},
{
layerId = "7C8D72FA-6E62-4564-8BB2-D9F9BC4EB15A";
paths = (
{
closed = 1;
nodes = (
"489 0 LINE",
"489 38 LINE",
"357 65 LINE",
"357 928 LINE",
"338 928 LINE",
"57 844 LINE",
"57 819 LINE",
"185 773 LINE",
"185 65 LINE",
"53 38 LINE",
"53 0 LINE"
);
},
{
closed = 1;
nodes = (
"1082 0 LINE",
"1082 38 LINE",
"938 65 LINE",
"524 580 LINE",
"414 449 LINE",
"768 0 LINE"
);
},
{
closed = 1;
nodes = (
"728 775 LINE SMOOTH",
"781 835 OFFCURVE",
"807 848 OFFCURVE",
"947 873 CURVE",
"947 911 LINE",
"551 911 LINE",
"551 873 LINE",
"654 861 OFFCURVE",
"681 852 OFFCURVE",
"681 832 CURVE SMOOTH",
"681 818 OFFCURVE",
"668 798 OFFCURVE",
"643 770 CURVE SMOOTH",
"304 389 LINE",
"318 307 LINE"
);
}
);
width = 1018;
}
);
leftMetricsKey = n;
rightMetricsKey = k;
unicode = 0138;
},
{
glyphname = l;
layers = (
{
anchors = (
{
name = bottom;
position = "{312, 0}";
},
{
name = topcap;
position = "{307, 1473}";
}
);
layerId = "FA6D65B5-4623-4FAC-A199-3F662257AC29";
paths = (
{
closed = 1;
nodes = (
"579 0 LINE",
"579 61 LINE",
"441 95 LINE",
"441 1427 LINE",
"405 1427 LINE",
"29 1344 LINE",
"29 1303 LINE",
"176 1257 LINE",
"176 95 LINE",
"29 61 LINE",
"29 0 LINE"
);
}
);
width = 612;
},
{
anchors = (
{
name = bottom;
position = "{248, 0}";
},
{
name = topcap;
position = "{248, 1473}";
}
);
associatedMasterId = "FA6D65B5-4623-4FAC-A199-3F662257AC29";
layerId = "CBD44848-52BD-4DC5-BFA6-577546B7224D";
paths = (
{
closed = 1;
nodes = (
"462 0 LINE",
"462 34 LINE",
"333 61 LINE",
"333 1427 LINE",
"317 1427 LINE",
"42 1345 LINE",
"42 1320 LINE",
"169 1274 LINE",
"169 61 LINE",
"39 34 LINE",
"39 0 LINE"
);
}
);
width = 501;
},
{
anchors = (
{
name = bottom;
position = "{247, 0}";
},
{
name = topcap;
position = "{247, 1473}";
}
);
associatedMasterId = "FA6D65B5-4623-4FAC-A199-3F662257AC29";
layerId = "49171B4C-9787-4E4D-BDE1-9BE5B70CD83A";
name = "Nov 19 18, 13:46";
paths = (
{
closed = 1;
nodes = (
"447 0 LINE",
"447 32 LINE",
"328 59 LINE",
"328 1427 LINE",
"313 1427 LINE",
"50 1343 LINE",
"50 1320 LINE",
"170 1275 LINE",
"170 59 LINE",
"50 32 LINE",
"50 0 LINE"
);
}
);
width = 497;
},
{
anchors = (
{
name = bottom;
position = "{257, 0}";
},
{
name = topcap;
position = "{256, 1473}";
}
);
layerId = "7C8D72FA-6E62-4564-8BB2-D9F9BC4EB15A";
paths = (
{
closed = 1;
nodes = (
"478 0 LINE",
"478 38 LINE",
"347 65 LINE",
"347 1427 LINE",
"329 1427 LINE",
"40 1345 LINE",
"40 1318 LINE",
"170 1272 LINE",
"170 65 LINE",
"38 38 LINE",
"38 0 LINE"
);
}
);
width = 516;
}
);
leftKerningGroup = l;
rightKerningGroup = l;
unicode = 006C;
},
{
glyphname = lacute;
layers = (
{
layerId = "FA6D65B5-4623-4FAC-A199-3F662257AC29";
paths = (
{
closed = 1;
nodes = (
"579 0 LINE",
"579 61 LINE",
"441 95 LINE",
"441 1427 LINE",
"405 1427 LINE",
"29 1344 LINE",
"29 1303 LINE",
"176 1257 LINE",
"176 95 LINE",
"29 61 LINE",
"29 0 LINE"
);
},
{
closed = 1;
nodes = (
"340 1479 LINE SMOOTH",
"430 1504 OFFCURVE",
"457 1536 OFFCURVE",
"457 1576 CURVE SMOOTH",
"457 1619 OFFCURVE",
"421 1650 OFFCURVE",
"383 1650 CURVE SMOOTH",
"355 1650 OFFCURVE",
"333 1642 OFFCURVE",
"308 1622 CURVE SMOOTH",
"61 1438 LINE",
"79 1402 LINE"
);
}
);
width = 612;
},
{
associatedMasterId = "FA6D65B5-4623-4FAC-A199-3F662257AC29";
layerId = "CBD44848-52BD-4DC5-BFA6-577546B7224D";
paths = (
{
closed = 1;
nodes = (
"447 0 LINE",
"447 32 LINE",
"328 59 LINE",
"328 1427 LINE",
"313 1427 LINE",
"50 1343 LINE",
"50 1320 LINE",
"170 1275 LINE",
"170 59 LINE",
"50 32 LINE",
"50 0 LINE"
);
},
{
closed = 1;
nodes = (
"326 1479 LINE SMOOTH",
"416 1504 OFFCURVE",
"443 1536 OFFCURVE",
"443 1576 CURVE SMOOTH",
"443 1619 OFFCURVE",
"407 1650 OFFCURVE",
"369 1650 CURVE SMOOTH",
"342 1650 OFFCURVE",
"319 1642 OFFCURVE",
"294 1622 CURVE SMOOTH",
"47 1438 LINE",
"65 1402 LINE"
);
}
);
width = 497;
},
{
layerId = "7C8D72FA-6E62-4564-8BB2-D9F9BC4EB15A";
paths = (
{
closed = 1;
nodes = (
"465 0 LINE",
"465 36 LINE",
"343 63 LINE",
"343 1427 LINE",
"325 1427 LINE",
"47 1343 LINE",
"47 1318 LINE",
"171 1273 LINE",
"171 63 LINE",
"47 36 LINE",
"47 0 LINE"
);
},
{
closed = 1;
nodes = (
"328 1479 LINE SMOOTH",
"418 1504 OFFCURVE",
"445 1536 OFFCURVE",
"445 1576 CURVE SMOOTH",
"445 1619 OFFCURVE",
"409 1650 OFFCURVE",
"371 1650 CURVE SMOOTH",
"344 1650 OFFCURVE",
"321 1642 OFFCURVE",
"296 1622 CURVE SMOOTH",
"49 1438 LINE",
"67 1402 LINE"
);
}
);
width = 512;
}
);
leftKerningGroup = l;
rightKerningGroup = l;
unicode = 013A;
},
{
glyphname = lslash;
layers = (
{
components = (
{
name = l;
transform = "{1, 0, 0, 1, 4, 0}";
}
);
layerId = "FA6D65B5-4623-4FAC-A199-3F662257AC29";
paths = (
{
closed = 1;
nodes = (
"586 777 LINE",
"586 940 LINE",
"50 655 LINE",
"50 491 LINE"
);
}
);
width = 619;
},
{
associatedMasterId = "FA6D65B5-4623-4FAC-A199-3F662257AC29";
components = (
{
name = l;
transform = "{1, 0, 0, 1, 5, 0}";
}
);
layerId = "CBD44848-52BD-4DC5-BFA6-577546B7224D";
paths = (
{
closed = 1;
nodes = (
"484 769 LINE",
"484 880 LINE",
"32 638 LINE",
"32 526 LINE"
);
}
);
width = 512;
},
{
components = (
{
alignment = -1;
name = l;
transform = "{1, 0, 0, 1, 5, 0}";
}
);
layerId = "7C8D72FA-6E62-4564-8BB2-D9F9BC4EB15A";
paths = (
{
closed = 1;
nodes = (
"498 770 LINE",
"498 888 LINE",
"35 640 LINE",
"35 522 LINE"
);
}
);
width = 526;
}
);
leftKerningGroup = l;
rightKerningGroup = l;
unicode = 0142;
},
{
glyphname = m;
layers = (
{
layerId = "FA6D65B5-4623-4FAC-A199-3F662257AC29";
paths = (
{
closed = 1;
nodes = (
"561 0 LINE",
"561 61 LINE",
"440 95 LINE",
"440 799 LINE",
"434 808 LINE",
"434 928 LINE",
"364 928 LINE",
"48 844 LINE",
"48 805 LINE",
"174 756 LINE",
"174 95 LINE",
"45 61 LINE",
"45 0 LINE"
);
},
{
closed = 1;
nodes = (
"1128 0 LINE",
"1128 61 LINE",
"1007 95 LINE",
"1007 547 LINE SMOOTH",
"1007 705 OFFCURVE",
"1002 748 OFFCURVE",
"981 791 CURVE SMOOTH",
"937 882 OFFCURVE",
"853 928 OFFCURVE",
"737 928 CURVE SMOOTH",
"615 928 OFFCURVE",
"477 868 OFFCURVE",
"396 780 CURVE",
"396 669 LINE",
"443 741 OFFCURVE",
"498 777 OFFCURVE",
"570 777 CURVE SMOOTH",
"649 777 OFFCURVE",
"701 744 OFFCURVE",
"724 686 CURVE SMOOTH",
"737 651 OFFCURVE",
"741 602 OFFCURVE",
"741 479 CURVE SMOOTH",
"741 95 LINE",
"620 61 LINE",
"620 0 LINE"
);
},
{
closed = 1;
nodes = (
"1694 0 LINE",
"1694 61 LINE",
"1574 95 LINE",
"1574 547 LINE SMOOTH",
"1574 705 OFFCURVE",
"1569 748 OFFCURVE",
"1549 791 CURVE SMOOTH",
"1504 882 OFFCURVE",
"1420 928 OFFCURVE",
"1305 928 CURVE SMOOTH",
"1183 928 OFFCURVE",
"1043 868 OFFCURVE",
"963 780 CURVE",
"963 667 LINE",
"1011 739 OFFCURVE",
"1065 775 OFFCURVE",
"1138 775 CURVE SMOOTH",
"1217 775 OFFCURVE",
"1269 742 OFFCURVE",
"1291 686 CURVE SMOOTH",
"1305 651 OFFCURVE",
"1308 602 OFFCURVE",
"1308 479 CURVE SMOOTH",
"1308 95 LINE",
"1188 61 LINE",
"1188 0 LINE"
);
}
);
width = 1732;
},
{
associatedMasterId = "FA6D65B5-4623-4FAC-A199-3F662257AC29";
layerId = "CBD44848-52BD-4DC5-BFA6-577546B7224D";
paths = (
{
closed = 1;
nodes = (
"477 0 LINE",
"477 34 LINE",
"348 61 LINE",
"348 765 LINE",
"340 773 LINE",
"340 928 LINE",
"323 928 LINE",
"57 844 LINE",
"57 821 LINE",
"184 773 LINE",
"184 61 LINE",
"54 34 LINE",
"54 0 LINE"
);
},
{
closed = 1;
nodes = (
"997 0 LINE",
"997 34 LINE",
"868 59 LINE",
"868 581 LINE SMOOTH",
"868 760 OFFCURVE",
"859 798 OFFCURVE",
"846 825 CURVE SMOOTH",
"816 889 OFFCURVE",
"746 928 OFFCURVE",
"663 928 CURVE SMOOTH",
"550 928 OFFCURVE",
"430 871 OFFCURVE",
"330 771 CURVE",
"330 705 LINE",
"391 787 OFFCURVE",
"477 834 OFFCURVE",
"567 834 CURVE SMOOTH",
"627 834 OFFCURVE",
"665 808 OFFCURVE",
"684 755 CURVE SMOOTH",
"694 717 OFFCURVE",
"705 662 OFFCURVE",
"705 563 CURVE SMOOTH",
"705 59 LINE",
"576 34 LINE",
"576 0 LINE"
);
},
{
closed = 1;
nodes = (
"1518 0 LINE",
"1518 34 LINE",
"1389 59 LINE",
"1389 581 LINE SMOOTH",
"1389 746 OFFCURVE",
"1384 789 OFFCURVE",
"1366 825 CURVE SMOOTH",
"1336 889 OFFCURVE",
"1267 928 OFFCURVE",
"1185 928 CURVE SMOOTH",
"1070 928 OFFCURVE",
"950 871 OFFCURVE",
"851 771 CURVE",
"851 705 LINE",
"911 787 OFFCURVE",
"997 834 OFFCURVE",
"1088 834 CURVE SMOOTH",
"1148 834 OFFCURVE",
"1188 808 OFFCURVE",
"1205 755 CURVE SMOOTH",
"1217 717 OFFCURVE",
"1226 662 OFFCURVE",
"1226 563 CURVE SMOOTH",
"1226 59 LINE",
"1097 34 LINE",
"1097 0 LINE"
);
}
);
width = 1559;
},
{
layerId = "7C8D72FA-6E62-4564-8BB2-D9F9BC4EB15A";
paths = (
{
closed = 1;
nodes = (
"488 0 LINE",
"488 38 LINE",
"360 65 LINE",
"360 769 LINE",
"352 778 LINE",
"352 928 LINE",
"329 928 LINE",
"55 844 LINE",
"55 819 LINE",
"182 771 LINE",
"182 65 LINE",
"53 38 LINE",
"53 0 LINE"
);
},
{
closed = 1;
nodes = (
"1015 0 LINE",
"1015 38 LINE",
"887 63 LINE",
"887 576 LINE SMOOTH",
"887 752 OFFCURVE",
"878 791 OFFCURVE",
"864 821 CURVE SMOOTH",
"832 888 OFFCURVE",
"760 928 OFFCURVE",
"673 928 CURVE SMOOTH",
"559 928 OFFCURVE",
"436 871 OFFCURVE",
"339 773 CURVE",
"339 700 LINE",
"398 781 OFFCURVE",
"479 826 OFFCURVE",
"568 826 CURVE SMOOTH",
"630 826 OFFCURVE",
"670 799 OFFCURVE",
"689 746 CURVE SMOOTH",
"700 708 OFFCURVE",
"710 654 OFFCURVE",
"710 552 CURVE SMOOTH",
"710 63 LINE",
"582 38 LINE",
"582 0 LINE"
);
},
{
closed = 1;
nodes = (
"1541 0 LINE",
"1541 38 LINE",
"1413 63 LINE",
"1413 576 LINE SMOOTH",
"1413 741 OFFCURVE",
"1409 784 OFFCURVE",
"1391 821 CURVE SMOOTH",
"1358 888 OFFCURVE",
"1287 928 OFFCURVE",
"1201 928 CURVE SMOOTH",
"1085 928 OFFCURVE",
"963 871 OFFCURVE",
"866 773 CURVE",
"866 700 LINE",
"924 781 OFFCURVE",
"1006 826 OFFCURVE",
"1095 826 CURVE SMOOTH",
"1158 826 OFFCURVE",
"1198 799 OFFCURVE",
"1217 746 CURVE SMOOTH",
"1229 708 OFFCURVE",
"1237 654 OFFCURVE",
"1237 552 CURVE SMOOTH",
"1237 63 LINE",
"1109 38 LINE",
"1109 0 LINE"
);
}
);
width = 1582;
}
);
leftKerningGroup = n;
unicode = 006D;
},
{
glyphname = n;
layers = (
{
anchors = (
{
name = bottom;
position = "{600, 0}";
},
{
name = top;
position = "{604, 1119}";
}
);
layerId = "FA6D65B5-4623-4FAC-A199-3F662257AC29";
paths = (
{
closed = 1;
nodes = (
"1145 0 LINE",
"1145 61 LINE",
"1016 95 LINE",
"1016 547 LINE SMOOTH",
"1016 699 OFFCURVE",
"1011 746 OFFCURVE",
"990 791 CURVE SMOOTH",
"947 878 OFFCURVE",
"861 928 OFFCURVE",
"749 928 CURVE SMOOTH",
"629 928 OFFCURVE",
"498 873 OFFCURVE",
"421 789 CURVE",
"421 681 LINE",
"464 746 OFFCURVE",
"512 773 OFFCURVE",
"581 773 CURVE SMOOTH",
"653 773 OFFCURVE",
"708 742 OFFCURVE",
"732 686 CURVE SMOOTH",
"746 655 OFFCURVE",
"749 613 OFFCURVE",
"749 479 CURVE SMOOTH",
"749 95 LINE",
"629 61 LINE",
"629 0 LINE"
);
},
{
closed = 1;
nodes = (
"563 0 LINE",
"563 61 LINE",
"441 95 LINE",
"441 773 LINE",
"434 782 LINE",
"434 928 LINE",
"396 928 LINE",
"45 844 LINE",
"45 805 LINE",
"176 756 LINE",
"176 95 LINE",
"47 61 LINE",
"47 0 LINE"
);
}
);
width = 1176;
},
{
anchors = (
{
name = bottom;
position = "{534, 0}";
},
{
name = top;
position = "{538, 1119}";
}
);
associatedMasterId = "FA6D65B5-4623-4FAC-A199-3F662257AC29";
layerId = "CBD44848-52BD-4DC5-BFA6-577546B7224D";
paths = (
{
closed = 1;
nodes = (
"1014 0 LINE",
"1014 34 LINE",
"885 59 LINE",
"885 581 LINE SMOOTH",
"885 746 OFFCURVE",
"882 789 OFFCURVE",
"863 825 CURVE SMOOTH",
"830 889 OFFCURVE",
"755 928 OFFCURVE",
"663 928 CURVE SMOOTH",
"550 928 OFFCURVE",
"430 871 OFFCURVE",
"330 771 CURVE",
"330 705 LINE",
"391 787 OFFCURVE",
"477 834 OFFCURVE",
"567 834 CURVE SMOOTH",
"636 834 OFFCURVE",
"679 808 OFFCURVE",
"701 755 CURVE SMOOTH",
"717 717 OFFCURVE",
"722 662 OFFCURVE",
"722 563 CURVE SMOOTH",
"722 59 LINE",
"593 34 LINE",
"593 0 LINE"
);
},
{
closed = 1;
nodes = (
"477 0 LINE",
"477 34 LINE",
"348 61 LINE",
"348 765 LINE",
"340 773 LINE",
"340 928 LINE",
"323 928 LINE",
"57 844 LINE",
"57 821 LINE",
"184 773 LINE",
"184 61 LINE",
"54 34 LINE",
"54 0 LINE"
);
}
);
width = 1050;
},
{
anchors = (
{
name = bottom;
position = "{543, 0}";
},
{
name = top;
position = "{547, 1119}";
}
);
layerId = "7C8D72FA-6E62-4564-8BB2-D9F9BC4EB15A";
paths = (
{
closed = 1;
nodes = (
"1031 0 LINE",
"1031 38 LINE",
"902 63 LINE",
"902 576 LINE SMOOTH",
"902 740 OFFCURVE",
"899 783 OFFCURVE",
"880 821 CURVE SMOOTH",
"846 887 OFFCURVE",
"769 928 OFFCURVE",
"675 928 CURVE SMOOTH",
"560 928 OFFCURVE",
"439 871 OFFCURVE",
"342 774 CURVE",
"342 702 LINE",
"400 782 OFFCURVE",
"481 826 OFFCURVE",
"569 826 CURVE SMOOTH",
"638 826 OFFCURVE",
"683 799 OFFCURVE",
"705 746 CURVE SMOOTH",
"721 709 OFFCURVE",
"725 656 OFFCURVE",
"725 552 CURVE SMOOTH",
"725 63 LINE",
"598 38 LINE",
"598 0 LINE"
);
},
{
closed = 1;
nodes = (
"488 0 LINE",
"488 38 LINE",
"360 65 LINE",
"360 766 LINE",
"352 775 LINE",
"352 928 LINE",
"333 928 LINE",
"55 844 LINE",
"55 819 LINE",
"183 771 LINE",
"183 65 LINE",
"53 38 LINE",
"53 0 LINE"
);
}
);
width = 1067;
}
);
leftKerningGroup = n;
rightKerningGroup = n;
unicode = 006E;
},
{
glyphname = eng;
layers = (
{
layerId = "FA6D65B5-4623-4FAC-A199-3F662257AC29";
paths = (
{
closed = 1;
nodes = (
"563 0 LINE",
"563 61 LINE",
"441 95 LINE",
"441 773 LINE",
"434 782 LINE",
"434 928 LINE",
"396 928 LINE",
"45 844 LINE",
"45 805 LINE",
"176 756 LINE",
"176 95 LINE",
"47 61 LINE",
"47 0 LINE"
);
},
{
closed = 1;
nodes = (
"1016 95 LINE",
"1016 547 LINE SMOOTH",
"1016 699 OFFCURVE",
"1011 746 OFFCURVE",
"990 791 CURVE SMOOTH",
"947 878 OFFCURVE",
"861 928 OFFCURVE",
"749 928 CURVE SMOOTH",
"629 928 OFFCURVE",
"498 873 OFFCURVE",
"421 789 CURVE",
"421 681 LINE",
"464 746 OFFCURVE",
"512 773 OFFCURVE",
"581 773 CURVE SMOOTH",
"653 773 OFFCURVE",
"708 742 OFFCURVE",
"732 686 CURVE SMOOTH",
"746 655 OFFCURVE",
"749 613 OFFCURVE",
"749 479 CURVE SMOOTH",
"749 95 LINE"
);
},
{
closed = 1;
nodes = (
"755 -447 OFFCURVE",
"864 -387 OFFCURVE",
"943 -251 CURVE SMOOTH",
"999 -156 OFFCURVE",
"1016 -68 OFFCURVE",
"1016 118 CURVE",
"749 196 LINE",
"749 -82 LINE SMOOTH",
"749 -269 OFFCURVE",
"708 -357 OFFCURVE",
"626 -357 CURVE SMOOTH",
"577 -357 OFFCURVE",
"550 -330 OFFCURVE",
"511 -247 CURVE SMOOTH",
"479 -186 OFFCURVE",
"450 -165 OFFCURVE",
"397 -165 CURVE SMOOTH",
"326 -165 OFFCURVE",
"282 -206 OFFCURVE",
"282 -271 CURVE SMOOTH",
"282 -376 OFFCURVE",
"404 -447 OFFCURVE",
"586 -447 CURVE SMOOTH"
);
}
);
width = 1136;
},
{
associatedMasterId = "FA6D65B5-4623-4FAC-A199-3F662257AC29";
layerId = "CBD44848-52BD-4DC5-BFA6-577546B7224D";
paths = (
{
closed = 1;
nodes = (
"477 0 LINE",
"477 34 LINE",
"348 61 LINE",
"348 765 LINE",
"340 773 LINE",
"340 928 LINE",
"323 928 LINE",
"57 844 LINE",
"57 821 LINE",
"184 773 LINE",
"184 61 LINE",
"54 34 LINE",
"54 0 LINE"
);
},
{
closed = 1;
nodes = (
"885 232 LINE",
"885 581 LINE SMOOTH",
"885 746 OFFCURVE",
"882 789 OFFCURVE",
"863 825 CURVE SMOOTH",
"830 889 OFFCURVE",
"755 928 OFFCURVE",
"663 928 CURVE SMOOTH",
"550 928 OFFCURVE",
"430 871 OFFCURVE",
"330 771 CURVE",
"330 705 LINE",
"391 787 OFFCURVE",
"477 834 OFFCURVE",
"567 834 CURVE SMOOTH",
"636 834 OFFCURVE",
"679 808 OFFCURVE",
"701 755 CURVE SMOOTH",
"717 717 OFFCURVE",
"722 662 OFFCURVE",
"722 563 CURVE SMOOTH",
"722 232 LINE"
);
},
{
closed = 1;
nodes = (
"633 -447 OFFCURVE",
"749 -369 OFFCURVE",
"828 -226 CURVE SMOOTH",
"878 -134 OFFCURVE",
"885 -70 OFFCURVE",
"885 267 CURVE",
"722 325 LINE",
"722 -82 LINE SMOOTH",
"722 -273 OFFCURVE",
"676 -366 OFFCURVE",
"579 -366 CURVE SMOOTH",
"536 -366 OFFCURVE",
"518 -348 OFFCURVE",
"493 -282 CURVE SMOOTH",
"475 -230 OFFCURVE",
"447 -203 OFFCURVE",
"398 -203 CURVE SMOOTH",
"342 -203 OFFCURVE",
"306 -242 OFFCURVE",
"306 -306 CURVE SMOOTH",
"306 -394 OFFCURVE",
"378 -447 OFFCURVE",
"495 -447 CURVE SMOOTH"
);
}
);
width = 1024;
},
{
layerId = "7C8D72FA-6E62-4564-8BB2-D9F9BC4EB15A";
paths = (
{
closed = 1;
nodes = (
"488 0 LINE",
"488 38 LINE",
"360 65 LINE",
"360 766 LINE",
"352 775 LINE",
"352 928 LINE",
"333 928 LINE",
"55 844 LINE",
"55 819 LINE",
"183 771 LINE",
"183 65 LINE",
"53 38 LINE",
"53 0 LINE"
);
},
{
closed = 1;
nodes = (
"902 214 LINE",
"902 576 LINE SMOOTH",
"902 740 OFFCURVE",
"899 783 OFFCURVE",
"880 821 CURVE SMOOTH",
"846 887 OFFCURVE",
"769 928 OFFCURVE",
"675 928 CURVE SMOOTH",
"560 928 OFFCURVE",
"439 871 OFFCURVE",
"342 774 CURVE",
"342 702 LINE",
"400 782 OFFCURVE",
"481 826 OFFCURVE",
"569 826 CURVE SMOOTH",
"638 826 OFFCURVE",
"683 799 OFFCURVE",
"705 746 CURVE SMOOTH",
"721 709 OFFCURVE",
"725 656 OFFCURVE",
"725 552 CURVE SMOOTH",
"725 214 LINE"
);
},
{
closed = 1;
nodes = (
"649 -447 OFFCURVE",
"764 -371 OFFCURVE",
"843 -229 CURVE SMOOTH",
"894 -137 OFFCURVE",
"902 -70 OFFCURVE",
"902 247 CURVE",
"725 308 LINE",
"725 -82 LINE SMOOTH",
"725 -273 OFFCURVE",
"680 -365 OFFCURVE",
"585 -365 CURVE SMOOTH",
"542 -365 OFFCURVE",
"522 -345 OFFCURVE",
"496 -278 CURVE SMOOTH",
"475 -224 OFFCURVE",
"448 -198 OFFCURVE",
"398 -198 CURVE SMOOTH",
"340 -198 OFFCURVE",
"303 -237 OFFCURVE",
"303 -301 CURVE SMOOTH",
"303 -391 OFFCURVE",
"381 -447 OFFCURVE",
"507 -447 CURVE SMOOTH"
);
}
);
width = 1039;
}
);
leftKerningGroup = n;
unicode = 014B;
},
{
glyphname = o;
layers = (
{
anchors = (
{
name = bottom;
position = "{552, -4}";
},
{
name = top;
position = "{552, 1119}";
}
);
layerId = "FA6D65B5-4623-4FAC-A199-3F662257AC29";
paths = (
{
closed = 1;
nodes = (
"866 -18 OFFCURVE",
"1042 196 OFFCURVE",
"1042 455 CURVE SMOOTH",
"1042 715 OFFCURVE",
"866 928 OFFCURVE",
"552 928 CURVE SMOOTH",
"237 928 OFFCURVE",
"62 715 OFFCURVE",
"62 455 CURVE SMOOTH",
"62 196 OFFCURVE",
"237 -18 OFFCURVE",
"552 -18 CURVE SMOOTH"
);
},
{
closed = 1;
nodes = (
"382 70 OFFCURVE",
"351 296 OFFCURVE",
"351 455 CURVE SMOOTH",
"351 613 OFFCURVE",
"382 839 OFFCURVE",
"552 839 CURVE SMOOTH",
"722 839 OFFCURVE",
"753 613 OFFCURVE",
"753 455 CURVE SMOOTH",
"753 296 OFFCURVE",
"719 70 OFFCURVE",
"552 70 CURVE SMOOTH"
);
}
);
width = 1104;
},
{
anchors = (
{
name = bottom;
position = "{531, -4}";
},
{
name = top;
position = "{531, 1119}";
}
);
associatedMasterId = "FA6D65B5-4623-4FAC-A199-3F662257AC29";
layerId = "CBD44848-52BD-4DC5-BFA6-577546B7224D";
paths = (
{
closed = 1;
nodes = (
"789 -18 OFFCURVE",
"981 184 OFFCURVE",
"981 455 CURVE SMOOTH",
"981 727 OFFCURVE",
"789 928 OFFCURVE",
"529 928 CURVE SMOOTH",
"270 928 OFFCURVE",
"77 727 OFFCURVE",
"77 455 CURVE SMOOTH",
"77 184 OFFCURVE",
"270 -18 OFFCURVE",
"529 -18 CURVE SMOOTH"
);
},
{
closed = 1;
nodes = (
"361 61 OFFCURVE",
"260 208 OFFCURVE",
"260 455 CURVE SMOOTH",
"260 703 OFFCURVE",
"361 851 OFFCURVE",
"529 851 CURVE SMOOTH",
"698 851 OFFCURVE",
"799 703 OFFCURVE",
"799 457 CURVE SMOOTH",
"799 210 OFFCURVE",
"696 61 OFFCURVE",
"527 61 CURVE SMOOTH"
);
}
);
width = 1059;
},
{
anchors = (
{
name = bottom;
position = "{534, -4}";
},
{
name = top;
position = "{534, 1119}";
}
);
layerId = "7C8D72FA-6E62-4564-8BB2-D9F9BC4EB15A";
paths = (
{
closed = 1;
nodes = (
"799 -18 OFFCURVE",
"990 185 OFFCURVE",
"990 455 CURVE SMOOTH",
"990 725 OFFCURVE",
"799 928 OFFCURVE",
"532 928 CURVE SMOOTH",
"265 928 OFFCURVE",
"75 725 OFFCURVE",
"75 455 CURVE SMOOTH",
"75 185 OFFCURVE",
"265 -18 OFFCURVE",
"532 -18 CURVE SMOOTH"
);
},
{
closed = 1;
nodes = (
"364 62 OFFCURVE",
"272 220 OFFCURVE",
"272 455 CURVE SMOOTH",
"272 691 OFFCURVE",
"364 849 OFFCURVE",
"532 849 CURVE SMOOTH",
"701 849 OFFCURVE",
"793 691 OFFCURVE",
"793 457 CURVE SMOOTH",
"793 221 OFFCURVE",
"699 62 OFFCURVE",
"531 62 CURVE SMOOTH"
);
}
);
width = 1065;
}
);
leftKerningGroup = o;
rightKerningGroup = o;
unicode = 006F;
},
{
glyphname = oslash;
layers = (
{
layerId = "FA6D65B5-4623-4FAC-A199-3F662257AC29";
paths = (
{
closed = 1;
nodes = (
"875 -18 OFFCURVE",
"1050 196 OFFCURVE",
"1050 455 CURVE SMOOTH",
"1050 577 OFFCURVE",
"1011 689 OFFCURVE",
"937 773 CURVE",
"1070 911 LINE",
"940 911 LINE",
"868 837 LINE",
"789 894 OFFCURVE",
"686 928 OFFCURVE",
"561 928 CURVE SMOOTH",
"246 928 OFFCURVE",
"70 715 OFFCURVE",
"70 455 CURVE SMOOTH",
"70 332 OFFCURVE",
"110 220 OFFCURVE",
"184 136 CURVE",
"54 0 LINE",
"183 0 LINE",
"253 72 LINE",
"332 16 OFFCURVE",
"435 -18 OFFCURVE",
"561 -18 CURVE SMOOTH"
);
},
{
closed = 1;
nodes = (
"471 70 OFFCURVE",
"419 133 OFFCURVE",
"392 215 CURVE",
"753 584 LINE",
"758 540 OFFCURVE",
"762 495 OFFCURVE",
"762 455 CURVE SMOOTH",
"762 296 OFFCURVE",
"727 70 OFFCURVE",
"561 70 CURVE SMOOTH"
);
},
{
closed = 1;
nodes = (
"361 368 OFFCURVE",
"359 414 OFFCURVE",
"359 455 CURVE SMOOTH",
"359 613 OFFCURVE",
"391 839 OFFCURVE",
"561 839 CURVE SMOOTH",
"649 839 OFFCURVE",
"699 777 OFFCURVE",
"729 694 CURVE",
"368 323 LINE"
);
}
);
width = 1121;
},
{
associatedMasterId = "FA6D65B5-4623-4FAC-A199-3F662257AC29";
layerId = "CBD44848-52BD-4DC5-BFA6-577546B7224D";
paths = (
{
closed = 1;
nodes = (
"798 -18 OFFCURVE",
"990 184 OFFCURVE",
"990 455 CURVE SMOOTH",
"990 572 OFFCURVE",
"954 676 OFFCURVE",
"894 756 CURVE",
"1043 911 LINE",
"938 911 LINE",
"842 812 LINE",
"763 885 OFFCURVE",
"658 928 OFFCURVE",
"538 928 CURVE SMOOTH",
"278 928 OFFCURVE",
"86 727 OFFCURVE",
"86 455 CURVE SMOOTH",
"86 330 OFFCURVE",
"125 222 OFFCURVE",
"194 140 CURVE",
"61 0 LINE",
"163 0 LINE",
"246 86 LINE",
"323 21 OFFCURVE",
"425 -18 OFFCURVE",
"538 -18 CURVE SMOOTH"
);
},
{
closed = 1;
nodes = (
"448 61 OFFCURVE",
"378 100 OFFCURVE",
"332 176 CURVE",
"784 641 LINE",
"799 588 OFFCURVE",
"808 526 OFFCURVE",
"808 457 CURVE SMOOTH",
"808 210 OFFCURVE",
"705 61 OFFCURVE",
"536 61 CURVE SMOOTH"
);
},
{
closed = 1;
nodes = (
"278 305 OFFCURVE",
"269 375 OFFCURVE",
"269 455 CURVE SMOOTH",
"269 703 OFFCURVE",
"369 851 OFFCURVE",
"538 851 CURVE SMOOTH",
"633 851 OFFCURVE",
"706 803 OFFCURVE",
"753 719 CURVE",
"299 247 LINE"
);
}
);
width = 1083;
},
{
layerId = "7C8D72FA-6E62-4564-8BB2-D9F9BC4EB15A";
paths = (
{
closed = 1;
nodes = (
"808 -18 OFFCURVE",
"998 185 OFFCURVE",
"998 455 CURVE SMOOTH",
"998 573 OFFCURVE",
"962 678 OFFCURVE",
"899 758 CURVE",
"1047 911 LINE",
"939 911 LINE",
"845 815 LINE",
"766 886 OFFCURVE",
"662 928 OFFCURVE",
"541 928 CURVE SMOOTH",
"274 928 OFFCURVE",
"84 725 OFFCURVE",
"84 455 CURVE SMOOTH",
"84 330 OFFCURVE",
"123 221 OFFCURVE",
"193 139 CURVE",
"60 0 LINE",
"166 0 LINE",
"247 84 LINE",
"324 20 OFFCURVE",
"426 -18 OFFCURVE",
"541 -18 CURVE SMOOTH"
);
},
{
closed = 1;
nodes = (
"451 62 OFFCURVE",
"383 104 OFFCURVE",
"340 181 CURVE",
"780 633 LINE",
"793 582 OFFCURVE",
"801 522 OFFCURVE",
"801 457 CURVE SMOOTH",
"801 221 OFFCURVE",
"708 62 OFFCURVE",
"539 62 CURVE SMOOTH"
);
},
{
closed = 1;
nodes = (
"289 313 OFFCURVE",
"281 380 OFFCURVE",
"281 455 CURVE SMOOTH",
"281 691 OFFCURVE",
"372 849 OFFCURVE",
"541 849 CURVE SMOOTH",
"635 849 OFFCURVE",
"705 799 OFFCURVE",
"750 715 CURVE",
"308 257 LINE"
);
}
);
width = 1088;
}
);
leftKerningGroup = o;
rightKerningGroup = o;
unicode = 00F8;
},
{
glyphname = oslashacute;
layers = (
{
components = (
{
name = acute;
transform = "{1, 0, 0, 1, 493, 0}";
}
);
layerId = "FA6D65B5-4623-4FAC-A199-3F662257AC29";
paths = (
{
closed = 1;
nodes = (
"875 -18 OFFCURVE",
"1050 196 OFFCURVE",
"1050 455 CURVE SMOOTH",
"1050 577 OFFCURVE",
"1011 689 OFFCURVE",
"937 773 CURVE",
"1070 911 LINE",
"940 911 LINE",
"868 837 LINE",
"789 894 OFFCURVE",
"686 928 OFFCURVE",
"561 928 CURVE SMOOTH",
"246 928 OFFCURVE",
"70 715 OFFCURVE",
"70 455 CURVE SMOOTH",
"70 332 OFFCURVE",
"110 220 OFFCURVE",
"184 136 CURVE",
"54 0 LINE",
"183 0 LINE",
"253 72 LINE",
"332 16 OFFCURVE",
"435 -18 OFFCURVE",
"561 -18 CURVE SMOOTH"
);
},
{
closed = 1;
nodes = (
"471 70 OFFCURVE",
"419 133 OFFCURVE",
"392 215 CURVE",
"753 584 LINE",
"758 540 OFFCURVE",
"762 495 OFFCURVE",
"762 455 CURVE SMOOTH",
"762 296 OFFCURVE",
"727 70 OFFCURVE",
"561 70 CURVE SMOOTH"
);
},
{
closed = 1;
nodes = (
"361 368 OFFCURVE",
"359 414 OFFCURVE",
"359 455 CURVE SMOOTH",
"359 613 OFFCURVE",
"391 839 OFFCURVE",
"561 839 CURVE SMOOTH",
"649 839 OFFCURVE",
"699 777 OFFCURVE",
"729 694 CURVE",
"368 323 LINE"
);
}
);
width = 1121;
},
{
associatedMasterId = "FA6D65B5-4623-4FAC-A199-3F662257AC29";
components = (
{
name = acute;
transform = "{1, 0, 0, 1, 461, 0}";
}
);
layerId = "CBD44848-52BD-4DC5-BFA6-577546B7224D";
paths = (
{
closed = 1;
nodes = (
"798 -18 OFFCURVE",
"990 184 OFFCURVE",
"990 455 CURVE SMOOTH",
"990 572 OFFCURVE",
"954 676 OFFCURVE",
"894 756 CURVE",
"1043 911 LINE",
"938 911 LINE",
"842 812 LINE",
"763 885 OFFCURVE",
"658 928 OFFCURVE",
"538 928 CURVE SMOOTH",
"278 928 OFFCURVE",
"86 727 OFFCURVE",
"86 455 CURVE SMOOTH",
"86 330 OFFCURVE",
"125 222 OFFCURVE",
"194 140 CURVE",
"61 0 LINE",
"163 0 LINE",
"246 86 LINE",
"323 21 OFFCURVE",
"425 -18 OFFCURVE",
"538 -18 CURVE SMOOTH"
);
},
{
closed = 1;
nodes = (
"448 61 OFFCURVE",
"378 100 OFFCURVE",
"332 176 CURVE",
"784 641 LINE",
"799 588 OFFCURVE",
"808 526 OFFCURVE",
"808 457 CURVE SMOOTH",
"808 210 OFFCURVE",
"705 61 OFFCURVE",
"536 61 CURVE SMOOTH"
);
},
{
closed = 1;
nodes = (
"278 305 OFFCURVE",
"269 375 OFFCURVE",
"269 455 CURVE SMOOTH",
"269 703 OFFCURVE",
"369 851 OFFCURVE",
"538 851 CURVE SMOOTH",
"633 851 OFFCURVE",
"706 803 OFFCURVE",
"753 719 CURVE",
"299 247 LINE"
);
}
);
width = 1083;
},
{
components = (
{
alignment = -1;
name = acute;
transform = "{1, 0, 0, 1, 465, 0}";
}
);
layerId = "7C8D72FA-6E62-4564-8BB2-D9F9BC4EB15A";
paths = (
{
closed = 1;
nodes = (
"808 -18 OFFCURVE",
"998 185 OFFCURVE",
"998 455 CURVE SMOOTH",
"998 573 OFFCURVE",
"962 678 OFFCURVE",
"899 758 CURVE",
"1047 911 LINE",
"939 911 LINE",
"845 815 LINE",
"766 886 OFFCURVE",
"662 928 OFFCURVE",
"541 928 CURVE SMOOTH",
"274 928 OFFCURVE",
"84 725 OFFCURVE",
"84 455 CURVE SMOOTH",
"84 330 OFFCURVE",
"123 221 OFFCURVE",
"193 139 CURVE",
"60 0 LINE",
"166 0 LINE",
"247 84 LINE",
"324 20 OFFCURVE",
"426 -18 OFFCURVE",
"541 -18 CURVE SMOOTH"
);
},
{
closed = 1;
nodes = (
"451 62 OFFCURVE",
"383 104 OFFCURVE",
"340 181 CURVE",
"780 633 LINE",
"793 582 OFFCURVE",
"801 522 OFFCURVE",
"801 457 CURVE SMOOTH",
"801 221 OFFCURVE",
"708 62 OFFCURVE",
"539 62 CURVE SMOOTH"
);
},
{
closed = 1;
nodes = (
"289 313 OFFCURVE",
"281 380 OFFCURVE",
"281 455 CURVE SMOOTH",
"281 691 OFFCURVE",
"372 849 OFFCURVE",
"541 849 CURVE SMOOTH",
"635 849 OFFCURVE",
"705 799 OFFCURVE",
"750 715 CURVE",
"308 257 LINE"
);
}
);
width = 1088;
}
);
leftKerningGroup = o;
rightKerningGroup = o;
unicode = 01FF;
},
{
glyphname = p;
layers = (
{
layerId = "FA6D65B5-4623-4FAC-A199-3F662257AC29";
paths = (
{
closed = 1;
nodes = (
"663 -430 LINE",
"663 -389 LINE",
"434 -344 LINE",
"434 9 LINE",
"484 -9 OFFCURVE",
"534 -18 OFFCURVE",
"597 -18 CURVE SMOOTH",
"900 -18 OFFCURVE",
"1099 177 OFFCURVE",
"1099 477 CURVE SMOOTH",
"1099 741 OFFCURVE",
"938 928 OFFCURVE",
"713 928 CURVE SMOOTH",
"600 928 OFFCURVE",
"490 880 OFFCURVE",
"426 801 CURVE",
"418 801 LINE",
"418 928 LINE",
"378 928 LINE",
"22 846 LINE",
"22 805 LINE",
"167 758 LINE",
"167 -344 LINE",
"18 -389 LINE",
"18 -430 LINE"
);
},
{
closed = 1;
nodes = (
"509 75 OFFCURVE",
"434 160 OFFCURVE",
"434 265 CURVE SMOOTH",
"434 692 LINE",
"461 751 OFFCURVE",
"534 794 OFFCURVE",
"605 794 CURVE SMOOTH",
"729 794 OFFCURVE",
"808 660 OFFCURVE",
"808 447 CURVE SMOOTH",
"808 227 OFFCURVE",
"724 75 OFFCURVE",
"600 75 CURVE SMOOTH"
);
}
);
width = 1164;
},
{
associatedMasterId = "FA6D65B5-4623-4FAC-A199-3F662257AC29";
layerId = "CBD44848-52BD-4DC5-BFA6-577546B7224D";
paths = (
{
closed = 1;
nodes = (
"502 -430 LINE",
"502 -397 LINE",
"332 -371 LINE",
"332 9 LINE",
"389 -11 OFFCURVE",
"443 -18 OFFCURVE",
"498 -18 CURVE SMOOTH",
"782 -18 OFFCURVE",
"977 183 OFFCURVE",
"977 469 CURVE SMOOTH",
"977 734 OFFCURVE",
"828 928 OFFCURVE",
"613 928 CURVE SMOOTH",
"512 928 OFFCURVE",
"402 882 OFFCURVE",
"333 777 CURVE",
"326 777 LINE",
"326 928 LINE",
"308 928 LINE",
"43 846 LINE",
"43 821 LINE",
"168 775 LINE",
"168 -371 LINE",
"39 -397 LINE",
"39 -430 LINE"
);
},
{
closed = 1;
nodes = (
"412 34 OFFCURVE",
"340 104 OFFCURVE",
"340 203 CURVE SMOOTH",
"340 717 LINE",
"369 773 OFFCURVE",
"457 816 OFFCURVE",
"527 816 CURVE SMOOTH",
"694 816 OFFCURVE",
"798 674 OFFCURVE",
"798 441 CURVE SMOOTH",
"798 201 OFFCURVE",
"681 34 OFFCURVE",
"505 34 CURVE SMOOTH"
);
}
);
width = 1057;
},
{
layerId = "7C8D72FA-6E62-4564-8BB2-D9F9BC4EB15A";
paths = (
{
closed = 1;
nodes = (
"523 -430 LINE",
"523 -396 LINE",
"346 -367 LINE",
"346 9 LINE",
"401 -10 OFFCURVE",
"455 -18 OFFCURVE",
"511 -18 CURVE SMOOTH",
"798 -18 OFFCURVE",
"993 182 OFFCURVE",
"993 470 CURVE SMOOTH",
"993 735 OFFCURVE",
"843 928 OFFCURVE",
"627 928 CURVE SMOOTH",
"523 928 OFFCURVE",
"414 882 OFFCURVE",
"345 780 CURVE",
"338 780 LINE",
"338 928 LINE",
"317 928 LINE",
"40 846 LINE",
"40 819 LINE",
"168 773 LINE",
"168 -367 LINE",
"36 -396 LINE",
"36 -430 LINE"
);
},
{
closed = 1;
nodes = (
"425 40 OFFCURVE",
"352 111 OFFCURVE",
"352 211 CURVE SMOOTH",
"352 714 LINE",
"381 770 OFFCURVE",
"467 813 OFFCURVE",
"538 813 CURVE SMOOTH",
"699 813 OFFCURVE",
"799 672 OFFCURVE",
"799 442 CURVE SMOOTH",
"799 205 OFFCURVE",
"686 40 OFFCURVE",
"518 40 CURVE SMOOTH"
);
}
);
width = 1071;
}
);
rightKerningGroup = b;
unicode = 0070;
},
{
glyphname = thorn;
layers = (
{
layerId = "FA6D65B5-4623-4FAC-A199-3F662257AC29";
paths = (
{
closed = 1;
nodes = (
"633 -430 LINE",
"633 -389 LINE",
"402 -344 LINE",
"402 9 LINE",
"455 -9 OFFCURVE",
"505 -18 OFFCURVE",
"565 -18 CURVE SMOOTH",
"870 -18 OFFCURVE",
"1067 181 OFFCURVE",
"1067 484 CURVE SMOOTH",
"1067 749 OFFCURVE",
"916 928 OFFCURVE",
"691 928 CURVE SMOOTH",
"583 928 OFFCURVE",
"484 887 OFFCURVE",
"402 806 CURVE",
"402 1427 LINE",
"364 1427 LINE",
"-9 1343 LINE",
"-9 1303 LINE",
"136 1257 LINE",
"136 -344 LINE",
"-14 -389 LINE",
"-14 -430 LINE"
);
},
{
closed = 1;
nodes = (
"477 75 OFFCURVE",
"402 158 OFFCURVE",
"402 265 CURVE SMOOTH",
"402 694 LINE",
"445 760 OFFCURVE",
"504 794 OFFCURVE",
"569 794 CURVE SMOOTH",
"699 794 OFFCURVE",
"777 665 OFFCURVE",
"777 447 CURVE SMOOTH",
"777 224 OFFCURVE",
"694 75 OFFCURVE",
"569 75 CURVE SMOOTH"
);
}
);
width = 1133;
},
{
associatedMasterId = "FA6D65B5-4623-4FAC-A199-3F662257AC29";
layerId = "CBD44848-52BD-4DC5-BFA6-577546B7224D";
paths = (
{
closed = 1;
nodes = (
"477 -430 LINE",
"477 -397 LINE",
"306 -371 LINE",
"306 9 LINE",
"357 -9 OFFCURVE",
"412 -18 OFFCURVE",
"471 -18 CURVE SMOOTH",
"762 -18 OFFCURVE",
"956 184 OFFCURVE",
"956 484 CURVE SMOOTH",
"956 749 OFFCURVE",
"805 928 OFFCURVE",
"579 928 CURVE SMOOTH",
"475 928 OFFCURVE",
"387 891 OFFCURVE",
"314 812 CURVE",
"314 1427 LINE",
"297 1427 LINE",
"24 1343 LINE",
"24 1320 LINE",
"149 1273 LINE",
"149 -371 LINE",
"21 -397 LINE",
"21 -430 LINE"
);
},
{
closed = 1;
nodes = (
"383 34 OFFCURVE",
"314 104 OFFCURVE",
"314 203 CURVE SMOOTH",
"314 746 LINE",
"361 803 OFFCURVE",
"430 835 OFFCURVE",
"505 835 CURVE SMOOTH",
"669 835 OFFCURVE",
"771 688 OFFCURVE",
"771 452 CURVE SMOOTH",
"771 206 OFFCURVE",
"655 34 OFFCURVE",
"486 34 CURVE SMOOTH"
);
}
);
width = 1036;
},
{
layerId = "7C8D72FA-6E62-4564-8BB2-D9F9BC4EB15A";
paths = (
{
closed = 1;
nodes = (
"497 -430 LINE",
"497 -396 LINE",
"319 -367 LINE",
"319 9 LINE",
"370 -9 OFFCURVE",
"424 -18 OFFCURVE",
"483 -18 CURVE SMOOTH",
"776 -18 OFFCURVE",
"971 183 OFFCURVE",
"971 484 CURVE SMOOTH",
"971 749 OFFCURVE",
"820 928 OFFCURVE",
"594 928 CURVE SMOOTH",
"489 928 OFFCURVE",
"400 890 OFFCURVE",
"326 811 CURVE",
"326 1427 LINE",
"306 1427 LINE",
"20 1343 LINE",
"20 1318 LINE",
"148 1271 LINE",
"148 -367 LINE",
"16 -396 LINE",
"16 -430 LINE"
);
},
{
closed = 1;
nodes = (
"395 40 OFFCURVE",
"326 111 OFFCURVE",
"326 211 CURVE SMOOTH",
"326 739 LINE",
"373 797 OFFCURVE",
"440 829 OFFCURVE",
"513 829 CURVE SMOOTH",
"673 829 OFFCURVE",
"772 685 OFFCURVE",
"772 451 CURVE SMOOTH",
"772 208 OFFCURVE",
"660 40 OFFCURVE",
"497 40 CURVE SMOOTH"
);
}
);
width = 1049;
}
);
leftKerningGroup = b;
rightKerningGroup = b;
unicode = 00FE;
},
{
glyphname = q;
layers = (
{
layerId = "FA6D65B5-4623-4FAC-A199-3F662257AC29";
paths = (
{
closed = 1;
nodes = (
"1153 -430 LINE",
"1153 -389 LINE",
"1004 -344 LINE",
"1004 907 LINE",
"956 907 LINE",
"814 849 LINE",
"805 849 LINE",
"729 900 OFFCURVE",
"633 928 OFFCURVE",
"540 928 CURVE SMOOTH",
"256 928 OFFCURVE",
"65 732 OFFCURVE",
"65 418 CURVE SMOOTH",
"65 160 OFFCURVE",
"224 -18 OFFCURVE",
"454 -18 CURVE SMOOTH",
"563 -18 OFFCURVE",
"662 22 OFFCURVE",
"739 100 CURVE",
"739 -344 LINE",
"507 -389 LINE",
"507 -430 LINE"
);
},
{
closed = 1;
nodes = (
"435 106 OFFCURVE",
"362 240 OFFCURVE",
"362 466 CURVE SMOOTH",
"362 712 OFFCURVE",
"445 835 OFFCURVE",
"574 835 CURVE SMOOTH",
"670 835 OFFCURVE",
"739 749 OFFCURVE",
"739 619 CURVE SMOOTH",
"739 196 LINE",
"696 141 OFFCURVE",
"636 106 OFFCURVE",
"563 106 CURVE SMOOTH"
);
}
);
width = 1140;
},
{
associatedMasterId = "FA6D65B5-4623-4FAC-A199-3F662257AC29";
layerId = "CBD44848-52BD-4DC5-BFA6-577546B7224D";
paths = (
{
closed = 1;
nodes = (
"1014 -430 LINE",
"1014 -397 LINE",
"885 -371 LINE",
"885 907 LINE",
"857 907 LINE",
"780 849 LINE",
"771 849 LINE",
"703 900 OFFCURVE",
"620 928 OFFCURVE",
"534 928 CURVE SMOOTH",
"263 928 OFFCURVE",
"81 732 OFFCURVE",
"81 418 CURVE SMOOTH",
"81 160 OFFCURVE",
"235 -18 OFFCURVE",
"461 -18 CURVE SMOOTH",
"563 -18 OFFCURVE",
"649 22 OFFCURVE",
"722 100 CURVE",
"722 -371 LINE",
"552 -397 LINE",
"552 -430 LINE"
);
},
{
closed = 1;
nodes = (
"366 75 OFFCURVE",
"265 224 OFFCURVE",
"265 466 CURVE SMOOTH",
"265 737 OFFCURVE",
"375 873 OFFCURVE",
"534 873 CURVE SMOOTH",
"648 873 OFFCURVE",
"722 787 OFFCURVE",
"722 656 CURVE SMOOTH",
"722 165 LINE",
"677 110 OFFCURVE",
"610 75 OFFCURVE",
"533 75 CURVE SMOOTH"
);
}
);
width = 1035;
},
{
layerId = "7C8D72FA-6E62-4564-8BB2-D9F9BC4EB15A";
paths = (
{
closed = 1;
nodes = (
"1032 -430 LINE",
"1032 -396 LINE",
"901 -367 LINE",
"901 907 LINE",
"871 907 LINE",
"785 849 LINE",
"776 849 LINE",
"707 900 OFFCURVE",
"622 928 OFFCURVE",
"535 928 CURVE SMOOTH",
"262 928 OFFCURVE",
"79 732 OFFCURVE",
"79 418 CURVE SMOOTH",
"79 160 OFFCURVE",
"234 -18 OFFCURVE",
"460 -18 CURVE SMOOTH",
"563 -18 OFFCURVE",
"651 22 OFFCURVE",
"724 100 CURVE",
"724 -367 LINE",
"546 -396 LINE",
"546 -430 LINE"
);
},
{
closed = 1;
nodes = (
"375 79 OFFCURVE",
"278 226 OFFCURVE",
"278 466 CURVE SMOOTH",
"278 734 OFFCURVE",
"384 868 OFFCURVE",
"540 868 CURVE SMOOTH",
"651 868 OFFCURVE",
"724 782 OFFCURVE",
"724 651 CURVE SMOOTH",
"724 169 LINE",
"679 114 OFFCURVE",
"614 79 OFFCURVE",
"537 79 CURVE SMOOTH"
);
}
);
width = 1049;
}
);
leftKerningGroup = d;
unicode = 0071;
},
{
glyphname = r;
layers = (
{
anchors = (
{
name = bottom;
position = "{301, -4}";
},
{
name = top;
position = "{438, 1119}";
}
);
layerId = "FA6D65B5-4623-4FAC-A199-3F662257AC29";
paths = (
{
closed = 1;
nodes = (
"667 0 LINE",
"667 61 LINE",
"441 95 LINE",
"441 763 LINE",
"434 771 LINE",
"434 928 LINE",
"397 928 LINE",
"45 846 LINE",
"45 805 LINE",
"176 756 LINE",
"176 95 LINE",
"47 61 LINE",
"47 0 LINE"
);
},
{
closed = 1;
nodes = (
"445 655 OFFCURVE",
"441 658 OFFCURVE",
"483 712 CURVE SMOOTH",
"505 741 OFFCURVE",
"534 755 OFFCURVE",
"563 755 CURVE SMOOTH",
"591 755 OFFCURVE",
"615 742 OFFCURVE",
"649 713 CURVE SMOOTH",
"676 691 OFFCURVE",
"703 681 OFFCURVE",
"734 681 CURVE SMOOTH",
"794 681 OFFCURVE",
"841 734 OFFCURVE",
"841 803 CURVE SMOOTH",
"841 875 OFFCURVE",
"777 930 OFFCURVE",
"691 930 CURVE SMOOTH",
"606 930 OFFCURVE",
"516 871 OFFCURVE",
"425 763 CURVE",
"441 636 LINE"
);
}
);
width = 849;
},
{
anchors = (
{
name = bottom;
position = "{267, -4}";
},
{
name = top;
position = "{404, 1119}";
}
);
associatedMasterId = "FA6D65B5-4623-4FAC-A199-3F662257AC29";
layerId = "CBD44848-52BD-4DC5-BFA6-577546B7224D";
paths = (
{
closed = 1;
nodes = (
"521 0 LINE",
"521 34 LINE",
"349 61 LINE",
"349 729 LINE",
"342 737 LINE",
"342 930 LINE",
"325 930 LINE",
"59 846 LINE",
"59 823 LINE",
"186 775 LINE",
"186 61 LINE",
"55 34 LINE",
"55 0 LINE"
);
},
{
closed = 1;
nodes = (
"354 684 OFFCURVE",
"359 692 OFFCURVE",
"398 746 CURVE SMOOTH",
"421 777 OFFCURVE",
"440 789 OFFCURVE",
"468 789 CURVE SMOOTH",
"488 789 OFFCURVE",
"500 782 OFFCURVE",
"521 756 CURVE SMOOTH",
"536 735 OFFCURVE",
"561 724 OFFCURVE",
"586 724 CURVE SMOOTH",
"643 724 OFFCURVE",
"686 767 OFFCURVE",
"686 821 CURVE SMOOTH",
"686 882 OFFCURVE",
"638 930 OFFCURVE",
"577 930 CURVE SMOOTH",
"504 930 OFFCURVE",
"418 857 OFFCURVE",
"333 729 CURVE",
"349 662 LINE"
);
}
);
width = 713;
},
{
anchors = (
{
name = bottom;
position = "{271, -4}";
},
{
name = top;
position = "{409, 1119}";
}
);
layerId = "7C8D72FA-6E62-4564-8BB2-D9F9BC4EB15A";
paths = (
{
closed = 1;
nodes = (
"540 0 LINE",
"540 38 LINE",
"361 65 LINE",
"361 733 LINE",
"354 742 LINE",
"354 929 LINE",
"335 929 LINE",
"57 846 LINE",
"57 821 LINE",
"184 773 LINE",
"184 65 LINE",
"54 38 LINE",
"54 0 LINE"
);
},
{
closed = 1;
nodes = (
"367 680 OFFCURVE",
"370 688 OFFCURVE",
"410 742 CURVE SMOOTH",
"432 773 OFFCURVE",
"453 785 OFFCURVE",
"481 785 CURVE SMOOTH",
"502 785 OFFCURVE",
"515 777 OFFCURVE",
"538 750 CURVE SMOOTH",
"555 729 OFFCURVE",
"580 718 OFFCURVE",
"606 718 CURVE SMOOTH",
"663 718 OFFCURVE",
"706 762 OFFCURVE",
"706 819 CURVE SMOOTH",
"706 881 OFFCURVE",
"656 930 OFFCURVE",
"592 930 CURVE SMOOTH",
"518 930 OFFCURVE",
"431 859 OFFCURVE",
"345 733 CURVE",
"361 659 LINE"
);
}
);
width = 731;
}
);
leftKerningGroup = n;
rightKerningGroup = r;
unicode = 0072;
},
{
glyphname = s;
layers = (
{
anchors = (
{
name = bottom;
position = "{399, 0}";
},
{
name = top;
position = "{423, 1119}";
}
);
layerId = "FA6D65B5-4623-4FAC-A199-3F662257AC29";
paths = (
{
closed = 1;
nodes = (
"600 -18 OFFCURVE",
"737 91 OFFCURVE",
"737 276 CURVE SMOOTH",
"737 600 OFFCURVE",
"323 563 OFFCURVE",
"323 739 CURVE SMOOTH",
"323 801 OFFCURVE",
"375 842 OFFCURVE",
"454 842 CURVE SMOOTH",
"552 842 OFFCURVE",
"610 780 OFFCURVE",
"626 660 CURVE",
"692 660 LINE",
"692 898 LINE",
"643 916 OFFCURVE",
"554 928 OFFCURVE",
"466 928 CURVE SMOOTH",
"217 928 OFFCURVE",
"88 837 OFFCURVE",
"88 663 CURVE SMOOTH",
"88 351 OFFCURVE",
"505 380 OFFCURVE",
"505 192 CURVE SMOOTH",
"505 118 OFFCURVE",
"447 68 OFFCURVE",
"359 68 CURVE SMOOTH",
"240 68 OFFCURVE",
"170 149 OFFCURVE",
"160 299 CURVE",
"86 299 LINE",
"97 19 LINE",
"168 -4 OFFCURVE",
"276 -18 OFFCURVE",
"364 -18 CURVE SMOOTH"
);
}
);
width = 806;
},
{
anchors = (
{
name = bottom;
position = "{351, 0}";
},
{
name = top;
position = "{394, 1119}";
}
);
associatedMasterId = "FA6D65B5-4623-4FAC-A199-3F662257AC29";
layerId = "CBD44848-52BD-4DC5-BFA6-577546B7224D";
paths = (
{
closed = 1;
nodes = (
"541 -18 OFFCURVE",
"663 91 OFFCURVE",
"663 262 CURVE SMOOTH",
"663 583 OFFCURVE",
"235 511 OFFCURVE",
"235 737 CURVE SMOOTH",
"235 823 OFFCURVE",
"294 877 OFFCURVE",
"385 877 CURVE SMOOTH",
"502 877 OFFCURVE",
"569 803 OFFCURVE",
"586 660 CURVE",
"622 660 LINE",
"622 898 LINE",
"579 916 OFFCURVE",
"497 928 OFFCURVE",
"419 928 CURVE SMOOTH",
"215 928 OFFCURVE",
"100 837 OFFCURVE",
"100 677 CURVE SMOOTH",
"100 369 OFFCURVE",
"531 434 OFFCURVE",
"531 192 CURVE SMOOTH",
"531 97 OFFCURVE",
"464 34 OFFCURVE",
"361 34 CURVE SMOOTH",
"230 34 OFFCURVE",
"156 125 OFFCURVE",
"141 299 CURVE",
"100 299 LINE",
"110 21 LINE",
"177 -2 OFFCURVE",
"275 -18 OFFCURVE",
"348 -18 CURVE SMOOTH"
);
}
);
width = 748;
},
{
anchors = (
{
name = bottom;
position = "{357, 0}";
},
{
name = top;
position = "{397, 1119}";
}
);
layerId = "7C8D72FA-6E62-4564-8BB2-D9F9BC4EB15A";
paths = (
{
closed = 1;
nodes = (
"549 -18 OFFCURVE",
"673 91 OFFCURVE",
"673 264 CURVE SMOOTH",
"673 585 OFFCURVE",
"247 518 OFFCURVE",
"247 738 CURVE SMOOTH",
"247 820 OFFCURVE",
"305 872 OFFCURVE",
"394 872 CURVE SMOOTH",
"509 872 OFFCURVE",
"575 800 OFFCURVE",
"591 660 CURVE",
"631 660 LINE",
"631 898 LINE",
"588 916 OFFCURVE",
"505 928 OFFCURVE",
"425 928 CURVE SMOOTH",
"215 928 OFFCURVE",
"98 837 OFFCURVE",
"98 675 CURVE SMOOTH",
"98 367 OFFCURVE",
"528 426 OFFCURVE",
"528 192 CURVE SMOOTH",
"528 100 OFFCURVE",
"462 39 OFFCURVE",
"361 39 CURVE SMOOTH",
"232 39 OFFCURVE",
"158 128 OFFCURVE",
"143 299 CURVE",
"98 299 LINE",
"109 20 LINE",
"176 -2 OFFCURVE",
"276 -18 OFFCURVE",
"350 -18 CURVE SMOOTH"
);
}
);
width = 756;
}
);
leftKerningGroup = s;
rightKerningGroup = s;
unicode = 0073;
},
